<?xml version="1.0" encoding="UTF-8"?><svg id="_레이어_2" xmlns="http://www.w3.org/2000/svg" viewBox="0 0 28 27.44"><defs><style>.cls-1{fill:#0f0f0e;stroke-width:0px;}</style></defs><g id="_레이어_1-2"><path class="cls-1" d="M12.17,27.44l-6.17-1.3-4.55-4.38-1.45-6.16.02-.09,1.13-6.06,3.73-4.98,5.2-3.37,6.11-1.11,5.96.93,4.45,4.12,1.41,5.83-1.6,6.55-6.11,2.93-3.75-2.68-4.28,2.81-5.22-5.91,1.99-4.93,4.73-2.45,3.47,2.91.78-2.3,3.56-.11-.68,5.82.47,1.9,2.09-4.22-2.15-5.12-5.4-1.57-5.75,1-4.06,4.18-1.4,5.57,2.16,6.08,6.33,1.87,4.91-.78-.86,4.37-5.06.63ZM6.4,25.38l5.8,1.23,4.33-.54.52-2.62-3.92.62-6.92-2.04-2.39-6.72,1.52-6.03,4.4-4.53,6.2-1.08.09.03,5.87,1.7,2.45,5.83-3.26,6.59-1.04-4.24.59-5.01-2.02.06-.98,2.91-3.97-3.33-3.97,2.06-1.69,4.17,4.41,4.99,4.15-2.73,3.81,2.72,5.32-2.55,1.46-5.97-1.3-5.4-4.09-3.78-5.57-.87-5.81,1.05-4.93,3.2-3.52,4.71-1.08,5.78,1.36,5.75,4.2,4.05ZM13.39,17.2l-2.76-3.07,3.26-3.48,2.55,3.05-3.05,3.51ZM11.75,14.14l1.63,1.81,1.97-2.27-1.5-1.79-2.1,2.25Z"/></g></svg>