<?xml version="1.0" encoding="UTF-8"?><svg id="_레이어_2" xmlns="http://www.w3.org/2000/svg" viewBox="0 0 324.74 145.16"><defs><style>.cls-1{fill:#0f0f0e;}.cls-1,.cls-2{stroke-width:0px;}.cls-2{fill:#060001;}</style></defs><g id="_레이어_2-2"><path class="cls-1" d="M147.67,66.73l-4.18-1.06-3.6-2.27-3.04-3.12-1.95-3.9-1.11-4.06-1-4.14-.44-4.22.48-4.27.75-4.12,1.07-4.17,2.36-3.7,2.65-3.33,3.7-2.43,4.29-.81,4.47.48,3.77,2.53,3.02,3.36,1.26,4.17,1.76,3.84.46,4.22.79,4.2-.54,4.39-1.08,3.99-1.04,4.1-2.04,3.83-2.85,3.29-3.7,2.31-4.27.88ZM144.19,64.05l3.52.9,3.58-.74,3.22-2.01,2.55-2.95,1.85-3.47.99-3.9,1.06-3.94.48-3.94-.76-4.04-.43-3.98-1.71-3.74-1.17-3.86-2.62-2.91-3.23-2.17-3.79-.41-3.69.7-3.17,2.09-2.45,3.08-2.13,3.35-.99,3.87-.73,4-.45,4,.42,3.97.96,3.95,1.05,3.87,1.75,3.5,2.71,2.78,3.19,2.01Z"/><path class="cls-1" d="M147.65,67.59l-4.49-1.15-3.86-2.46-3.13-3.21-2.07-4.17-1.11-4.06-1.02-4.27-.45-4.31.5-4.42.77-4.18,1.1-4.3,2.48-3.89,2.74-3.44,3.95-2.6,4.57-.86,4.8.52,4.09,2.78,3.15,3.5,1.3,4.3,1.79,3.91.47,4.33.81,4.3-.58,4.64-1.08,3.99-1.11,4.27-2.15,3.99-2.94,3.39-3.93,2.46-4.61.95ZM143.83,64.89l3.86.98,3.94-.81,3.47-2.17,2.71-3.13,1.95-3.66,1.01-4,1.06-3.95.52-4.2-.78-4.14-.44-4.09-1.74-3.82-1.21-4-2.83-3.15-3.51-2.36-4.14-.45-4,.76-3.45,2.27-2.54,3.2-2.27,3.55-1.03,4.01-.74,4.06-.47,4.16.43,4.07.99,4.09,1.08,3.96,1.86,3.71,2.88,2.95,3.4,2.15ZM147.69,65.81l-3.84-.98-3.45-2.21-2.8-2.87-1.87-3.78-1.05-3.87-.99-4.08-.43-4.06.47-4.14.74-4.06,1.02-4,2.26-3.54,2.54-3.18,3.42-2.25,3.98-.75,4.11.44,3.56,2.42,2.75,3.05,1.21,3.99,1.74,3.81.44,4.08.78,4.13-.51,4.19-1.06,3.94-1.06,4.08-1.96,3.63-2.64,3.04-3.45,2.15-3.91.81ZM144.52,63.28l3.21.82,3.24-.67,2.98-1.86,2.41-2.78,1.76-3.3.96-3.81,1.05-3.9.45-3.75-.75-3.98-.42-3.84-1.69-3.73-1.12-3.68-2.43-2.7-2.97-2-3.46-.37-3.41.64-2.92,1.92-2.34,2.94-2.04,3.2-.95,3.71-.72,3.95-.44,3.88.4,3.83.95,3.89,1.03,3.77,1.66,3.31,2.55,2.61,3,1.89Z"/><path class="cls-1" d="M177.06,66.71l-4.51-.37-3.51-2.92-2.91-3.14-1.76-3.98-1.43-3.97-1.03-8.34-.2-4.28.8-4.32,1.82-3.92,1.92-3.78,2.87-3.21,3.5-2.64,4.43-.93,4.22,1.21,3.71,2.2,2.99,3.25,1.83,3.88,1.77,4,.08,4.31.73,4.15-.46,4.36-.96,4.04-1.12,4.07-2.02,3.86-3.04,3.12-3.4,2.63-4.32.69ZM173.24,64.66l3.76.31,3.68-.59,3-2.32,2.73-2.82,1.81-3.47,1.07-3.88.94-3.94.41-3.95-.72-4.11-.07-4.03-1.62-3.66-1.7-3.62-2.64-2.86-3.3-1.96-3.59-1.03-3.63.76-3.06,2.3-2.61,2.92-1.82,3.56-1.7,3.68-.72,3.91.19,4.04,1,8.05,1.35,3.75,1.61,3.62,2.67,2.88,2.96,2.46Z"/><path class="cls-1" d="M177.1,67.56l-4.88-.4-3.79-3.16-3-3.24-1.84-4.16-1.47-4.15-1.04-8.4-.2-4.37.88-4.62,1.82-3.92,2.06-3.98,2.99-3.32,3.65-2.75,4.81-1.01,4.61,1.35,3.82,2.27,3.16,3.43,1.88,4,1.84,4.18.08,4.41.74,4.2-.49,4.58-.96,4.04-1.19,4.26-2.07,3.97-3.21,3.29-3.57,2.76-4.63.74ZM172.88,65.53l4.15.34,4.01-.64,3.19-2.47,2.91-2.99,1.92-3.68,1.09-3.98.95-3.96.44-4.19-.72-4.16-.07-4.14-1.7-3.85-1.76-3.75-2.82-3.06-3.52-2.09-3.92-1.12-4.04.85-3.29,2.48-2.75,3.07-1.88,3.68-1.76,3.8-.76,4.12.19,4.15,1.01,8.22,1.39,3.85,1.69,3.82,2.78,3,3.26,2.72ZM177.03,65.8l-4.12-.34-3.24-2.7-2.77-2.99-1.69-3.81-1.4-3.93-1-8.11-.19-4.14.81-4.2,1.7-3.68,1.95-3.77,2.73-3.03,3.21-2.41,4.01-.84,3.98,1.17,3.41,2.02,2.81,3.05,1.76,3.74,1.69,3.84.07,4.13.72,4.16-.44,4.17-.94,3.94-1.14,4.07-1.87,3.58-2.9,2.98-3.17,2.45-3.99.64ZM173.57,63.84l3.39.28,3.37-.54,2.79-2.16,2.6-2.69,1.72-3.29,1.04-3.79.92-3.86.4-3.78-.71-4.12-.07-3.86-1.55-3.51-1.64-3.49-2.47-2.68-3.1-1.84-3.29-.94-3.24.68-2.84,2.14-2.48,2.77-1.77,3.46-1.65,3.56-.69,3.71.18,3.91.98,7.92,1.31,3.64,1.54,3.47,2.54,2.74,2.71,2.25Z"/><polygon class="cls-1" points="188.08 23.67 184.87 20.9 181.41 18.71 177.66 17.08 173.62 16.9 169.7 18.22 165.83 20.03 165.1 18.45 169.1 16.59 173.37 15.15 178.06 15.35 182.28 17.2 185.96 19.54 189.22 22.35 188.08 23.67"/><path class="cls-1" d="M188.17,24.84l-3.8-3.28-3.35-2.12-3.55-1.54-3.73-.17-3.72,1.26-4.58,2.14-1.45-3.09,4.85-2.26,4.42-1.49,5,.22,4.48,1.97,3.77,2.41,3.89,3.36-2.23,2.58ZM173.5,16.06l4.35.19,4,1.75,3.56,2.26,2.58,2.22.05-.05-2.58-2.23-3.57-2.27-4.02-1.76-4.38-.19-4.08,1.37-3.2,1.49.03.06,3.2-1.49,4.06-1.37Z"/><polygon class="cls-1" points="158.79 23.71 155.42 21.08 152.09 18.77 148.19 17.86 144.13 17.58 140.19 18.53 136.51 20.6 135.66 19.08 139.54 16.9 143.98 15.82 148.52 16.15 152.82 17.15 156.47 19.7 159.86 22.33 158.79 23.71"/><path class="cls-1" d="M158.94,24.88l-4.03-3.14-3.16-2.2-3.68-.86-3.86-.27-3.71.9-4.3,2.42-1.67-2.97,4.71-2.65,4.68-1.14,4.79.35,4.45,1.04,3.78,2.64,4.08,3.18-2.09,2.69ZM144.06,16.73l4.32.31,4.06.95,3.45,2.41,2.75,2.14.04-.06-2.73-2.12-3.49-2.43-4.08-.95-4.34-.31-4.2,1.02-3.06,1.72.03.06,3.05-1.71,4.18-1.02Z"/><path class="cls-1" d="M155.34,38.38c1.02.9,2.04,1.72,3.05,2.62-.33.98-.65,1.96-.98,2.94-.87.68-1.74,2.22-2.61,2.9l-1.21-.97c.48-.7.97-2.26,1.45-2.96-.74-.66-1.48-1.32-2.21-1.98.84-.88,1.68-1.68,2.51-2.56Z"/><path class="cls-1" d="M154.8,47.19l-1.58-1.27.15-.21c.23-.32.46-.89.7-1.43.2-.47.41-.95.62-1.32l-2.25-2.01.2-.21c.42-.44.84-.86,1.26-1.29.42-.42.83-.84,1.25-1.27l.18-.19.2.18c.51.45,1.01.88,1.52,1.31.51.43,1.02.86,1.53,1.31l.14.12-1.06,3.2-.07.05c-.41.32-.84.87-1.26,1.4-.44.56-.89,1.14-1.35,1.5l-.17.13ZM153.96,45.81l.84.67c.36-.32.73-.8,1.09-1.26.42-.53.85-1.08,1.29-1.44l.9-2.69c-.46-.4-.92-.79-1.38-1.18-.44-.37-.89-.75-1.33-1.14-.36.37-.72.73-1.07,1.09-.35.35-.7.71-1.06,1.07l2.18,1.95-.14.2c-.23.32-.47.89-.7,1.43-.2.47-.4.94-.61,1.31Z"/><path class="cls-1" d="M185.31,38.38c1.02.9,2.04,1.72,3.05,2.62-.33.98-.65,1.96-.98,2.94-.87.68-1.74,2.22-2.61,2.9l-1.21-.97c.48-.7.97-2.26,1.45-2.96-.74-.66-1.48-1.32-2.21-1.98.84-.88,1.68-1.68,2.51-2.56Z"/><path class="cls-1" d="M184.77,47.19l-1.58-1.26.15-.21c.23-.32.47-.89.7-1.43.2-.47.41-.95.62-1.32l-2.25-2.01.2-.21c.42-.44.84-.86,1.26-1.29.42-.42.83-.84,1.25-1.27l.18-.19.2.18c.51.45,1.01.88,1.52,1.3.51.43,1.02.86,1.53,1.32l.14.12-1.06,3.2-.07.05c-.41.32-.84.87-1.26,1.4-.44.56-.89,1.14-1.35,1.5l-.17.13ZM183.93,45.81l.84.67c.36-.32.73-.8,1.09-1.26.42-.53.85-1.08,1.29-1.44l.9-2.69c-.46-.4-.92-.8-1.39-1.19-.44-.37-.89-.75-1.33-1.14-.36.37-.72.73-1.07,1.09-.35.35-.7.71-1.06,1.07l2.18,1.95-.14.2c-.23.32-.47.89-.7,1.43-.2.47-.4.94-.61,1.31Z"/><polygon class="cls-1" points="159.8 77.22 159.16 74.18 166.48 72.65 171.67 72.86 168.44 67.69 165.32 60.38 160.64 53.88 163.16 52.06 168.04 58.85 171.25 66.35 177.44 76.2 166.74 75.77 159.8 77.22"/><path class="cls-2" d="M212.82,107.71l.36-6.97v-.03s-.14-7.06-.14-7.06l-.07-7.02v-7.05s-.12-7-.12-7l.36-7.02.2-7.02.48-7.11-1-7,.96-6.98-.14-7.1-.49-7.05-.12-7.03-.25-6.98.69-7.99-8.23-.46-7.17.6-7.12-.25-7.16-.16h-.01s-7.16.08-7.16.08l-7.14-.04-7.2-.22-7.15.46-7.18-.35-7.12.81-7.15-.95-7.18.66-7.16-.58-7.67.85-.44,7.49.05,7.06.57,7-.98,7.05.92,7.09.02,6.95-.37,6.99-.65,7.09.55,7.04-.51,7.01.11,7.07.59,7.07.19,6.94-.98,7.07.88,7.08-.22,6.99.21,7.01-.66,6.98v.04s.05,7.09.05,7.09l.21,8.02,8.15-.27,7.09-.28,7.14.92,7.2-.06,7.16.09h.03s7.2-.39,7.2-.39l4.57-.32,3.34-.08,6.31.73,7.22-.24,7.13-.56,7.09.52,7.19.26h.02s7.18-.15,7.18-.15l7.8-.59-.02-7.63-.27-7.04-.07-6.98.78-7.07-.74-7.06ZM113.63,37.41l-.91-7.03.97-7.01-.58-7.1-.05-6.97.35-5.97,6.05-.67,7.15.58,7.13-.66,7.17.95,7.19-.82,7.13.35,7.16-.46,7.14.22,7.17.04,7.14-.08,7.13.16,7.21.25,7.15-.6,6.33.35-.55,6.32.25,7.07.12,7.03.49,7.06.13,6.94-.97,7.09,1.01,7.06-.47,6.94-.2,7.05-.36,7.03v.03s.12,7.05.12,7.05v7.04s.07,7.04.07,7.04l.12,6.05-5.43-1.41-6.96-2.27-7.16-2.16-7.48-.13-14.46-1.77-7.42-.46-14.62.95-7.26.82-7.43.63-6.97,2.51-7.2,1.41-6.41,2.65.94-6.79-.2-7.1-.59-7.05-.11-6.97.51-7.06-.55-7.02.64-6.96.37-7.07v-.02s-.02-7.06-.02-7.06ZM165.61,141.74l-2.33.06-.87-.1-2.63.19h-.23s-4.66-.41-4.66-.41l.81-5.11,1.83-6.26.96-6.58,1.86-5.54h.03s5.54-.21,5.54-.21l.63,5.92,2.2,6.23,1.3,6.26.51,5.36-4.97.21ZM156.91,113.27l-3.98,5.82-2.16-4.94-1.83-6.14-.41-6.87,1.51-5.01,3.58,3.3,4.38,4.63,3.72,3.69-4.81,5.54ZM162.9,109.08l3.88,4.16-1.21,2.51-5.29.5h-.19s-1.01-2.68-1.01-2.68l3.82-4.48ZM164.64,107.77l3.88-3.91,4.73-4.29,3.48-3.36,1.46,4.92-.36,6.89-1.72,6.18-2.25,4.91-4.31-5.54-4.91-5.79ZM172.06,98.31l-4.73,4.28-4.14,4.17-3.95-3.93-4.38-4.63-4.49-4.13,12.14-.79,7.23.45,6.26.76-3.95,3.82ZM148.06,142.59l-7.15-.09-7.1.06-7.17-.93-7.23.29-6.4.21-.17-6.26-.06-6.99.66-6.99v-.05s-.21-7.06-.21-7.06l.22-7.07-.7-5.65.1.24,6.68-2.76,7.1-1.39,6.95-2.49,7.22-.62,7.23-.82.78-.05-2.04,6.75.43,7.38,1.91,6.39,3.47,7.96,5.19-7.6.92,2.43-1.89,5.63-.95,6.55-1.83,6.26-1.03,6.4-4.95.27ZM211.13,128.87l.27,7.02v6.01s-6.11.47-6.11.47l-7.11.15-7.12-.26-7.21-.53-7.2.57-4.25.14-.62-6.47-1.34-6.46-2.19-6.2-.8-7.5.61-1.27.1.12,6.05,7.79,3.47-7.57,1.83-6.56.39-7.37-1.83-6.18,6.13.75,7.38.14,6.91,2.08,6.96,2.27,5.92,1.54-.32,6.24.74,7.01-.77,6.99.08,7.11Z"/><path class="cls-1" d="M148.12,145.16h-.05l-7.17-.09-7.24.06h-.06s-7.07-.92-7.07-.92l-7.02.28-9,.3-.24-8.86-.06-7.15.66-7.01-.21-6.95.22-6.98-.88-7.12.99-7.11-.19-6.87-.59-7.08-.11-7.11.51-6.98-.55-7.05.66-7.16.36-6.96-.02-6.86-.93-7.15.98-7.08-.56-6.97-.05-7.06.48-8.25,8.45-.93,7.17.58,7.2-.66,7.14.95,7.09-.81,7.2.35,7.14-.46,7.24.22,7.12.04,7.14-.08,7.2.16,7.08.25L205.3,0l9.15.51-.76,8.8.24,6.93.12,7.04.48,7.01.14,7.21-.95,6.93,1,6.97-.49,7.2-.2,6.98-.36,7.01.12,6.97v7.06s.07,7.01.07,7.01l.14,7.08-.36,6.96.74,7.08-.78,7.11.07,6.93.27,7.02.02,8.44-8.58.65-7.25.15h-.04s-7.2-.26-7.2-.26l-7.06-.52-7.07.55-7.32.25-6.31-.73-3.28.08-4.53.32-7.24.39ZM140.9,143.4l7.18.09,7.17-.39,4.55-.32,3.44-.09,6.3.73,7.16-.24,7.16-.56h.06s7.09.52,7.09.52l7.16.26,7.16-.15,6.98-.53-.02-6.86-.27-7.01-.08-7.06.77-7.04-.74-7.03.36-7.03-.14-7.03-.07-7.03v-7.06s-.12-7.02-.12-7.02v-.03s.36-7.02.36-7.02l.2-7,.48-7.05-1.01-7.03.96-7.03-.14-7.04-.48-7.01-.12-7.07-.25-7.01.62-7.19-7.32-.41-7.16.6-7.17-.25-7.15-.16-7.14.08-7.15-.04-7.18-.22-7.16.46-7.16-.35-7.16.82-7.16-.95-7.16.66-7.16-.58-6.89.76-.4,6.79.05,6.98.57,7.06-.98,7.03.92,7.09.02,6.95-.37,7.04-.65,7.05.55,7.03-.51,7.03.11,7.01.59,7.04.2,7.05-.62,4.47.05.12.64-4.58-.2-7.04-.59-7.06-.11-7,.51-7.03-.55-7.03.65-7.03.37-7.03-.02-6.98-.92-7.09.98-7.03-.57-7.07-.05-6.97.39-6.73,6.83-.75,7.16.58,7.16-.66,7.16.95,7.16-.82,7.16.35,7.16-.46,7.18.22,7.15.04,7.13-.08,7.16.16,7.17.25,7.16-.6,7.24.4-.61,7.12.25,7.02.12,7.05.48,7.01.14,7.05-.96,7.03,1.01,7.03-.48,7.03-.2,7.01-.36,7.05.12,7.02v7.06s.07,7.03.07,7.03l.14,7.14-6.5-1.69-7.01-2.28-7.03-2.12-7.46-.14-14.46-1.77-7.32-.45-14.57.95-7.22.82-7.34.62-6.99,2.5-7.12,1.39-5.99,2.48.02.06,6.07-2.49,7.03-1.38,7.1-2.51,7.22-.62,7.64-.85h0l1.59-.1h0s12.55-.82,12.55-.82l7.28.45,14.48,1.77,7.45.14,7.02,2.12,6.98,2.27,6.53,1.69-.35,6.85.74,7.03-.77,7.03.08,7.05.27,7.01.02,6.81-6.9.53-7.15.15-7.16-.26-7.17-.52-7.14.56-5.07.17-.69-7.21-1.32-6.36-2.21-6.34-.82-7.74,1.28-2.64.93,1.1,5.23,6.73,2.86-6.26,1.79-6.41.38-7.14-1.92-6.49-4.54,4.39-4.73,4.28-4.69,4.73-4.54-4.51-4.38-4.63-4.68-4.31-1.97,6.54.42,7.14,1.86,6.25,2.85,6.53,5.15-7.54-.34.39-4.8,7.02-2.8-6.42-1.87-6.33-.41-7.02,1.94-6.43,4.61,4.24,4.38,4.63,4.25,4.22-4.85,5.59,1.58,4.19-1.96,5.84-.96,6.6-1.82,6.21-1.12,7.02-5.65.3h-.03s-7.15-.09-7.15-.09l-7.14.06h-.06s-7.1-.93-7.1-.93l-7.16.28-7.25.24-.19-7.1-.06-7.05.66-7.03-.21-7.01.22-7.06-.75-6.01-.06.03.74,5.99-.22,7.06.21,7.01-.66,7.03.06,7.05.19,7.17,7.31-.24,7.15-.28,7.16.93,7.14-.06ZM140.91,141.66l7.14.09,4.25-.23.94-5.84,1.82-6.2.97-6.64,1.79-5.35-.24-.65-5.14,7.52-4.11-9.44-1.94-6.58-.44-7.53,1.73-5.72-6.76.77-7.14.61-6.96,2.48-7.01,1.37-6.08,2.52.6,4.81-.23,7.14.22,7.06-.66,7.05.06,6.95.14,5.41,5.56-.18,7.29-.29,7.18.93,7.04-.06ZM183.86,140.88h.06s7.21.53,7.21.53l7.09.26,7.06-.15,5.3-.41v-5.23s-.28-7.01-.28-7.01l-.08-7.16.76-6.95-.73-6.98.29-5.62-5.26-1.37-7.01-2.28-6.78-2.04-7.35-.14-4.87-.59,1.51,5.1-.43,7.7-1.88,6.68-4.04,8.83-6.07-7.81.73,6.89,2.18,6.22,1.35,6.55.54,5.69,3.46-.12,7.23-.57ZM151.55,113.86l1.54,3.51,3.19-4.65,4.3-4.95-3.16-3.14-4.38-4.63-2.58-2.38-1.09,3.6.39,6.63,1.79,6ZM152.38,94.78l3.09,2.85,4.38,4.63,3.34,3.32,3.55-3.57,4.75-4.31,2.68-2.59-4.52-.55-7.13-.44-10.14.66ZM111.69,100.71l.03.25.04-.25-.03-.25-.04.25ZM113.61,79.53l.59,7.02.2,7.22-.75,5.42,5.23-2.15,7.14-1.4,7.01-2.52,7.53-.64,7.24-.82,14.71-.96,7.47.46,14.46,1.77,7.56.13,7.27,2.19,6.97,2.27,4.32,1.12-.1-4.95-.07-7.05v-7.05s-.12-7.06-.12-7.06v-.06s.36-7.04.36-7.04l.2-7.03.47-6.89-1.02-7.09.98-7.14-.13-6.88-.48-7.01-.12-7.08-.25-7.1.48-5.51-5.41-.3-7.14.6-7.26-.25-7.12-.15-7.12.08-7.19-.04-7.12-.21-7.17.46-7.11-.35-7.23.83-7.18-.96-7.11.65-7.14-.58-5.27.58-.31,5.27.05,6.89.58,7.16-.97,6.99.9,7.02.02,7.08v.04s-.37,7.07-.37,7.07l-.63,6.92.55,7.02-.51,7.09.11,6.9ZM159.53,142.72l-5.6-.5.98-6.1,1.82-6.21.99-6.67,2.03-6.05.62-.06,6.32-.24.7,6.6,2.2,6.24,1.32,6.35.59,6.23-5.86.25-2.39.06-.85-.1-2.86.19ZM155.87,140.71l3.72.33h.18s2.66-.19,2.66-.19l.89.1,2.26-.06,4.08-.17-.42-4.43-1.28-6.16-2.23-6.37-.55-5.15-4.21.16-1.65,4.92-.97,6.62-1.82,6.21-.67,4.17ZM174.04,120.71l-5.15-6.63-5.38-6.35,4.42-4.45,4.76-4.32,4.45-4.3,1.89,6.38-.4,7.21-1.76,6.31-2.82,6.16ZM165.77,107.81l4.41,5.21,3.49,4.48,1.64-3.59,1.67-6.03.35-6.65-1.03-3.46-2.49,2.4-4.75,4.31-3.31,3.33ZM159.52,117.1l-1.4-3.71,4.75-5.57,4.91,5.26-1.66,3.44-6,.55-.6.02ZM160.03,113.72l.62,1.64,4.37-.41.76-1.57-2.85-3.05-2.9,3.39Z"/><path class="cls-1" d="M257.92,67.7l-4.5-.64-3.7-2.65-2.71-3.46-1.83-3.87-1.62-3.93-.72-4.31-.13-4.22.61-4.16.49-4.15,1.3-4.09,1.69-4.06,3.38-2.83,3.25-2.8,4.49-1.25,4.4,1.38,3.4,2.74,2.84,3.08,2.49,3.55,1.2,4.29.56,4.12.5,4.27-.77,4.2-.58,4.15-1.51,4.05-1.96,3.67-2.36,3.67-3.84,2.4-4.35.88ZM254.08,65.39l3.79.54,3.74-.75,3.24-2.02,2.13-3.31,1.88-3.52,1.38-3.71.56-4.02.73-3.96-.46-4-.54-4.04-1.08-3.82-2.29-3.26-2.68-2.9-3-2.4-3.6-1.13-3.62,1.01-2.97,2.55-3.06,2.56-1.51,3.64-1.21,3.82-.47,4.01-.59,4.03.12,4.01.67,3.95,1.54,3.73,1.72,3.64,2.43,3.11,3.15,2.25Z"/><path class="cls-1" d="M257.94,68.54l-4.85-.69-3.97-2.84-2.88-3.71-1.83-3.87-1.69-4.15-.73-4.43-.13-4.3.62-4.24.52-4.28,1.32-4.16,1.77-4.25,3.54-2.96,3.38-2.91,4.9-1.37,4.79,1.5,3.61,2.92,2.91,3.17,2.57,3.66,1.26,4.54.56,4.12.51,4.41-.79,4.33-.62,4.29-1.56,4.15-2,3.72-2.46,3.82-4.13,2.57-4.64.93ZM253.73,66.26l4.16.59,4.06-.82,3.56-2.22,2.24-3.48,1.92-3.59,1.46-3.91.57-4.06.75-4.11-.48-4.15-.55-4.04-1.15-4.09-2.38-3.38-2.76-3-3.23-2.6-4.01-1.26-4.07,1.14-3.11,2.67-3.23,2.7-1.6,3.84-1.26,3.98-.48,4.07-.6,4.11.13,4.09.7,4.17,1.58,3.84,1.77,3.75,2.58,3.29,3.44,2.46ZM257.89,66.78l-4.13-.59-3.42-2.44-2.6-3.36-1.72-3.64-1.61-3.95-.68-4.06-.13-4.08.6-4.11.5-4.14,1.24-3.89,1.59-3.82,3.22-2.69,3.1-2.66,4.03-1.13,3.98,1.25,3.21,2.59,2.75,2.99,2.37,3.37,1.14,4.08.54,4.04.48,4.14-.75,4.09-.6,4.16-1.42,3.81-1.92,3.58-2.23,3.47-3.53,2.2-4.03.81ZM254.4,64.59l3.44.49,3.45-.7,2.96-1.84,2.01-3.12,1.84-3.44,1.32-3.57.55-3.93.71-3.88-.45-3.87-.53-3.96-1.03-3.63-2.17-3.09-2.6-2.81-2.83-2.27-3.21-1.01-3.2.89-2.83,2.43-2.91,2.44-1.42,3.41-1.18,3.71-.47,3.93-.58,3.98.12,3.88.64,3.8,1.5,3.64,1.66,3.51,2.3,2.94,2.89,2.07Z"/><path class="cls-1" d="M286.62,67.39l-4.11-.99-3.81-2.12-2.73-3.45-2.23-3.68-1.54-4.04-.86-4.23.45-4.29.18-4.13.47-4.25,1.75-3.97,1.97-3.69,2.43-3.53,3.7-2.49,4.39-1.08,4.39,1.02,3.88,2.31,2.69,3.6,2.05,3.74,1.2,4.25.4,4.08.75,4.15-.24,4.41-.97,4.11-1.3,4.07-1.87,3.84-2.78,3.43-3.77,2.61-4.52.33ZM283.15,64.76l3.61.87,3.77-.28,3.17-2.2,2.5-3.08,1.75-3.6,1.22-3.86.93-3.94.2-3.98-.73-4.06-.39-4.04-1.09-3.83-1.93-3.52-2.38-3.17-3.35-1.99-3.73-.86-3.68.9-3.17,2.14-2.22,3.22-1.88,3.53-1.6,3.63-.43,3.95-.18,4.13-.43,4.05.79,3.9,1.44,3.76,2.09,3.42,2.42,3.05,3.3,1.84Z"/><path class="cls-1" d="M286.55,68.24l-4.34-1.05-4.06-2.25-2.89-3.67-2.3-3.82-1.58-4.17-.88-4.36.47-4.41.18-4.08.49-4.43,1.83-4.14,2.02-3.77,2.52-3.66,3.95-2.67,4.73-1.16,4.72,1.09,4.13,2.46,2.86,3.83,2.12,3.92,1.23,4.4.39,4.05.76,4.22-.26,4.66-.99,4.17-1.34,4.18-1.97,4-2.86,3.52-4.05,2.81-4.87.36ZM282.82,65.62l3.87.94,4.16-.3,3.48-2.41,2.65-3.26,1.8-3.69,1.27-3.98.94-4.01.23-4.24-.75-4.13-.39-4.01-1.15-4.09-1.98-3.61-2.56-3.42-3.63-2.15-4.07-.94-4.05.99-3.45,2.32-2.32,3.36-1.93,3.62-1.69,3.82-.45,4.12-.18,4.08-.44,4.21.82,4.04,1.49,3.9,2.17,3.57,2.59,3.28,3.57,1.98ZM286.7,66.48l-3.85-.93-3.55-1.97-2.58-3.26-2.16-3.56-1.48-3.89-.82-4.03.44-4.17.18-4.08.45-4.14,1.68-3.81,1.93-3.61,2.31-3.35,3.42-2.31,4.02-.99,4.05.94,3.61,2.14,2.55,3.4,2,3.69,1.12,3.98.39,4,.74,4.12-.23,4.22-.94,4-1.27,3.97-1.86,3.76-2.58,3.17-3.46,2.39-4.13.3ZM283.46,63.98l3.38.82,3.41-.25,2.89-2,2.37-2.91,1.68-3.46,1.19-3.77.9-3.83.19-3.81-.73-4.04-.38-3.96-1.05-3.67-1.86-3.38-2.25-2.99-3.1-1.84-3.41-.79-3.35.82-2.92,1.97-2.1,3.05-1.84,3.46-1.54,3.49-.42,3.83-.18,4.07-.42,3.97.75,3.71,1.39,3.62,2.03,3.32,2.28,2.88,3.06,1.7Z"/><path class="cls-1" d="M265.98,37.07l-4.18-.56-4.05.03-4.19.5-4.23-.2-4.17-.23c-.48-.03-.85-.44-.82-.92.03-.48.44-.85.92-.82l4.16.23,4.08.2,4.19-.49,4.22-.03,4.15.55,4.08-.2c.47-.03.89.35.91.83.02.48-.35.89-.83.91l-4.24.21Z"/><path class="cls-1" d="M265.94,37.91l-4.2-.56-3.95.03-4.21.5-8.48-.44c-.45-.03-.87-.23-1.18-.57-.3-.34-.46-.78-.43-1.23.03-.46.23-.87.57-1.18.34-.3.77-.46,1.23-.43l4.16.23,4.01.19,4.21-.49,4.28-.04,4.13.55,4.01-.2c.45-.02.88.13,1.22.43.34.31.54.73.56,1.18.05.94-.68,1.74-1.62,1.79l-4.32.22ZM261.85,35.68l4.17.56,4.17-.21.02-.06-4.18.2-4.16-.56-4.12.03-4.21.49-8.32-.43v.07s4.17.23,4.17.23l4.16.2,4.21-.49,4.11-.03Z"/><path class="cls-1" d="M278.22,37.01l-4.32-.02c-.48,0-.87-.39-.87-.87,0-.48.39-.87.87-.87h4.28s4.25-.19,4.25-.19l4.35-.42,4.34.29h4.27s4.3.02,4.3.02c.48,0,.87.39.86.87,0,.48-.39.87-.87.87h0l-4.3-.02h-4.32s-4.25-.28-4.25-.28l-4.27.41-4.32.21Z"/><path class="cls-1" d="M278.24,37.85l-4.34-.02c-.94,0-1.7-.77-1.7-1.71,0-.94.77-1.7,1.7-1.7h4.28s4.21-.19,4.21-.19l4.37-.42,4.38.3h4.24s4.31.02,4.31.02c.45,0,.88.18,1.2.51.32.32.5.75.49,1.21,0,.93-.77,1.7-1.7,1.7l-4.31-.02h-4.34s-4.21-.28-4.21-.28l-4.2.41-4.38.21ZM273.9,36.09v.07s4.3.02,4.3.02l4.3-.21,4.29-.42,4.29.29h4.29s4.3.02,4.3.02v-.07l-4.3-.02h-4.29s-4.3-.29-4.3-.29l-4.28.41-4.29.21h-4.32Z"/><path class="cls-1" d="M291.73,37.03c1.02.9,2.04,1.72,3.05,2.62-.33.98-.65,1.96-.98,2.94-.87.68-1.74,2.22-2.61,2.9l-1.21-.97c.48-.7.97-2.26,1.45-2.96-.74-.66-1.48-1.32-2.21-1.98.84-.88,1.68-1.68,2.51-2.56Z"/><path class="cls-1" d="M296.19,37.03c1.02.9,2.04,1.72,3.05,2.62-.33.98-.65,1.96-.98,2.94-.87.68-1.74,2.22-2.61,2.9l-1.21-.97c.48-.7.97-2.26,1.45-2.96-.74-.66-1.48-1.32-2.21-1.98.84-.88,1.68-1.68,2.51-2.56Z"/><path class="cls-1" d="M263.01,37.03c1.02.9,2.04,1.72,3.05,2.62-.33.98-.65,1.96-.98,2.94-.87.68-1.74,2.22-2.61,2.9l-1.21-.97c.48-.7.97-2.26,1.45-2.96-.74-.66-1.48-1.32-2.21-1.98.84-.88,1.68-1.68,2.51-2.56Z"/><path class="cls-1" d="M267.47,37.03c1.02.9,2.04,1.72,3.05,2.62-.33.98-.65,1.96-.98,2.94-.87.68-1.74,2.22-2.61,2.9l-1.21-.97c.48-.7.97-2.26,1.45-2.96-.74-.66-1.48-1.32-2.21-1.98.84-.88,1.68-1.68,2.51-2.56Z"/><path class="cls-1" d="M257.05,23.09c-1.31-.35-2.59-.64-3.9-1-.14-1.02-.28-2.05-.42-3.07.48-.99.58-2.76,1.06-3.75l1.51.33c-.12.84.14,2.45.01,3.29.95.26,1.91.53,2.86.79-.36,1.16-.76,2.25-1.12,3.41Z"/><path class="cls-1" d="M253.05,25.06c-1.31-.35-2.59-.64-3.9-1-.14-1.02-.28-2.05-.42-3.07.48-.99.58-2.76,1.06-3.75l1.51.33c-.12.84.14,2.45.01,3.29.95.26,1.91.53,2.86.79-.36,1.16-.76,2.25-1.12,3.41Z"/><path class="cls-1" d="M292.19,25.29c-.59-1.22-1.21-2.37-1.8-3.6.68-.78,1.36-1.55,2.04-2.33,1.06-.29,2.46-1.37,3.53-1.66l.74,1.36c-.71.45-1.77,1.71-2.48,2.16.43.89.85,1.79,1.28,2.68-1.11.49-2.2.9-3.31,1.39Z"/><path class="cls-1" d="M288.08,23.56c-.59-1.22-1.21-2.37-1.8-3.6.68-.78,1.36-1.55,2.04-2.33,1.06-.29,2.46-1.37,3.53-1.66l.74,1.36c-.71.45-1.77,1.71-2.48,2.16.43.89.85,1.79,1.28,2.68-1.11.49-2.2.9-3.31,1.39Z"/><polygon class="cls-1" points="269.12 77.1 268.49 74.06 275.8 72.53 281 72.74 277.77 67.57 274.64 60.26 269.96 53.75 272.48 51.94 277.36 58.73 280.57 66.23 286.77 76.08 276.06 75.65 269.12 77.1"/><path class="cls-2" d="M322.83,107.71l.36-6.97v-.03s-.14-7.06-.14-7.06l-.07-7.02v-7.05s-.12-7-.12-7l.36-7.02.2-7.02.48-7.11-1-7,.96-6.98-.14-7.1-.49-7.05-.12-7.03-.25-6.98.69-7.99-8.23-.46-7.17.6-7.12-.25-7.16-.16h-.01s-7.16.08-7.16.08l-7.14-.04-7.2-.22-7.15.46-7.18-.35-7.12.81-7.15-.95-7.18.66-7.16-.58-7.67.85-.44,7.49.05,7.06.57,7-.98,7.05.92,7.09.02,6.95-.37,6.99-.65,7.09.55,7.04-.51,7.01.11,7.07.59,7.07.19,6.94-.98,7.07.88,7.08-.22,6.99.21,7.01-.66,6.98v.04s.05,7.09.05,7.09l.21,8.02,8.15-.27,7.09-.28,7.14.92,7.2-.06,7.16.09h.03s7.2-.39,7.2-.39l4.57-.32,3.34-.08,6.31.73,7.22-.24,7.13-.56,7.09.52,7.19.26h.02s7.18-.15,7.18-.15l7.8-.59-.02-7.63-.27-7.04-.07-6.98.78-7.07-.74-7.06ZM223.64,37.41l-.91-7.03.97-7.01-.58-7.1-.05-6.97.35-5.97,6.05-.67,7.15.58,7.13-.66,7.17.95,7.19-.82,7.13.35,7.16-.46,7.14.22,7.17.04,7.14-.08,7.13.16,7.21.25,7.15-.6,6.33.35-.55,6.32.25,7.07.12,7.03.49,7.06.13,6.94-.97,7.09,1.01,7.06-.47,6.94-.2,7.05-.36,7.03v.03s.12,7.05.12,7.05v7.04s.07,7.04.07,7.04l.12,6.05-5.43-1.41-6.96-2.27-7.16-2.16-7.48-.13-14.46-1.77-7.42-.46-14.62.95-7.26.82-7.43.63-6.97,2.51-7.2,1.41-6.41,2.65.94-6.79-.2-7.1-.59-7.05-.11-6.97.51-7.06-.55-7.02.64-6.96.37-7.07v-.02s-.02-7.06-.02-7.06ZM275.62,141.74l-2.33.06-.87-.1-2.63.19h-.23s-4.66-.41-4.66-.41l.81-5.11,1.83-6.26.96-6.58,1.86-5.54h.03s5.54-.21,5.54-.21l.63,5.92,2.2,6.23,1.3,6.26.51,5.36-4.97.21ZM266.92,113.27l-3.98,5.82-2.16-4.94-1.83-6.14-.41-6.87,1.51-5.01,3.58,3.3,4.38,4.63,3.72,3.69-4.81,5.54ZM272.91,109.08l3.88,4.16-1.21,2.51-5.29.5h-.19s-1.01-2.68-1.01-2.68l3.82-4.48ZM274.65,107.77l3.88-3.91,4.73-4.29,3.48-3.36,1.46,4.92-.36,6.89-1.72,6.18-2.25,4.91-4.31-5.54-4.91-5.79ZM282.07,98.31l-4.73,4.28-4.14,4.17-3.95-3.93-4.38-4.63-4.49-4.13,12.14-.79,7.23.45,6.26.76-3.95,3.82ZM258.07,142.59l-7.15-.09-7.1.06-7.17-.93-7.23.29-6.4.21-.17-6.26-.06-6.99.66-6.99v-.05s-.21-7.06-.21-7.06l.22-7.07-.7-5.65.1.24,6.68-2.76,7.1-1.39,6.95-2.49,7.22-.62,7.23-.82.78-.05-2.04,6.75.43,7.38,1.91,6.39,3.47,7.96,5.19-7.6.92,2.43-1.89,5.63-.95,6.55-1.83,6.26-1.03,6.4-4.95.27ZM321.14,128.87l.27,7.02v6.01s-6.11.47-6.11.47l-7.11.15-7.12-.26-7.21-.53-7.2.57-4.25.14-.62-6.47-1.34-6.46-2.19-6.2-.8-7.5.61-1.27.1.12,6.05,7.79,3.47-7.57,1.83-6.56.39-7.37-1.83-6.18,6.13.75,7.38.14,6.91,2.08,6.96,2.27,5.92,1.54-.32,6.24.74,7.01-.77,6.99.08,7.11Z"/><path class="cls-1" d="M258.13,145.16h-.05l-7.17-.09-7.24.06h-.06s-7.07-.92-7.07-.92l-7.02.28-9,.3-.24-8.86-.06-7.15v-.04s.66-6.98.66-6.98l-.21-6.95.22-6.98-.88-7.12.99-7.11-.19-6.87-.59-7.08-.11-7.11.51-6.98-.55-7.05.66-7.16.36-6.96-.02-6.86-.93-7.15.98-7.08-.56-6.97-.05-7.06.48-8.25,8.45-.93,7.17.58,7.2-.66,7.14.95,7.09-.81,7.2.35,7.14-.46,7.24.22,7.12.04,7.14-.08,7.2.16,7.08.25,7.18-.61,9.15.51-.76,8.8.24,6.93.12,7.04.48,7.01.14,7.21-.95,6.93,1,6.97-.49,7.2-.2,6.98-.36,7.01.12,6.97v7.06s.07,7.01.07,7.01l.14,7.08-.36,6.96.74,7.08-.78,7.11.07,6.93.27,7.02.02,8.44-8.57.65-7.25.15h-.04s-7.2-.26-7.2-.26l-7.06-.52-7.07.55-7.32.25-6.31-.73-3.28.08-4.53.32-7.24.39ZM250.91,143.4l7.18.09,7.17-.39,4.55-.32,3.44-.09,6.3.73,7.16-.24,7.16-.56h.06s7.09.52,7.09.52l7.16.26,7.16-.15,6.98-.53-.02-6.86-.27-7.01-.08-7.06.77-7.04-.74-7.03.36-7.03-.14-7.03-.07-7.03v-7.06s-.12-7.02-.12-7.02v-.03s.36-7.02.36-7.02l.2-7,.48-7.05-1.01-7.03.96-7.03-.14-7.04-.48-7.01-.12-7.07-.25-7.01.62-7.19-7.32-.41-7.16.6-7.17-.25-7.15-.16-7.14.08-7.15-.04-7.18-.22-7.16.46-7.16-.35-7.16.82-7.16-.95-7.16.66-7.16-.58-6.89.76-.4,6.79.05,6.98.57,7.06-.98,7.03.92,7.09.02,6.95-.37,7.04-.65,7.05.55,7.03-.51,7.03.11,7.01.59,7.04.2,7.05-.62,4.47.05.12.64-4.58-.2-7.04-.59-7.06-.11-7,.51-7.03-.55-7.03.64-7.03.37-7.03-.02-6.98-.92-7.09.98-7.03-.57-7.07-.05-6.97.39-6.73,6.83-.75,7.16.58,7.16-.66,7.16.95,7.16-.82,7.15.35,7.16-.46,7.18.22,7.15.04,7.13-.08,7.16.16,7.17.25,7.16-.6,7.24.4-.61,7.12.25,7.02.12,7.05.48,7.01.14,7.05-.96,7.03,1.01,7.03-.48,7.03-.2,7.01-.36,7.05.12,7.02v7.06s.07,7.03.07,7.03l.14,7.14-6.5-1.69-7-2.28-7.03-2.12-7.46-.14-14.46-1.77-7.32-.45-14.57.95-7.22.82-7.34.62-6.99,2.5-7.12,1.39-5.99,2.48.02.06,6.07-2.49,7.03-1.38,7.1-2.51,7.22-.62,7.64-.85h0l14.14-.92,7.28.45,7.13.87h0s7.35.9,7.35.9l7.45.14,7.02,2.12,6.98,2.27,6.53,1.69-.35,6.85.74,7.03-.77,7.03.08,7.05.27,7.01.02,6.81-6.9.53-7.15.15-7.16-.26-7.17-.52-7.14.56-5.07.17-.69-7.21-1.32-6.36-2.21-6.34-.82-7.74,1.27-2.64.93,1.1,5.23,6.73,2.86-6.26,1.79-6.41.38-7.14-1.92-6.49-4.54,4.39-4.73,4.28-4.69,4.73-4.54-4.51-4.38-4.63-4.68-4.31-1.97,6.54.42,7.14,1.86,6.25,2.85,6.53,5.16-7.54-.34.39-4.8,7.02-2.8-6.42-1.87-6.33-.41-7.02,1.94-6.43,4.61,4.24,4.38,4.63,4.25,4.22-4.85,5.58,1.58,4.19-1.96,5.84-.96,6.6-1.82,6.21-1.12,7.02-5.65.3h-.03s-7.15-.09-7.15-.09l-7.14.06h-.06s-7.1-.93-7.1-.93l-7.16.28-7.25.24-.19-7.1-.06-7.05v-.04s.66-6.99.66-6.99l-.21-7.01.22-7.06-.75-6.01-.06.03.74,5.99-.22,7.06.21,7.01-.66,7.03.06,7.05.19,7.17,7.31-.24,7.15-.28,7.16.93,7.14-.06ZM250.91,141.66l7.14.09,4.25-.23.94-5.84,1.82-6.2.97-6.64,1.79-5.35-.24-.65-5.14,7.52-4.11-9.44-1.94-6.58-.44-7.53,1.73-5.72-6.76.77-7.14.61-6.96,2.48-7.01,1.37-6.08,2.52.6,4.81-.23,7.14.21,7.06v.11s-.66,6.95-.66,6.95l.06,6.95.14,5.41,5.56-.18,7.29-.29,7.18.93,7.04-.06ZM293.86,140.88h.06s7.21.53,7.21.53l7.09.26,7.06-.15,5.3-.41v-5.23s-.28-7.01-.28-7.01l-.08-7.16.76-6.95-.73-6.98.29-5.62-5.26-1.37-7.01-2.28-6.78-2.04-7.35-.14-4.87-.59,1.51,5.1-.43,7.7-1.88,6.68-4.04,8.83-6.07-7.81.73,6.89,2.18,6.22,1.35,6.55.54,5.69,3.47-.12,7.23-.57ZM261.56,113.86l1.54,3.51,3.19-4.65,4.3-4.95-3.16-3.14-4.38-4.63-2.58-2.38-1.09,3.6.39,6.63,1.79,6ZM262.39,94.78l3.09,2.85,4.38,4.63,3.34,3.32,3.55-3.57,4.75-4.31,2.68-2.59-4.52-.55-7.13-.44-10.14.66ZM221.7,100.71l.03.25.03-.25-.03-.25-.03.25ZM223.62,79.53l.59,7.02.2,7.22-.75,5.42,5.23-2.15,7.14-1.4,7.01-2.52,7.53-.64,7.24-.82,14.71-.96,7.47.46,14.46,1.77,7.56.13,7.27,2.19,6.97,2.27,4.32,1.12-.1-4.95-.07-7.05v-7.05s-.12-7.06-.12-7.06l.36-7.09.2-7.03.47-6.89-1.02-7.09.98-7.14-.13-6.88-.48-7.01-.12-7.08-.25-7.1.48-5.51-5.41-.3-7.14.6-7.26-.25-7.12-.15-7.12.08-7.19-.04-7.12-.21-7.17.46-7.11-.35-7.23.83-7.18-.96-7.11.65-7.14-.58-5.27.58-.31,5.27.05,6.89.58,7.16-.97,6.99.9,7.02.02,7.08v.04s-.37,7.07-.37,7.07l-.63,6.92.55,7.02-.51,7.09.11,6.9ZM269.54,142.72l-5.6-.5.98-6.1,1.82-6.21.99-6.67,2.03-6.05.62-.06,6.32-.24.7,6.6,2.2,6.24,1.32,6.35.59,6.23-5.86.25-2.39.06-.85-.1-2.86.19ZM265.87,140.71l3.72.33h.18s2.66-.19,2.66-.19l.89.1,2.26-.06,4.08-.17-.42-4.43-1.28-6.16-2.23-6.37-.55-5.15-4.21.16-1.65,4.93-.97,6.62-1.82,6.21-.67,4.17ZM284.05,120.71l-5.15-6.63-5.38-6.35,4.42-4.45,4.76-4.32,4.45-4.3,1.89,6.38-.4,7.21-1.76,6.31-2.82,6.16ZM275.78,107.81l4.41,5.21,3.49,4.48,1.65-3.59,1.67-6.03.35-6.65-1.03-3.46-2.49,2.4-4.75,4.31-3.31,3.33ZM269.53,117.1l-1.4-3.71,4.75-5.57,4.91,5.26-1.66,3.44-6,.55-.6.02ZM270.04,113.72l.62,1.64,4.37-.41.76-1.57-2.85-3.05-2.9,3.39Z"/><path class="cls-2" d="M102.82,107.71l.36-6.97v-.03s-.14-7.06-.14-7.06l-.07-7.02v-7.05s-.12-7-.12-7l.36-7.02.2-7.02.48-7.11-1-7,.96-6.98-.14-7.1-.49-7.05-.12-7.03-.25-6.98.69-7.99-8.23-.46-7.17.6-7.12-.25-7.16-.16h-.01s-7.16.08-7.16.08l-7.14-.04-7.2-.22-7.15.46-7.18-.35-7.12.81-7.15-.95-7.18.66-7.16-.58L1.76,1.77l-.44,7.49.05,7.06.57,7-.98,7.05.92,7.09.02,6.95-.37,6.99-.65,7.09.55,7.04-.51,7.01.11,7.07.59,7.07.19,6.94-.98,7.07.88,7.08-.22,6.99.21,7.01-.66,6.98v.04s.05,7.09.05,7.09l.21,8.02,8.15-.27,7.09-.28,7.14.92,7.2-.06,7.16.09h.03s7.2-.39,7.2-.39l4.57-.32,3.34-.08,6.31.73,7.22-.24,7.13-.56,7.09.52,7.19.26h.02s7.18-.15,7.18-.15l7.8-.59-.02-7.63-.27-7.04-.07-6.98.78-7.07-.74-7.06ZM3.62,37.41l-.91-7.03.97-7.01-.58-7.1-.05-6.97.35-5.97,6.05-.67,7.15.58,7.13-.66,7.17.95,7.19-.82,7.13.35,7.16-.46,7.14.22,7.17.04,7.14-.08,7.13.16,7.21.25,7.15-.6,6.33.35-.55,6.32.25,7.07.12,7.03.49,7.06.13,6.94-.97,7.09,1.01,7.06-.47,6.94-.2,7.05-.36,7.03v.03s.12,7.05.12,7.05v7.04s.07,7.04.07,7.04l.12,6.05-5.43-1.41-6.96-2.27-7.16-2.16-7.48-.13-14.46-1.77-7.42-.46-14.62.95-7.26.82-7.43.63-6.97,2.51-7.2,1.41-6.41,2.65.94-6.79-.2-7.1-.59-7.05-.11-6.97.51-7.06-.55-7.02.64-6.96.37-7.07v-.02s-.02-7.06-.02-7.06ZM55.6,141.74l-2.33.06-.87-.1-2.63.19h-.23s-4.66-.41-4.66-.41l.81-5.11,1.83-6.26.96-6.58,1.86-5.54h.03s5.54-.21,5.54-.21l.63,5.92,2.2,6.23,1.3,6.26.51,5.36-4.97.21ZM46.9,113.27l-3.98,5.82-2.16-4.94-1.83-6.14-.41-6.87,1.51-5.01,3.58,3.3,4.38,4.63,3.72,3.69-4.81,5.54ZM52.89,109.08l3.88,4.16-1.21,2.51-5.29.5h-.19s-1.01-2.68-1.01-2.68l3.82-4.48ZM54.63,107.77l3.88-3.91,4.73-4.29,3.48-3.36,1.46,4.92-.36,6.89-1.72,6.18-2.25,4.91-4.31-5.54-4.91-5.79ZM62.05,98.31l-4.73,4.28-4.14,4.17-3.95-3.93-4.38-4.63-4.49-4.13,12.14-.79,7.23.45,6.26.76-3.95,3.82ZM38.06,142.59l-7.15-.09-7.1.06-7.17-.93-7.23.29-6.4.21-.17-6.26-.06-6.99.66-6.99v-.05s-.21-7.06-.21-7.06l.22-7.07-.7-5.65.1.24,6.68-2.76,7.1-1.39,6.95-2.49,7.22-.62,7.23-.82.78-.05-2.04,6.75.43,7.38,1.91,6.39,3.47,7.96,5.19-7.6.92,2.43-1.89,5.63-.95,6.55-1.83,6.26-1.03,6.4-4.95.27ZM101.12,128.87l.27,7.02v6.01s-6.11.47-6.11.47l-7.11.15-7.12-.26-7.21-.53-7.2.57-4.25.14-.62-6.47-1.34-6.46-2.19-6.2-.8-7.5.61-1.27.1.12,6.05,7.79,3.47-7.57,1.83-6.56.39-7.37-1.83-6.18,6.13.75,7.38.14,6.91,2.08,6.96,2.27,5.92,1.54-.32,6.24.74,7.01-.77,6.99.08,7.11Z"/><path class="cls-1" d="M38.11,145.16h-.03s-7.18-.09-7.18-.09l-7.24.06h-.06s-7.07-.92-7.07-.92l-7.02.28-9,.3-.24-8.86-.06-7.15.66-7.02-.21-6.95.22-6.98-.88-7.12.99-7.11-.19-6.87-.59-7.08-.11-7.11.51-6.98L.05,58.5l.66-7.16.36-6.96-.02-6.86L.12,30.37l.98-7.07-.56-6.97-.05-7.06L.97,1.01,9.41.08l7.17.58L23.79,0h.09s7.04.95,7.04.95l7.09-.81,7.2.35,7.14-.46,7.24.22,7.12.04,7.14-.08,7.2.16,7.08.25L95.3,0l9.15.51-.76,8.8.24,6.93.12,7.04.48,7.01.14,7.21-.95,6.93,1,6.97-.49,7.19-.2,6.98-.36,7.01.12,6.97v7.06s.07,7.01.07,7.01l.14,7.08-.36,6.96.74,7.08-.78,7.11.07,6.93.27,7.02.02,8.44-8.58.65-7.25.15h-.05s-7.18-.27-7.18-.27l-7.06-.52-7.07.55-7.32.25-6.31-.73-3.28.08-4.53.32-7.25.39ZM30.9,143.4l7.18.09,7.17-.39,4.55-.32,3.44-.09,6.3.73,7.16-.24,7.16-.56h.06s7.09.52,7.09.52l7.16.26,7.16-.15,6.98-.53-.02-6.86-.27-7.01-.08-7.05.77-7.04-.74-7.03.36-7.03-.14-7.03-.07-7.03v-7.06s-.12-7.02-.12-7.02v-.03s.36-7.02.36-7.02l.2-7,.48-7.05-1.01-7.03.96-7.03-.14-7.04-.48-7.01-.12-7.07-.25-7.02.62-7.19-7.32-.41-7.16.6-7.17-.25-7.15-.16-7.14.08-7.15-.04-7.18-.22-7.16.46-7.16-.35-7.16.82-7.16-.95-7.16.66-7.16-.58-6.89.76-.4,6.79.05,6.98.57,7.06-.98,7.03.92,7.09.02,6.95-.37,7.04-.65,7.05.55,7.03-.51,7.03.11,7.01.59,7.04.2,7.05-.62,4.47.05.12.64-4.58-.2-7.04-.59-7.06-.11-7,.51-7.03-.55-7.03.65-7.03.37-7.03-.02-6.98-.92-7.09.98-7.03-.57-7.07-.05-6.97.39-6.73,6.83-.76,7.16.58,7.16-.66h.09s7.06.95,7.06.95l7.16-.82,7.15.35,7.16-.46,7.18.22,7.15.04,7.13-.08,7.16.16,7.17.25,7.16-.6,7.24.4-.61,7.12.25,7.02.12,7.05.48,7.01.14,7.05-.96,7.03,1.01,7.03-.48,7.03-.2,7.02-.36,7.05.12,7.02v7.06s.07,7.03.07,7.03l.14,7.14-6.5-1.69-7.01-2.28-7.03-2.12-7.46-.14-14.46-1.77-7.32-.45-14.57.95-7.22.82-7.34.62-6.99,2.5-7.12,1.39-5.99,2.48.02.06,6.07-2.49,7.03-1.38,7.1-2.51,7.22-.62,7.64-.85h0s14.14-.92,14.14-.92l7.28.45,8.04.98h0s6.44.79,6.44.79l7.45.14,7.02,2.12,6.98,2.27,6.53,1.69-.35,6.85.74,7.03-.77,7.03.08,7.05.27,7.01.02,6.81-6.9.53-7.15.15-7.16-.26-7.17-.52-7.14.56-5.07.17-.69-7.21-1.32-6.36-2.21-6.34-.82-7.74,1.28-2.64.93,1.1,5.23,6.73,2.86-6.26,1.79-6.41.38-7.14-1.92-6.49-4.54,4.39-4.73,4.28-4.69,4.73-4.54-4.51-4.38-4.63-4.68-4.31-1.97,6.54.42,7.14,1.86,6.25,2.85,6.53,5.16-7.55-.34.39-4.8,7.02-2.8-6.42-1.87-6.33-.41-7.02,1.94-6.43,4.61,4.24,4.38,4.63,4.25,4.22-4.85,5.59,1.58,4.19-1.96,5.84-.96,6.6-1.82,6.21-1.12,7.02-5.65.3h-.03s-7.15-.09-7.15-.09l-7.14.06h-.06s-7.1-.93-7.1-.93l-7.16.28-7.25.24-.19-7.1-.06-7.05.66-7.03-.21-7.01.22-7.06-.75-6.01-.06.03.74,5.99-.22,7.06.21,7.01-.66,7.03.06,7.05.19,7.17,7.31-.24,7.15-.28,7.16.93,7.14-.06ZM30.9,141.66l7.14.09,4.25-.23.94-5.84,1.82-6.2.97-6.64,1.79-5.35-.24-.65-5.14,7.52-4.11-9.44-1.94-6.58-.44-7.53,1.73-5.72-6.76.77-7.14.61-6.96,2.48-7.01,1.37-6.08,2.52.6,4.81-.23,7.14.22,7.06-.66,7.05.06,6.94.14,5.41,5.56-.18,7.29-.29,7.18.93,7.04-.06ZM73.85,140.88h.06s7.21.53,7.21.53l7.09.26,7.06-.15,5.3-.41v-5.23s-.28-7.01-.28-7.01l-.08-7.16.76-6.95-.73-6.98.29-5.62-5.26-1.37-7.01-2.28-6.78-2.04-7.35-.14-4.87-.59,1.51,5.1-.43,7.7-1.88,6.68-4.04,8.82-6.07-7.81.73,6.89,2.18,6.22,1.35,6.55.54,5.69,3.46-.12,7.23-.57ZM41.55,113.86l1.54,3.51,3.19-4.65,4.3-4.95-3.16-3.14-4.38-4.63-2.58-2.38-1.09,3.6.39,6.63,1.79,6ZM42.37,94.78l3.09,2.85,4.38,4.63,3.34,3.32,3.55-3.57,4.75-4.31,2.68-2.59-4.52-.55-7.13-.44-10.14.66ZM1.68,100.71l.03.25.04-.25-.03-.25-.04.25ZM3.61,79.53l.59,7.02.2,7.22-.75,5.42,5.23-2.15,7.14-1.4,7.01-2.52,7.53-.64,7.24-.82,14.71-.96,7.47.46,14.46,1.77,7.56.13,7.27,2.19,6.97,2.27,4.32,1.12-.1-4.95-.07-7.05v-7.05s-.12-7.06-.12-7.06v-.06s.36-7.04.36-7.04l.2-7.03.47-6.89-1.02-7.09.98-7.14-.13-6.88-.48-7.01-.12-7.08-.25-7.1.48-5.51-5.41-.3-7.14.6-7.26-.25-7.12-.15-7.12.08-7.19-.04-7.12-.22-7.17.46-7.11-.35-7.23.83-7.18-.96-7.11.65-7.14-.58-5.27.58-.31,5.27.05,6.89.58,7.16-.97,6.99.9,7.02.02,7.08v.04s-.37,7.07-.37,7.07l-.63,6.92.55,7.02-.51,7.09.11,6.9ZM49.53,142.72l-5.6-.5.98-6.1,1.82-6.21.99-6.67,2.03-6.05.62-.06,6.32-.24.7,6.6,2.2,6.24,1.32,6.35.59,6.23-5.86.25-2.39.06-.85-.1-2.86.19ZM45.86,140.71l3.72.33h.18s2.66-.19,2.66-.19l.89.1,2.26-.06,4.08-.17-.42-4.43-1.28-6.16-2.23-6.37-.55-5.15-4.21.16-1.65,4.93-.97,6.62-1.82,6.21-.67,4.17ZM64.03,120.71l-5.15-6.63-5.38-6.35,4.42-4.45,4.76-4.32,4.45-4.3,1.89,6.37-.4,7.21-1.76,6.31-2.82,6.16ZM55.76,107.81l4.41,5.21,3.49,4.48,1.64-3.59,1.67-6.03.35-6.65-1.03-3.46-2.49,2.4-4.75,4.31-3.31,3.33ZM49.51,117.1l-1.4-3.71,4.75-5.57,4.91,5.26-1.66,3.44-5.99.55-.6.02ZM50.02,113.72l.62,1.64,4.37-.41.76-1.57-2.85-3.05-2.9,3.39Z"/><polygon class="cls-1" points="49.22 77.54 48.58 74.5 55.9 72.97 61.09 73.18 57.86 68.01 54.74 60.7 50.06 54.2 52.58 52.38 57.46 59.17 60.67 66.67 66.86 76.52 56.16 76.09 49.22 77.54"/><path class="cls-1" d="M34.72,60.55l2.4-2.22,2.97,2.22-2.97,2.62-2.4-2.62Z"/><path class="cls-1" d="M37.08,63.94l-3.14-3.43,3.15-2.92,3.88,2.91-3.89,3.43ZM35.5,60.58l1.66,1.8,2.04-1.8-2.05-1.53-1.65,1.53Z"/><path class="cls-1" d="M63.11,60.58l3.07-2.45,2.6,2.45-2.6,2.77-3.07-2.77Z"/><path class="cls-1" d="M66.21,64.13l-3.96-3.57,3.96-3.17,3.36,3.17-3.36,3.57ZM63.97,60.61l2.18,1.96,1.85-1.97-1.85-1.74-2.18,1.74Z"/><polygon class="cls-1" points="34.44 23.41 29.92 22.48 25.95 20.37 26.77 18.84 30.51 20.83 34.52 21.65 38.55 21.21 42.28 19.65 45.74 17.53 49.07 14.83 50.16 16.17 46.7 18.98 43.01 21.23 38.99 22.91 34.44 23.41"/><path class="cls-1" d="M34.4,24.25l-4.77-.98-4.8-2.55,1.6-3.01,4.37,2.32,3.76.77,3.78-.41,3.56-1.49,3.36-2.06,3.93-3.19,2.15,2.64-4.2,3.39-3.8,2.31-4.13,1.73-4.8.52ZM30.2,21.68l4.28.88,4.3-.47,3.85-1.61,3.59-2.19,2.77-2.24-.04-.05-2.77,2.24-3.58,2.18-3.84,1.61-4.28.47-4.26-.87-3.11-1.65-.03.06,3.12,1.66Z"/><polygon class="cls-1" points="70.27 22.91 65.85 22.58 61.65 21.34 57.76 19.18 54.54 16.16 55.72 14.89 58.79 17.77 62.32 19.73 66.16 20.86 70.16 21.16 74.08 20.39 77.55 18.22 78.47 19.69 74.73 22.04 70.27 22.91"/><path class="cls-1" d="M70.32,23.75l-4.7-.37-4.37-1.31-4.06-2.27-3.83-3.6,2.33-2.48,3.6,3.38,3.36,1.86,3.67,1.08,3.8.28,3.66-.71,4.05-2.53,1.8,2.89-4.59,2.87-4.72.92ZM66,21.75l4.22.32,4.2-.82,2.91-1.82-.04-.06-2.9,1.81-4.18.82-4.29-.34-4.01-1.2-3.7-2.08-2.46-2.31-.05.05,2.54,2.38,3.72,2.06,4.03,1.19Z"/><path class="cls-1" d="M66.77,67.97l-4.56-.99-3.56-2.79-3.04-3.16-1.37-4.11-1.91-3.76-.96-4.29.06-4.28.02-4.25.91-4.3,1.51-3.99,2.4-3.56,2.57-3.36,3.65-2.38,4.22-1.02,4.57.45,3.58,2.86,2.5,3.51,2.11,3.63,1.26,4.08.97,4.1.08,4.2.23,4.3-1.32,4.09-1.05,4.08-2.07,3.82-2.5,3.6-3.87,2.37-4.43,1.13ZM62.97,65.37l3.77.82,3.77-.96,3.33-2.05,2.26-3.26,1.89-3.51,1.02-3.95,1.23-3.82-.21-4.03-.07-4.03-.92-3.89-1.18-3.8-1.99-3.42-2.3-3.22-2.99-2.39-3.77-.37-3.64.88-3.15,2.06-2.37,3.1-2.24,3.33-1.41,3.74-.82,3.93v4.08s-.07,4.09-.07,4.09l.87,3.88,1.89,3.74,1.27,3.8,2.73,2.83,3.11,2.43Z"/><path class="cls-1" d="M66.78,68.83l-4.94-1.07-3.8-2.99-3.17-3.3-1.41-4.23-1.95-3.9-.98-4.38.06-4.38.03-4.41.95-4.42,1.6-4.16,2.4-3.56,2.68-3.52,3.89-2.54,4.49-1.09,4.96.49,3.86,3.09,2.61,3.67,2.19,3.8,1.28,4.13.99,4.28.08,4.2.23,4.43-1.36,4.24-1.11,4.22-2.12,3.9-2.6,3.74-4.12,2.53-4.74,1.21ZM62.57,66.2l4.18.91,4.11-1.05,3.61-2.22,2.37-3.42,2-3.69,1.02-3.98,1.28-4-.22-4.15-.08-4.14-.94-3.99-1.22-3.96-2.05-3.51-2.41-3.39-3.3-2.63-4.18-.42-3.94.95-3.41,2.23-2.48,3.25-2.31,3.44-1.45,3.84-.88,4.16-.02,4.16-.06,4.19.92,4.09,1.91,3.78,1.31,3.93,2.87,2.98,3.37,2.64ZM66.75,67.04l-4.15-.9-3.35-2.63-2.86-2.97-1.31-3.92-1.93-3.88-.89-3.97.06-4.18.03-4.24.86-4.06,1.5-3.91,2.24-3.32,2.49-3.26,3.39-2.21,3.92-.95,4.15.41,3.27,2.62,2.41,3.38,2.07,3.6,1.19,3.86.94,4.07.07,4.03.22,4.15-1.27,3.96-1.08,4.09-1.94,3.59-2.36,3.4-3.59,2.2-4.09,1.04ZM63.33,64.59l3.39.74,3.46-.88,3.07-1.89,2.14-3.08,1.82-3.38.99-3.85,1.19-3.72-.2-3.88-.07-3.97-.89-3.78-1.14-3.68-1.93-3.31-2.21-3.09-2.71-2.16-3.38-.34-3.36.81-2.91,1.9-2.28,2.99-2.15,3.2-1.36,3.59-.79,3.79v4s-.07,4-.07,4l.82,3.68,1.89,3.76,1.21,3.62,2.56,2.66,2.91,2.27Z"/><path class="cls-1" d="M37.92,67.44l-4.35-.83-3.6-2.56-3.06-3.02-2.06-3.91-1.04-4.13-1.08-4.12.02-4.38.53-4.07.37-4.19,1.29-4.17,2.31-3.69,6.06-6.2,4.66-.73,4.33,1.18,3.46,2.58,3.29,2.92,1.54,4.13,1.42,3.94,1.16,4.15-.3,4.25.27,4.22-.92,4.29-1.83,3.83-1.79,3.82-2.44,3.65-3.97,2.16-4.27.87ZM34.27,64.98l3.64.7,3.68-.75,3.36-1.83,2.16-3.24,1.7-3.65,1.75-3.66.82-3.85-.27-4.1.29-4.07-1.07-3.83-1.39-3.84-1.38-3.72-2.94-2.61-3.11-2.32-3.65-1-3.72.58-5.52,5.66-2.09,3.34-1.16,3.77-.36,4.07-.53,4.03v3.99s1.01,3.91,1.01,3.91l.99,3.94,1.83,3.49,2.82,2.78,3.13,2.21Z"/><path class="cls-1" d="M37.93,68.29l-4.69-.9-3.85-2.75-3.16-3.11-2.19-4.21-1.04-4.13-1.1-4.22.03-4.59.53-4.07.4-4.33,1.32-4.27,2.48-3.92,6.25-6.4,5.11-.8,4.66,1.27,3.64,2.72,3.45,3.06,1.61,4.33,1.44,4.01,1.2,4.29-.31,4.34.28,4.28-1,4.59-1.83,3.83-1.85,3.92-2.55,3.82-4.26,2.31-4.55.93ZM33.91,65.82l4.01.77,3.98-.81,3.67-2,2.29-3.43,1.76-3.76,1.79-3.75.87-4.08-.27-4.16.3-4.16-1.11-3.98-1.41-3.91-1.46-3.93-3.11-2.76-3.3-2.47-4.01-1.1-4.21.66-5.8,5.94-2.2,3.52-1.23,3.98-.36,4.11-.53,4.05-.02,4.22,1.05,4.02,1.02,4.04,1.95,3.71,2.92,2.88,3.4,2.42ZM37.92,66.53l-3.98-.76-3.38-2.4-2.91-2.87-1.96-3.79-.99-3.94-1.05-4.01.02-4.2.53-4.03.39-4.2,1.2-3.88,2.26-3.57,5.72-5.85,4.17-.65,3.98,1.09,3.29,2.46,3.1,2.75,1.45,3.91,1.41,3.91,1.11,3.97-.3,4.16.27,4.15-.91,4.15-1.75,3.66-1.76,3.76-2.28,3.41-3.65,1.99-3.96.81ZM34.61,64.19l3.3.63,3.39-.69,3.07-1.67,2.01-3.01,1.67-3.59,1.71-3.58.78-3.64-.26-4.04.28-3.98-1.02-3.66-1.38-3.81-1.31-3.51-2.76-2.45-2.95-2.2-3.33-.91-3.27.51-5.27,5.39-1.98,3.17-1.11,3.58-.35,3.98-.52,4.01v3.82s.98,3.81.98,3.81l.97,3.85,1.73,3.29,2.68,2.64,2.93,2.07Z"/></g></svg>