<?xml version="1.0" encoding="UTF-8"?><svg id="_레이어_2" xmlns="http://www.w3.org/2000/svg" viewBox="0 0 238.66 22.21"><defs><style>.cls-1{fill:#0f0f0e;stroke-width:0px;}</style></defs><g id="_레이어_1-2"><path class="cls-1" d="M213.64,7.66l3.09-.26,3.07.34.18,1.54-2.48-.23.13,2.91-.16,2.84.28,2.92h-1.73s.06-2.92.06-2.92l.18-2.84-.15-2.82-1.24-.09.34,2.9-.19,2.84.21,2.94-1.56-.14-.08-2.47.28-2.51-.52-2.52.3-2.45Z"/><path class="cls-1" d="M215.41,17.94l-1.92-.18-.08-2.63.28-2.51-.52-2.52.32-2.62,3.23-.27,3.24.36.22,1.9-2.49-.23.12,2.71-.16,2.86.3,3.09h-2.1s.06-3.1.06-3.1l.18-2.85-.14-2.64-.87-.06.32,2.69-.19,2.87.22,3.13ZM213.83,17.45l1.2.11-.19-2.74.19-2.87-.37-3.08,1.61.11.16,2.97-.18,2.86-.05,2.73h1.36s-.26-2.72-.26-2.72l.16-2.87-.14-3.09,2.46.23-.14-1.19-2.93-.33-2.91.25-.28,2.28.52,2.52-.28,2.54.07,2.29Z"/><path class="cls-1" d="M238.18,17.58l-3.09.26-3.07-.34-.18-1.54,2.48.23-.13-2.91.16-2.84-.28-2.92h1.73s-.06,2.92-.06,2.92l-.18,2.84.15,2.82,1.24.09-.34-2.9.19-2.84-.21-2.94,1.56.14.08,2.47-.28,2.51.52,2.52-.3,2.45Z"/><path class="cls-1" d="M235.11,18.02l-3.24-.36-.22-1.9,2.49.23-.12-2.71.16-2.86-.3-3.09h2.1s-.06,3.1-.06,3.1l-.18,2.85.14,2.64.87.06-.32-2.69.19-2.87-.22-3.13,1.92.18.08,2.63-.28,2.51.52,2.52-.32,2.62-3.23.27ZM232.18,17.34l2.93.33,2.91-.25.28-2.28-.52-2.52.28-2.54-.07-2.29-1.2-.11.19,2.74-.19,2.87.37,3.08-1.61-.11-.16-2.97.18-2.86.05-2.73h-1.36s.26,2.72.26,2.72l-.16,2.87.14,3.09-2.46-.23.14,1.19Z"/><path class="cls-1" d="M71.78,2.43l1.52-1.61,1.88,1.61-1.88,1.89-1.52-1.89Z"/><path class="cls-1" d="M73.26,5.11l-2.18-2.71,2.18-2.31,2.69,2.3-2.69,2.71ZM72.48,2.46l.86,1.07,1.06-1.07-1.07-.91-.86.91Z"/><path class="cls-1" d="M89.76,2.25l1.94-1.55,1.65,1.55-1.65,1.75-1.94-1.75Z"/><path class="cls-1" d="M91.73,4.74l-2.79-2.51,2.78-2.23,2.36,2.23-2.36,2.51ZM90.57,2.28l1.1.99.93-.99-.93-.88-1.1.88Z"/><path class="cls-1" d="M139.89,15.37l2.75-3.04-3.13-2.81.92-.76,3.02,2.33,3.01-2.32.98.79-2.86,2.77,2.97,2.75-1.24,1.12-2.86-2.57-2.98,2.39-.58-.65Z"/><path class="cls-1" d="M146.3,16.9l-2.88-2.59-3.02,2.42-1.22-1.38,2.71-2.99-3.19-2.86,1.71-1.43,3.03,2.34,3.01-2.33,1.77,1.43-2.89,2.8,2.98,2.76-2.02,1.82ZM143.46,12.93l2.84,2.55.46-.41-2.95-2.73,2.83-2.74-.2-.16-3,2.32-3.01-2.32-.12.1,3.07,2.75-2.33,2.58,2.41-1.93Z"/><path class="cls-1" d="M161.47,17.69l-4.68-4.62,4.68-4.56,4.65,4.56-4.65,4.62ZM158.35,13.08l3.12,3.07,3.1-3.07-3.1-3.04-3.12,3.04Z"/><path class="cls-1" d="M161.47,18.43l-5.43-5.36,5.43-5.3,5.4,5.3-5.4,5.36ZM157.54,13.08l3.92,3.87,3.9-3.87-3.9-3.83-3.92,3.83ZM161.47,16.9l-3.87-3.82,3.87-3.77,3.85,3.77-3.85,3.82ZM159.1,13.08l2.36,2.33,2.35-2.33-2.35-2.3-2.36,2.3Z"/><path class="cls-1" d="M23.52,12.81l.08,1.41-1.33.5-.58,1.4.28,1.21-.29,1.21.1,1.36-.63,1.24-1.21.71h-1.4s-.14-1.33-.14-1.33l1.26-.06.77-.83-.09-1.11v-1.44s-.01-1.44-.01-1.44l.59-1.34,1.3-.62-.11-.12-1.18-.84-.38-1.34v-1.45s-.08-1.45-.08-1.45l-.21-1.09-.67-.77-1.03-.34.06-1.06,1.25.21,1.07.65.8,1.05.22,1.35-.16,1.22.07,1.22.32,1.46,1.33.46Z"/><path class="cls-1" d="M20.04,22.21h-1.82s-.22-2.02-.22-2.02l1.49-.07.57-.61-.07-.96-.02-2.98.67-1.53.9-.43-.94-.66-.43-1.51v-1.5s-.07-1.4-.07-1.4l-.18-.97-.54-.63-1.19-.4.1-1.73,1.7.28,1.19.72.89,1.17.24,1.49-.16,1.23.07,1.16.27,1.24,1.36.47.11,1.91-1.43.54-.48,1.15.27,1.18-.29,1.23.11,1.41-.72,1.42-1.38.82ZM18.86,21.49h.99s1.04-.61,1.04-.61l.54-1.06-.1-1.32.28-1.18-.29-1.24.68-1.65,1.23-.46-.05-.91-1.29-.44-.37-1.71-.07-1.25.16-1.2-.19-1.21-.7-.92-.96-.58-.79-.13-.02.4.86.29.79.92.23,1.23.09,1.45v1.42s.32,1.17.32,1.17l1.13.81.44.47-1.61.77-.51,1.15v2.81s.11,1.24.11,1.24l-.97,1.05-1.03.05.07.63Z"/><path class="cls-1" d="M1.77,12.19l.32-1.46.07-1.22-.16-1.22.22-1.35.8-1.05,1.07-.65,1.25-.21.06,1.06-1.03.34-.67.77-.21,1.09-.09,1.45v1.45s-.37,1.34-.37,1.34l-1.18.84-.11.12,1.3.62.59,1.34v1.44s-.01,1.44-.01,1.44l-.09,1.11.77.83,1.26.06-.14,1.32h-1.4s-1.21-.71-1.21-.71l-.63-1.24.1-1.36-.29-1.21.28-1.21-.58-1.4-1.33-.5.08-1.41,1.33-.46Z"/><path class="cls-1" d="M3.93,22.04l-1.38-.82-.72-1.42.11-1.41-.29-1.23.27-1.18-.48-1.15-1.43-.54.11-1.91,1.36-.47.27-1.24.07-1.15-.16-1.23.24-1.49.89-1.17,1.19-.72,1.7-.28.1,1.73-1.19.4-.54.63-.18.97-.09,1.43v1.48s-.41,1.51-.41,1.51l-.94.66.9.43.67,1.53v2.96s-.09.99-.09.99l.57.61,1.49.07-.22,2.01h-1.82ZM3.09,20.72l1.04.61h.99s.07-.64.07-.64l-1.03-.05-.97-1.05.1-1.27v-2.78s-.49-1.15-.49-1.15l-1.61-.77.49-.52,1.08-.77.33-1.17v-1.4s.08-1.52.08-1.52l.22-1.18.79-.92.86-.29-.02-.4-.79.13-.96.58-.7.92-.19,1.21.16,1.2-.08,1.3-.36,1.66-1.29.44-.05.91,1.23.46.68,1.65-.29,1.24.28,1.18-.1,1.32.54,1.06Z"/></g></svg>