<?xml version="1.0" encoding="UTF-8"?><svg id="_레이어_2" xmlns="http://www.w3.org/2000/svg" viewBox="0 0 276.6 92.44"><defs><style>.cls-1{fill:#080103;}.cls-1,.cls-2{stroke-width:0px;}.cls-2{fill:#0f0f0e;}</style></defs><g id="_레이어_1-2"><path class="cls-2" d="M260.53,23.29c-.12,0-.24-.04-.34-.12l-2.19-1.72-2.52-1.14-2.73-.45-2.72.46-2.52,1.25-2.61,1.32c-.27.14-.6.03-.74-.24-.14-.27-.03-.6.24-.74l2.61-1.32,2.67-1.32,3.06-.52,3.06.5,2.77,1.25,2.3,1.8c.24.19.28.53.09.77-.11.14-.27.21-.43.21Z"/><path class="cls-2" d="M260.53,23.82c-.24,0-.48-.08-.66-.23l-2.14-1.68-2.4-1.09-2.58-.42-2.56.43-2.45,1.22-2.6,1.32c-.53.27-1.18.05-1.45-.48-.13-.26-.15-.55-.06-.82s.28-.5.54-.63l2.61-1.32,2.74-1.36,3.23-.55,3.21.53,2.94,1.35,2.3,1.8c.47.37.55,1.05.18,1.51-.21.26-.52.41-.85.41ZM249.84,19.78l-2.6,1.29-2.61,1.32.26.51-.24-.47,2.61-1.32,2.59-1.29,2.89-.49,2.89.47,2.69,1.23,2.21,1.73s.02,0,.02,0l-2.25-1.8-2.65-1.2-2.9-.48-2.9.49Z"/><path class="cls-2" d="M226.54,23.13c-.16,0-.31-.07-.42-.2-.2-.23-.17-.58.07-.78l2.33-1.97,2.96-1.12,3.09-.05,2.97.44,2.77,1.13,2.61,1.35c.27.14.37.47.23.74-.14.27-.47.37-.74.23l-2.58-1.34-2.58-1.05-2.75-.41-2.81.05-2.6.98-2.18,1.84c-.1.09-.23.13-.35.13Z"/><path class="cls-2" d="M226.54,23.66c-.32,0-.62-.14-.82-.38-.38-.45-.33-1.14.13-1.52l2.4-2.02,3.13-1.18,3.23-.05,3.13.48,2.81,1.15,2.61,1.35c.53.27.73.93.46,1.45-.27.53-.93.73-1.45.46l-2.56-1.33-2.5-1.02-2.64-.39-2.68.04-2.43.92-2.11,1.79c-.19.16-.44.25-.7.25ZM228.78,20.65l-2.26,1.91v.04s.03,0,.03,0l2.25-1.9,2.78-1.05,2.95-.05,2.91.45,2.62,1.07,2.58,1.34.02-.04-2.59-1.34-2.69-1.1-2.86-.42-2.96.05-2.79,1.05Z"/><path class="cls-2" d="M234.51,43.85l-2.81-.73-2.31-1.61-1.78-2.15-1.01-2.49-1.16-2.42-.53-2.7-.29-2.72.55-2.68.6-2.53.44-2.69,1.31-2.48,1.83-2.11,2.33-1.64,2.86-.58,2.78.75,2.23,1.64,1.83,2.02,1.4,2.38.76,2.65.21,2.67.15,2.62-.06,2.62-.12,2.76-1.14,2.59-1.4,2.22-1.52,2.22-2.25,1.8-2.9.59ZM232.17,42.11l2.37.61,2.39-.49,1.92-1.53,1.43-2.07,1.36-2.16,1-2.29.11-2.55.05-2.56-.15-2.56-.2-2.55-.69-2.41-1.28-2.16-1.68-1.86-1.97-1.45-2.33-.62-2.38.48-2.03,1.43-1.66,1.91-1.17,2.21-.42,2.57-.6,2.53-.51,2.5.27,2.52.49,2.49,1.13,2.34.95,2.35,1.57,1.91,2.03,1.41Z"/><path class="cls-2" d="M234.49,44.39l-3.02-.78-2.45-1.7-1.88-2.27-1.04-2.57-1.19-2.51-.54-2.75-.3-2.8.57-2.76.6-2.53.45-2.75,1.42-2.66,1.92-2.19,2.42-1.71,3.09-.63,3,.8,2.39,1.77,1.89,2.11,1.46,2.5.78,2.76.21,2.67.15,2.65-.06,2.64-.13,2.87-1.21,2.75-1.4,2.22-1.58,2.3-2.41,1.93-3.15.64ZM231.93,42.64l2.6.67,2.66-.54,2.09-1.67,1.48-2.15,1.37-2.17,1.08-2.46.12-2.66.05-2.58-.15-2.6-.2-2.6-.73-2.54-1.34-2.28-1.75-1.94-2.1-1.55-2.57-.69-2.63.53-2.19,1.54-1.75,2.01-1.24,2.35-.44,2.64-.6,2.53-.53,2.59.28,2.61.51,2.62,1.14,2.36.99,2.45,1.68,2.04,2.18,1.51ZM234.52,43.26l-2.58-.67-2.16-1.5-1.67-2.03-.98-2.43-1.15-2.44-.5-2.54-.28-2.6.53-2.58.6-2.53.44-2.63,1.28-2.39,1.75-1.99,2.12-1.5,2.62-.53,2.55.68,2.13,1.58,1.74,1.94,1.33,2.29.71,2.52.2,2.55.15,2.59-.05,2.58-.12,2.66-1.07,2.45-1.36,2.16-1.48,2.16-2.08,1.66-2.64.54ZM232.39,41.62l2.16.56,2.15-.44,1.75-1.41,1.38-2.01,1.33-2.11.94-2.17.11-2.45.05-2.53-.15-2.54-.19-2.48-.66-2.3-1.21-2.06-1.6-1.78-1.85-1.36-2.12-.57-2.15.44-1.89,1.33-1.57,1.81-1.1,2.08-.42,2.52-.6,2.53-.49,2.4.26,2.42.47,2.4,1.1,2.28.93,2.31,1.48,1.79,1.89,1.31Z"/><path class="cls-2" d="M252.71,43.5l-2.73-.44-2.35-1.55-1.8-2.11-1.23-2.45-1.02-2.53-.11-2.73-.22-2.62.21-2.63.22-2.7,1-2.51,1.06-2.54,1.98-2.01,2.19-1.7,2.88-.55,2.63.91,2.56,1.15,1.6,2.38,1.27,2.37.9,2.55.49,2.65.11,2.62.04,2.72-.64,2.69-.91,2.54-1.25,2.42-1.65,2.17-2.36,1.7-2.86.23ZM250.39,42.01l2.37.38,2.42-.2,1.98-1.43,1.52-2,1.16-2.26.86-2.41.59-2.47-.03-2.57-.11-2.56-.47-2.5-.85-2.39-1.21-2.24-1.38-2.05-2.25-1.01-2.28-.79-2.33.44-1.95,1.51-1.75,1.79-.97,2.34-.94,2.35-.21,2.54-.2,2.54.21,2.57.11,2.55.94,2.34,1.14,2.27,1.61,1.89,2.02,1.34Z"/><path class="cls-2" d="M252.69,44.03l-2.91-.47-2.51-1.66-1.92-2.27-1.25-2.49-1.05-2.62-.12-2.82-.22-2.64.44-5.46,1.03-2.59,1.1-2.65,2.1-2.13,2.29-1.78,3.14-.6,2.81.97,2.69,1.21,1.71,2.55,1.31,2.45.92,2.63.5,2.73.11,2.62.04,2.8-.68,2.81-.93,2.6-1.29,2.49-1.7,2.23-2.54,1.84-3.07.25ZM250.18,42.55l2.56.42,2.65-.21,2.18-1.57,1.57-2.07,1.21-2.34.88-2.48.62-2.6-.04-2.65-.11-2.57-.48-2.58-.88-2.47-1.24-2.32-1.5-2.23-2.4-1.08-2.47-.86-2.61.5-2.06,1.6-1.88,1.91-1.02,2.45-.97,2.43-.42,5.21.21,2.58.11,2.66.98,2.43,1.2,2.37,1.71,2.01,2.19,1.45ZM252.73,42.92l-2.54-.41-2.18-1.44-1.73-2.05-1.16-2.31-.97-2.42-.11-2.64-.21-2.59.42-5.2.97-2.43,1.02-2.44,1.87-1.91,2.05-1.59,2.59-.49,2.46.85,2.38,1.07,1.49,2.22,1.24,2.31.87,2.47.48,2.57.11,2.56.04,2.65-.62,2.59-.88,2.47-1.21,2.34-1.57,2.06-2.16,1.56-2.63.21ZM250.58,41.5l2.19.36,2.21-.18,1.8-1.3,1.44-1.9,1.12-2.19.83-2.35.57-2.38-.03-2.5-.11-2.51-.45-2.42-.82-2.31-1.18-2.18-1.28-1.9-2.09-.94-2.13-.74-2.06.39-1.82,1.41-1.65,1.69-.94,2.25-.9,2.27-.4,4.96.21,2.53.1,2.48.9,2.23,1.11,2.19,1.52,1.79,1.87,1.23Z"/><polygon class="cls-2" points="259.47 14.9 257.61 13.1 255.31 11.99 252.77 11.72 250.26 12.31 247.84 13.12 245.89 14.82 245.17 13.99 247.28 12.14 249.98 11.24 252.71 10.61 255.61 10.92 258.24 12.18 260.24 14.11 259.47 14.9"/><path class="cls-2" d="M259.48,15.65l-2.18-2.11-2.14-1.03-2.35-.25-2.41.56-2.3.77-2.26,1.98-1.42-1.62,2.59-2.26,2.85-.95,2.81-.65,3.09.33,2.79,1.34,2.43,2.36-1.5,1.55ZM252.74,11.19l2.71.29,2.46,1.18,1.55,1.5.03-.03-1.55-1.5-2.47-1.19-2.73-.29-2.61.61-2.58.86-1.63,1.43.03.03,1.63-1.42,2.57-.86,2.6-.61Z"/><polygon class="cls-2" points="241.28 14.95 239.27 13.3 237.09 11.94 234.53 11.8 231.94 11.96 229.66 13.1 227.63 14.78 226.93 13.94 229.05 12.18 231.65 10.87 234.53 10.7 237.44 10.86 239.94 12.43 241.98 14.09 241.28 14.95"/><path class="cls-2" d="M241.36,15.69l-2.4-1.96-2.03-1.27-2.4-.13-2.45.15-2.14,1.07-2.39,1.98-1.37-1.66,2.63-2.16,2.7-1.35,3.01-.18,3.08.17,2.67,1.68,2.45,2-1.36,1.67ZM234.53,11.27l2.73.15,2.34,1.47,1.61,1.31.03-.03-1.61-1.31-2.35-1.48-2.74-.15-2.74.17-2.45,1.23-1.67,1.38.03.03,1.72-1.41,2.39-1.2,2.73-.17Z"/><polygon class="cls-2" points="256.13 49.3 248.9 48.02 242.51 48.09 242.49 46.12 249.06 46.05 254.7 47.05 255.05 45.74 250.36 43.71 244.22 42.47 244.6 40.55 250.95 41.83 257.39 44.61 256.13 49.3"/><path class="cls-1" d="M275.4,68.49l.23-4.4v-.02s-.09-4.46-.09-4.46l-.04-4.44v-4.46s-.08-4.43-.08-4.43l.23-4.44.13-4.44.31-4.49-.63-4.43.6-4.41-.09-4.49-.31-4.46-.08-4.44-.16-4.41.44-5.05-5.21-.29-4.53.38-4.5-.16-4.53-.1h0s-4.52.05-4.52.05l-4.51-.03-4.55-.14-4.52.29-4.54-.22-4.5.51-4.52-.6-4.54.42-4.53-.37-4.85.54-.28,4.74.03,4.47.36,4.43-.62,4.46.58,4.49v4.4s-.22,4.42-.22,4.42l-.41,4.48.35,4.45-.32,4.43.07,4.47.37,4.47.12,4.39-.62,4.47.56,4.48-.14,4.42.13,4.43-.42,4.41v.03s.03,4.48.03,4.48l.14,5.07,5.16-.17,4.48-.18,4.52.58,4.55-.04,4.53.06h.02s4.55-.25,4.55-.25l2.89-.21,2.11-.05,3.99.46,4.56-.15,4.51-.35,4.48.33,4.54.17h.02s4.54-.09,4.54-.09l4.93-.38v-4.83s-.18-4.45-.18-4.45l-.05-4.41.49-4.47-.47-4.46ZM212.68,24.05l-.57-4.44.62-4.43-.37-4.49-.03-4.41.22-3.77,3.82-.42,4.52.37,4.51-.41,4.53.6,4.55-.52,4.51.22,4.53-.29,4.51.14,4.53.03,4.52-.05,4.51.1,4.56.16,4.52-.38,4,.22-.34,3.99.16,4.47.08,4.45.31,4.46.08,4.39-.61,4.48.64,4.47-.3,4.39-.13,4.46-.23,4.45v.02s.08,4.46.08,4.46v4.45s.04,4.45.04,4.45l.08,3.82-3.44-.89-4.4-1.43-4.53-1.36-4.73-.08-9.14-1.12-4.69-.29-9.24.6-4.59.52-4.69.4-4.41,1.59-4.55.89-4.06,1.68.6-4.29-.13-4.49-.37-4.46-.07-4.4.32-4.46-.35-4.44.4-4.4.23-4.47h0s-.01-4.48-.01-4.48ZM245.55,90l-1.47.04-.55-.06-1.66.12h-.14s-2.94-.26-2.94-.26l.51-3.23,1.16-3.96.61-4.16,1.17-3.5h.02s3.5-.13,3.5-.13l.4,3.75,1.39,3.94.82,3.96.32,3.39-3.14.13ZM240.04,72.01l-2.52,3.68-1.37-3.12-1.16-3.88-.26-4.35.96-3.17,2.27,2.08,2.77,2.93,2.35,2.33-3.04,3.5ZM243.83,69.36l2.45,2.63-.77,1.58-3.34.31h-.12s-.64-1.69-.64-1.69l2.42-2.83ZM244.93,68.53l2.45-2.47,2.99-2.71,2.2-2.12.92,3.11-.23,4.35-1.08,3.91-1.42,3.1-2.72-3.51-3.1-3.66ZM249.62,62.55l-2.99,2.71-2.61,2.63-2.5-2.48-2.77-2.93-2.84-2.61,7.68-.5,4.57.28,3.96.48-2.5,2.41ZM234.45,90.54l-4.52-.06-4.49.04-4.53-.59-4.57.18-4.05.13-.11-3.96-.04-4.42.42-4.42v-.03s-.13-4.46-.13-4.46l.14-4.47-.44-3.57.06.15,4.22-1.75,4.49-.88,4.39-1.57,4.57-.39,4.57-.52.5-.03-1.29,4.27.27,4.67,1.2,4.04,2.2,5.03,3.28-4.8.58,1.53-1.19,3.56-.6,4.14-1.16,3.96-.65,4.05-3.13.17ZM274.32,81.87l.17,4.44v3.8s-3.86.3-3.86.3l-4.49.09-4.5-.16-4.56-.33-4.55.36-2.69.09-.39-4.09-.85-4.08-1.38-3.92-.5-4.74.39-.8.06.08,3.83,4.93,2.19-4.79,1.16-4.15.25-4.66-1.16-3.91,3.88.47,4.67.09,4.37,1.32,4.4,1.43,3.74.97-.2,3.94.47,4.43-.49,4.42.05,4.5Z"/><path class="cls-2" d="M234.49,92.17h-.03l-4.53-.06-4.58.04-4.51-.58-4.44.18-5.69.19-.15-5.6-.04-4.52.42-4.43-.13-4.4.14-4.41-.56-4.5.62-4.5-.12-4.34-.37-4.48-.07-4.49.32-4.41-.35-4.46v-.04s.41-4.48.41-4.48l.23-4.4v-4.33s-.6-4.52-.6-4.52l.62-4.47-.36-4.41-.03-4.47.3-5.22,5.34-.59,4.53.37,4.55-.42h.06s4.45.6,4.45.6l4.48-.51,4.55.22,4.51-.29h.02s4.55.14,4.55.14l4.5.03,4.52-.05,4.55.1,4.48.16,4.54-.38,5.78.32-.48,5.56.15,4.38.08,4.45.31,4.43.09,4.56-.6,4.38.63,4.41-.31,4.55-.13,4.42-.23,4.43.08,4.41v4.47s.04,4.43.04,4.43l.09,4.47-.23,4.4.47,4.48-.49,4.5.05,4.38.17,4.44v5.34s-5.41.41-5.41.41l-4.59.1h-.03s-4.54-.17-4.54-.17l-4.46-.33-4.47.35-4.63.15-3.99-.46-2.07.05-2.86.2-4.58.25ZM229.92,91.05l4.54.06,4.54-.24,2.88-.2,2.17-.05,3.99.46,4.53-.15,4.52-.35h.04s4.48.33,4.48.33l4.53.17,4.53-.09,4.41-.34v-4.34s-.18-4.43-.18-4.43l-.05-4.46.49-4.45-.47-4.45.23-4.45-.09-4.44-.04-4.45v-4.46s-.08-4.44-.08-4.44v-.02s.23-4.44.23-4.44l.13-4.42.3-4.46-.64-4.45.61-4.44-.09-4.45-.31-4.43-.08-4.47-.16-4.44.39-4.54-4.62-.26-4.53.38-4.53-.16-4.52-.1-4.52.05-4.52-.03-4.54-.14-4.52.29-4.52-.22-4.52.52-4.52-.6-4.53.42-4.52-.37-4.35.48-.25,4.29.03,4.41.36,4.47v.06s-.62,4.39-.62,4.39l.58,4.48v4.4s-.22,4.45-.22,4.45l-.41,4.46.35,4.45-.32,4.45.07,4.43.37,4.45.13,4.46-.39,2.82.03.08.4-2.89-.12-4.45-.37-4.47-.07-4.43.32-4.45-.35-4.45v-.04s.41-4.4.41-4.4l.23-4.45v-4.41s-.59-4.48-.59-4.48l.62-4.45-.36-4.47-.03-4.41.25-4.25,4.32-.48,4.52.37,4.52-.42h.06s4.47.6,4.47.6l4.53-.52,4.52.22,4.52-.29,4.54.14,4.52.03,4.51-.05,4.53.1,4.53.16,4.53-.38,4.58.25-.39,4.5.16,4.44.08,4.46.31,4.43.09,4.46-.61,4.45.64,4.45-.3,4.44-.13,4.44-.23,4.46.08,4.44v4.46s.04,4.45.04,4.45l.09,4.51-4.11-1.07-4.43-1.44-4.45-1.34-4.71-.09-9.14-1.12-4.63-.29-9.21.6-4.57.52-4.64.4-4.42,1.58-4.5.88-3.79,1.57.02.04,3.84-1.58,4.45-.87,4.42-1.58h.07s4.57-.39,4.57-.39l4.83-.53h0s8.94-.58,8.94-.58l4.6.29,9.16,1.12,4.71.09,4.44,1.34,4.41,1.44,4.13,1.07-.22,4.33.47,4.45-.49,4.45.05,4.46.17,4.43v4.31s-4.35.33-4.35.33l-4.52.1-4.53-.16-4.54-.33-4.51.35-3.21.11-.43-4.56-.83-4.02-1.4-4.01-.52-4.89.81-1.67.59.7,3.31,4.25,1.81-3.96,1.13-4.05.24-4.51-1.22-4.1-2.87,2.78-2.99,2.71-2.97,2.99-2.87-2.85-2.77-2.93-2.96-2.73-1.25,4.14.27,4.51,1.18,3.95,1.8,4.13,3.26-4.77-.21.25-3.04,4.44-1.77-4.06-1.18-4-.26-4.44,1.23-4.07,2.91,2.68,2.77,2.93,2.69,2.67-3.07,3.53,1,2.65-1.24,3.69-.61,4.17-1.15,3.92-.71,4.44-3.57.19h-.02s-4.52-.06-4.52-.06l-4.51.04h-.04s-4.49-.59-4.49-.59l-4.52.18-4.58.15-.12-4.49-.04-4.45v-.03s.42-4.42.42-4.42l-.13-4.43.14-4.46-.47-3.8-.04.02.47,3.79-.14,4.46.14,4.43-.42,4.44.04,4.46.12,4.53,4.62-.15,4.52-.18,4.52.59,4.51-.04ZM229.93,89.96l4.51.06,2.68-.14.6-3.69,1.15-3.92.62-4.2,1.13-3.38-.15-.41-3.25,4.76-2.6-5.97-1.23-4.16-.28-4.76,1.09-3.62-4.28.49-4.51.38-4.4,1.57-4.43.87-3.84,1.59.38,3.04-.14,4.51.14,4.46v.07s-.42,4.39-.42,4.39l.04,4.39.09,3.42,3.52-.12,4.61-.18,4.54.59,4.45-.04ZM257.08,89.47h.04s4.56.34,4.56.34l4.48.16,4.46-.09,3.35-.26v-3.31s-.18-4.43-.18-4.43l-.05-4.53.48-4.4-.46-4.42.18-3.56-3.33-.86-4.43-1.44-4.29-1.29-4.65-.09-3.08-.38.96,3.22-.27,4.87-1.19,4.23-2.55,5.58-3.84-4.94.46,4.36,1.38,3.93.85,4.14.34,3.6,2.19-.07,4.57-.36ZM236.66,72.38l.97,2.22,2.02-2.94,2.72-3.13-2-1.99-2.77-2.92-1.63-1.5-.69,2.27.25,4.19,1.13,3.79ZM237.18,60.31l1.96,1.8,2.77,2.93,2.11,2.1,2.24-2.26,3-2.72,1.69-1.64-2.86-.35-4.51-.28-6.41.42ZM211.45,64.07l.02.16.02-.16-.02-.16-.02.16ZM212.67,50.67l.37,4.44.13,4.57-.48,3.43,3.3-1.36,4.51-.88,4.43-1.59,4.76-.41,4.58-.52,9.3-.61,4.72.29,9.14,1.12,4.78.08,4.6,1.39,4.41,1.44,2.73.71-.06-3.13-.05-4.46v-4.46s-.08-4.46-.08-4.46v-.03s.23-4.45.23-4.45l.13-4.44.3-4.35-.64-4.48.62-4.51-.08-4.35-.31-4.43-.08-4.47-.16-4.49.3-3.48-3.42-.19-4.51.38-4.59-.16-4.5-.1-4.5.05-4.54-.03-4.5-.14-4.53.29-4.5-.22-4.57.52-4.54-.6-4.5.41-4.51-.37-3.33.37-.19,3.33.03,4.36.37,4.53v.06s-.61,4.36-.61,4.36l.57,4.44v4.48s-.22,4.5-.22,4.5l-.4,4.38.34,4.44-.33,4.48.07,4.36ZM241.7,90.63l-3.54-.32.62-3.85,1.15-3.92.62-4.22,1.28-3.83.39-.04,4-.15.44,4.17,1.39,3.95.83,4.02.38,3.94-3.7.16-1.51.04-.54-.06-1.81.12ZM239.38,89.36l2.35.21h.11s1.68-.12,1.68-.12l.56.07,1.43-.04,2.58-.11-.27-2.8-.81-3.89-1.41-4.02-.35-3.26-2.66.1-1.04,3.11-.62,4.19-1.15,3.93-.42,2.64ZM250.87,76.71l-3.26-4.19-3.4-4.02,2.79-2.81,3.01-2.73,2.81-2.72,1.2,4.03-.25,4.56-1.11,3.99-1.78,3.89ZM245.65,68.56l2.79,3.29,2.2,2.84,1.04-2.27,1.06-3.81.22-4.2-.65-2.19-1.57,1.52-3,2.72-2.09,2.11ZM241.69,74.43l-.88-2.35,3-3.52,3.1,3.32-1.05,2.18-3.79.35-.38.02ZM242.02,72.29l.39,1.04,2.76-.26.48-.99-1.8-1.93-1.83,2.15Z"/><path class="cls-2" d="M94.38,43.51l-2.8-.85-2.21-1.68-1.57-2.14-1.67-2.17-1.42-5.28.06-2.7-.07-2.73.95-2.56.61-2.57,1.21-2.49,1.89-2.07,2.45-1.3,2.56-.82,2.83.52,2.27,1.71,1.85,1.99,1.06,2.56.8,2.5.66,2.62.2,2.66-.29,2.65-.31,2.7-.75,2.62-1.55,2.27-1.61,2.16-2.27,1.7-2.87.72ZM92.09,41.66l2.31.71,2.36-.59,1.97-1.47,1.51-2.02,1.43-2.1.69-2.41.29-2.56.28-2.55-.19-2.51-.63-2.46-.78-2.43-.96-2.31-1.68-1.81-1.95-1.46-2.31-.43-2.25.72-2.14,1.15-1.65,1.82-1.09,2.24-.61,2.55-.89,2.39.07,2.55h0s-.05,2.57-.05,2.57l1.32,4.91,1.55,2.01,1.48,2.02,1.93,1.47Z"/><path class="cls-2" d="M94.37,44.06l-3.03-.92-2.35-1.79-1.61-2.2-1.73-2.24-1.46-5.45.06-2.78-.07-2.81.97-2.62.64-2.65,1.24-2.56,2-2.2,2.61-1.38,2.69-.86,3.09.57,2.43,1.85,1.92,2.06,1.11,2.68.8,2.5.68,2.74.2,2.71-.29,2.7-.33,2.79-.78,2.7-1.6,2.34-1.67,2.24-2.42,1.81-3.11.78ZM91.83,42.18l2.56.78,2.62-.66,2.12-1.59,1.56-2.09,1.49-2.18.72-2.5.31-2.65.28-2.6-.19-2.57-.65-2.58-.79-2.44-1.01-2.45-1.76-1.89-2.13-1.61-2.58-.48-2.39.77-2.32,1.24-1.77,1.95-1.15,2.37-.61,2.58-.91,2.46.07,2.63-.05,2.65,1.37,5.1,1.61,2.09,1.53,2.09,2.08,1.58ZM94.39,42.92l-2.54-.78-2.06-1.57-1.53-2.08-1.6-2.08-1.37-5.09.05-2.64-.07-2.64.91-2.46.64-2.63,1.12-2.31,1.77-1.94,2.31-1.23,2.38-.76,2.56.47,2.12,1.6,1.75,1.88,1.01,2.44.78,2.43.65,2.59.19,2.56-.59,5.24-.71,2.49-1.48,2.17-1.57,2.1-2.11,1.58-2.6.65ZM92.34,41.18l2.08.64,2.11-.53,1.82-1.36,1.46-1.96,1.37-2.01.65-2.28.55-5.01-.18-2.42-.62-2.42-.77-2.37-.91-2.2-1.59-1.71-1.81-1.36-2.05-.38-2.08.67-2.02,1.08-1.54,1.69-1.03,2.12-.61,2.55-.85,2.29.07,2.46v.03s-.05,2.48-.05,2.48l1.27,4.74,1.48,1.92,1.45,1.97,1.79,1.36Z"/><path class="cls-2" d="M112.57,43.43l-2.72-.97-2.46-1.23-1.71-2.26-1.4-2.35-.5-2.7-.55-2.62-.11-2.61-.05-2.67.52-2.68.99-2.47.95-2.6,2.11-1.82,2.06-1.82,2.86-.61,2.73.71,2.49,1.37,1.66,2.3,1.08,2.52.73,2.48.82,2.57-.05,2.75-.25,2.58-.3,2.69-.71,2.59-1.32,2.46-2.05,1.88-2.14,1.49-2.71,1ZM110.31,41.46l2.25.8,2.2-.82,1.99-1.39,1.83-1.68,1.17-2.19.67-2.43.28-2.55.25-2.55.04-2.51-.77-2.41-.72-2.46-.99-2.32-1.44-2.01-2.16-1.19-2.35-.61-2.32.5-1.85,1.64-1.9,1.64-.86,2.35-.96,2.39-.48,2.46.05,2.55.11,2.54.53,2.49.46,2.52,1.28,2.16,1.5,1.98,2.2,1.1Z"/><path class="cls-2" d="M112.57,43.99l-2.96-1.06-2.57-1.29-1.82-2.41-1.45-2.43-.51-2.79-.55-2.69-.11-2.61-.05-2.74.56-2.83.99-2.47.99-2.72,2.22-1.91,2.16-1.91,3.11-.67,2.97.79,2.6,1.43,1.79,2.5,1.1,2.58.73,2.48.85,2.64-.05,2.88-.25,2.58-.32,2.78-.76,2.7-1.36,2.54-2.17,1.99-2.25,1.55-2.89,1.07ZM110.06,41.97l2.51.9,2.46-.91,2.05-1.43,1.96-1.8,1.25-2.33.69-2.49.3-2.64.24-2.55.04-2.65-.8-2.49-.72-2.46-1.04-2.44-1.56-2.16-2.33-1.29-2.55-.66-2.6.56-1.96,1.73-2.01,1.73-.91,2.48-.98,2.44-.5,2.58.05,2.62.11,2.55.54,2.57.48,2.62,1.33,2.25,1.62,2.14,2.33,1.16ZM112.57,42.82l-2.49-.89-2.31-1.16-1.61-2.13-1.33-2.24-.48-2.61-.54-2.57-.11-2.54-.05-2.62.51-2.61.96-2.39.9-2.47,2.01-1.73,1.95-1.72,2.58-.55,2.59.69,2.26,1.25,1.57,2.2,1.01,2.38.72,2.46.8,2.48-.04,2.64-.25,2.55-.3,2.64-.71,2.54-1.21,2.26-1.95,1.79-2.11,1.45-2.38.88ZM110.52,40.97l2.04.73,1.96-.73,1.91-1.33,1.74-1.6,1.1-2.06.64-2.33.27-2.51.24-2.53.04-2.4-.75-2.33-.72-2.45-.96-2.24-1.34-1.86-2-1.1-2.16-.56-2.06.44-1.75,1.54-1.8,1.55-.81,2.22-.95,2.36-.45,2.36.05,2.5.1,2.49.52,2.45.45,2.44,1.22,2.05,1.41,1.86,2.07,1.03Z"/><polygon class="cls-2" points="119.44 14.93 117.48 13.24 115.09 12.36 112.57 12.01 110.03 12.34 107.56 13.07 105.61 14.81 104.88 13.99 107.02 12.09 109.84 11.26 112.58 10.9 115.36 11.29 118.04 12.27 120.16 14.1 119.44 14.93"/><path class="cls-2" d="M119.49,15.68l-2.29-1.98-2.24-.82-2.39-.34-2.43.32-2.31.68-2.26,2.02-1.43-1.61,2.62-2.34,3.02-.88,2.8-.37,2.96.43,2.77,1.02,2.58,2.24-1.41,1.63ZM112.57,11.48l2.7.39,2.47.91,1.63,1.42.03-.03-1.64-1.42-2.54-.93-2.66-.37-2.62.34-2.68.78-1.66,1.48.03.03,1.65-1.47,2.66-.78,2.61-.34Z"/><polygon class="cls-2" points="101.39 14.89 99.2 13.37 96.98 12.06 94.42 11.96 91.85 12.25 89.44 13.16 87.31 14.75 86.65 13.87 88.9 12.18 91.59 11.17 94.38 10.86 97.3 10.98 99.81 12.45 102.02 13.99 101.39 14.89"/><path class="cls-2" d="M101.52,15.63l-2.6-1.81-2.09-1.23-2.39-.1-2.47.28-2.28.86-2.49,1.87-1.29-1.72,2.73-2.05,2.88-1.07,2.83-.32,3.09.13,2.66,1.57,2.64,1.84-1.23,1.77ZM94.4,11.43l2.73.11,2.37,1.4,1.76,1.22.03-.04-1.76-1.22-2.38-1.4-2.74-.11-2.69.3-2.55.96-1.77,1.33.03.04,1.77-1.33,2.61-.97,2.61-.29Z"/><polygon class="cls-2" points="114.74 49.23 107.51 47.95 101.14 48.03 101.11 46.06 107.68 45.99 113.31 46.99 113.67 45.68 108.97 43.65 102.84 42.41 103.23 40.49 109.56 41.77 116 44.55 114.74 49.23"/><path class="cls-1" d="M135.27,68.41l.22-4.4v-.02s-.09-4.46-.09-4.46l-.04-4.44v-4.45s-.08-4.42-.08-4.42l.23-4.44.13-4.43.3-4.49-.63-4.42.6-4.41-.09-4.49-.31-4.46-.08-4.44-.16-4.41.44-5.05-5.2-.29-4.53.38-4.5-.16-4.52-.1h0s-4.52.05-4.52.05l-4.51-.03-4.55-.14-4.52.29-4.53-.22-4.5.51-4.51-.6-4.54.42-4.53-.37-4.84.54-.28,4.73.03,4.46.36,4.42-.62,4.46.58,4.48v4.39s-.22,4.42-.22,4.42l-.41,4.48.35,4.45-.32,4.43.07,4.47.37,4.46.12,4.38-.62,4.47.55,4.47-.14,4.42.13,4.43-.41,4.41v.03s.03,4.48.03,4.48l.14,5.07,5.15-.17,4.48-.18,4.51.58,4.55-.04,4.52.06h.02s4.55-.24,4.55-.24l2.89-.21,2.11-.05,3.98.46,4.56-.15,4.5-.35,4.48.33,4.54.17h.02s4.54-.09,4.54-.09l4.93-.38v-4.82s-.18-4.45-.18-4.45l-.05-4.41.49-4.47-.47-4.46ZM72.61,24l-.57-4.44.62-4.43-.37-4.48-.03-4.41.22-3.77,3.82-.42,4.52.37,4.51-.41,4.53.6,4.54-.52,4.51.22,4.53-.29,4.51.14,4.53.03,4.51-.05,4.5.1,4.55.16,4.52-.38,4,.22-.34,3.99.16,4.47.08,4.44.31,4.46.08,4.39-.61,4.48.64,4.46-.3,4.39-.13,4.45-.23,4.44v.02s.08,4.45.08,4.45v4.45s.04,4.45.04,4.45l.08,3.82-3.43-.89-4.39-1.43-4.52-1.36-4.73-.08-9.13-1.12-4.69-.29-9.23.6-4.59.52-4.69.4-4.4,1.58-4.55.89-4.05,1.68.6-4.29-.13-4.49-.37-4.45-.07-4.4.32-4.46-.35-4.44.4-4.4.23-4.46h0s-.01-4.47-.01-4.47ZM105.44,89.9l-1.47.04-.55-.06-1.66.12h-.14s-2.94-.26-2.94-.26l.51-3.23,1.16-3.96.61-4.16,1.17-3.5h.02s3.5-.13,3.5-.13l.4,3.74,1.39,3.93.82,3.95.32,3.38-3.14.13ZM99.94,71.92l-2.51,3.67-1.36-3.12-1.16-3.88-.26-4.34.96-3.17,2.26,2.08,2.76,2.92,2.35,2.33-3.04,3.5ZM103.73,69.27l2.45,2.63-.76,1.58-3.34.31h-.12s-.64-1.69-.64-1.69l2.41-2.83ZM104.83,68.45l2.45-2.47,2.99-2.71,2.2-2.12.92,3.11-.23,4.35-1.08,3.91-1.42,3.1-2.72-3.5-3.1-3.66ZM109.51,62.47l-2.99,2.71-2.61,2.63-2.5-2.48-2.77-2.93-2.83-2.61,7.67-.5,4.57.28,3.95.48-2.49,2.41ZM94.36,90.44l-4.52-.06-4.48.04-4.53-.59-4.56.18-4.04.13-.11-3.96-.04-4.41.42-4.41v-.03s-.13-4.46-.13-4.46l.14-4.47-.44-3.57.06.15,4.22-1.75,4.48-.88,4.39-1.57,4.56-.39,4.56-.52.49-.03-1.29,4.27.27,4.66,1.2,4.03,2.19,5.03,3.28-4.8.58,1.53-1.19,3.56-.6,4.14-1.16,3.95-.65,4.04-3.13.17ZM134.2,81.78l.17,4.43v3.79s-3.86.29-3.86.29l-4.49.09-4.5-.16-4.55-.33-4.55.36-2.68.09-.39-4.09-.85-4.08-1.38-3.92-.5-4.74.39-.8.06.08,3.82,4.92,2.19-4.78,1.16-4.14.25-4.66-1.16-3.9,3.87.47,4.66.09,4.37,1.32,4.4,1.43,3.74.97-.2,3.94.47,4.43-.48,4.42.05,4.49Z"/><path class="cls-2" d="M94.39,92.07h-.03l-4.53-.06-4.57.04-4.5-.58-4.43.18-5.68.19-.15-5.6-.04-4.52.42-4.43-.13-4.39.14-4.41-.56-4.5.62-4.49-.12-4.34-.37-4.47-.07-4.49.32-4.41-.35-4.45v-.04s.41-4.48.41-4.48l.23-4.4v-4.33s-.6-4.52-.6-4.52l.62-4.47-.36-4.4-.03-4.46.3-5.21,5.34-.59,4.53.37,4.55-.42h.06s4.45.6,4.45.6l4.48-.51,4.55.22,4.51-.29h.02s4.55.14,4.55.14l4.5.03,4.51-.05,4.55.1,4.47.16,4.53-.38,5.78.32-.48,5.56.15,4.38.08,4.45.31,4.43.09,4.55-.6,4.38.63,4.41-.31,4.54-.13,4.41-.23,4.43.08,4.41v4.46s.04,4.43.04,4.43l.09,4.47-.23,4.4.47,4.47-.49,4.49.05,4.38.17,4.43v5.33s-5.4.41-5.4.41l-4.58.1h-.03s-4.54-.17-4.54-.17l-4.46-.33-4.46.35-4.62.15-3.99-.46-2.07.05-2.86.2-4.57.25ZM89.83,90.95l4.53.06,4.53-.24,2.88-.2,2.17-.05,3.98.46,4.52-.15,4.52-.35h.04s4.48.33,4.48.33l4.52.17,4.52-.09,4.41-.34v-4.33s-.18-4.43-.18-4.43l-.05-4.46.49-4.44-.47-4.44.23-4.44-.09-4.44-.04-4.44v-4.46s-.08-4.43-.08-4.43v-.02s.23-4.44.23-4.44l.13-4.42.3-4.45-.64-4.44.61-4.44-.09-4.44-.31-4.43-.08-4.47-.16-4.43.39-4.54-4.62-.26-4.52.38-4.53-.16-4.51-.1-4.51.05-4.52-.03-4.53-.14-4.52.29-4.52-.22-4.52.52-4.52-.6-4.52.42-4.52-.37-4.35.48-.25,4.29.03,4.41.36,4.46-.62,4.44.58,4.48v4.39s-.22,4.45-.22,4.45l-.41,4.45.35,4.44-.32,4.44.07,4.43.37,4.45.13,4.46-.39,2.82.03.08.4-2.89-.12-4.44-.37-4.46-.07-4.42.32-4.44-.35-4.44v-.04s.41-4.4.41-4.4l.23-4.44v-4.41s-.59-4.48-.59-4.48l.62-4.44-.36-4.46-.03-4.41.25-4.25,4.31-.48,4.52.37,4.52-.42h.06s4.46.6,4.46.6l4.52-.52,4.52.22,4.52-.29,4.53.14,4.52.03,4.5-.05,4.52.1,4.53.16,4.52-.38,4.58.25-.39,4.5.16,4.43.08,4.45.31,4.43.09,4.45-.61,4.44.64,4.44-.3,4.44-.13,4.43-.23,4.45.08,4.43v4.46s.04,4.44.04,4.44l.09,4.51-4.11-1.06-4.43-1.44-4.44-1.34-4.71-.09-9.13-1.12-4.62-.29-9.2.6-4.56.52-4.64.39-4.42,1.58-4.5.88-3.78,1.57.02.04,3.83-1.57,4.44-.87,4.41-1.58h.07s4.56-.39,4.56-.39l4.83-.53h0s8.93-.58,8.93-.58l4.6.29,9.15,1.12,4.71.09,4.44,1.34,4.41,1.44,4.13,1.07-.22,4.33.47,4.44-.49,4.44.05,4.45.17,4.43v4.3s-4.35.33-4.35.33l-4.52.1-4.53-.16-4.53-.33-4.51.35-3.2.11-.43-4.55-.83-4.02-1.4-4-.52-4.89.81-1.67.59.7,3.3,4.25,1.81-3.95,1.13-4.05.24-4.51-1.22-4.1-2.87,2.77-2.99,2.71-2.96,2.99-2.87-2.85-2.77-2.92-2.96-2.72-1.25,4.13.27,4.51,1.18,3.95,1.8,4.12,3.26-4.77-.21.25-3.04,4.43-1.77-4.05-1.18-4-.26-4.44,1.23-4.06,2.91,2.68,2.77,2.92,2.69,2.67-3.07,3.53,1,2.64-1.24,3.69-.61,4.17-1.15,3.92-.71,4.43-3.57.19h-.02s-4.52-.06-4.52-.06l-4.51.04h-.04s-4.49-.59-4.49-.59l-4.52.18-4.58.15-.12-4.49-.04-4.45v-.03s.42-4.41.42-4.41l-.13-4.43.14-4.46-.47-3.8-.04.02.47,3.78-.14,4.46.13,4.43-.42,4.44.04,4.45.12,4.53,4.62-.15,4.52-.18,4.52.59,4.51-.04ZM89.84,89.86l4.51.06,2.68-.14.6-3.69,1.15-3.92.62-4.2,1.13-3.38-.15-.41-3.25,4.75-2.6-5.96-1.22-4.15-.28-4.76,1.09-3.61-4.27.48-4.51.38-4.4,1.57-4.43.87-3.84,1.59.38,3.04-.14,4.51.14,4.46v.07s-.42,4.39-.42,4.39l.04,4.39.09,3.42,3.51-.12,4.61-.18,4.54.59,4.45-.04ZM116.97,89.37h.04s4.55.34,4.55.34l4.48.16,4.46-.09,3.35-.26v-3.31s-.18-4.43-.18-4.43l-.05-4.52.48-4.39-.46-4.41.18-3.55-3.33-.86-4.43-1.44-4.28-1.29-4.64-.09-3.08-.38.96,3.22-.27,4.86-1.19,4.22-2.55,5.57-3.83-4.94.46,4.35,1.38,3.93.85,4.14.34,3.59,2.19-.07,4.57-.36ZM96.56,72.3l.97,2.22,2.02-2.94,2.72-3.13-2-1.98-2.76-2.92-1.63-1.5-.69,2.27.25,4.19,1.13,3.79ZM97.08,60.24l1.95,1.8,2.77,2.93,2.11,2.1,2.24-2.26,3-2.72,1.69-1.64-2.85-.35-4.5-.28-6.41.42ZM71.38,63.99l.02.16.02-.16-.02-.16-.02.16ZM72.59,50.61l.37,4.44.13,4.56-.48,3.42,3.3-1.35,4.51-.88,4.43-1.59,4.76-.41,4.57-.52,9.29-.61,4.72.29,9.14,1.12,4.77.08,4.59,1.38,4.41,1.43,2.73.71-.06-3.13-.04-4.45v-4.45s-.08-4.46-.08-4.46v-.03s.23-4.45.23-4.45l.13-4.44.3-4.35-.64-4.48.62-4.51-.08-4.35-.31-4.43-.08-4.47-.16-4.49.3-3.48-3.42-.19-4.51.38-4.59-.16-4.5-.1-4.5.05-4.54-.03-4.5-.14-4.53.29-4.49-.22-4.57.52-4.53-.6-4.49.41-4.51-.37-3.33.37-.19,3.33.03,4.35.37,4.52v.06s-.61,4.36-.61,4.36l.57,4.44v4.48s0,.02,0,.02l-.23,4.47-.4,4.37.34,4.43-.33,4.48.07,4.36ZM101.6,90.53l-3.53-.32.62-3.85,1.15-3.92.62-4.21,1.28-3.82.39-.04,3.99-.15.44,4.17,1.39,3.94.83,4.01.37,3.94-3.7.16-1.51.04-.54-.06-1.81.12ZM99.29,89.26l2.35.21h.11s1.68-.12,1.68-.12l.56.07,1.43-.04,2.58-.11-.27-2.8-.81-3.89-1.41-4.02-.35-3.25-2.66.1-1.04,3.11-.62,4.18-1.15,3.92-.42,2.64ZM110.77,76.62l-3.26-4.19-3.4-4.01,2.79-2.81,3.01-2.73,2.81-2.71,1.19,4.03-.25,4.55-1.11,3.98-1.78,3.89ZM105.54,68.48l2.79,3.29,2.2,2.83,1.04-2.27,1.06-3.81.22-4.2-.65-2.19-1.57,1.52-3,2.72-2.09,2.1ZM101.59,74.34l-.88-2.34,3-3.52,3.1,3.32-1.05,2.18-3.79.35-.38.02ZM101.92,72.21l.39,1.04,2.76-.26.48-.99-1.8-1.93-1.83,2.14Z"/><polygon class="cls-2" points="184.89 49.23 177.66 47.95 171.28 48.03 171.26 46.06 177.82 45.99 183.46 46.99 183.81 45.68 179.12 43.65 172.98 42.41 173.37 40.49 179.71 41.77 186.15 44.55 184.89 49.23"/><path class="cls-1" d="M205.38,68.41l.22-4.4v-.02s-.09-4.46-.09-4.46l-.04-4.44v-4.45s-.08-4.42-.08-4.42l.23-4.44.13-4.43.3-4.49-.63-4.42.6-4.41-.09-4.49-.31-4.46-.08-4.44-.16-4.41.44-5.05-5.2-.29-4.53.38-4.5-.16-4.52-.1h0s-4.52.05-4.52.05l-4.51-.03-4.55-.14-4.52.29-4.53-.22-4.5.51-4.51-.6-4.54.42-4.53-.37-4.84.54-.28,4.73.03,4.46.36,4.42-.62,4.46.58,4.48v4.39s-.22,4.42-.22,4.42l-.41,4.48.35,4.45-.32,4.43.07,4.47.37,4.46.12,4.38-.62,4.47.55,4.47-.14,4.42.13,4.43-.41,4.41v.03s.03,4.48.03,4.48l.14,5.07,5.15-.17,4.48-.18,4.51.58,4.55-.04,4.52.06h.02s4.55-.24,4.55-.24l2.89-.21,2.11-.05,3.98.46,4.56-.15,4.5-.35,4.48.33,4.54.17h.02s4.54-.09,4.54-.09l4.93-.38v-4.82s-.18-4.45-.18-4.45l-.05-4.41.49-4.47-.47-4.46ZM142.72,24l-.57-4.44.62-4.43-.37-4.48-.03-4.41.22-3.77,3.82-.42,4.52.37,4.51-.41,4.53.6,4.54-.52,4.51.22,4.53-.29,4.51.14,4.53.03,4.51-.05,4.5.1,4.55.16,4.52-.38,4,.22-.34,3.99.16,4.47.08,4.44.31,4.46.08,4.39-.61,4.48.64,4.46-.3,4.39-.13,4.45-.23,4.44v.02s.08,4.45.08,4.45v4.45s.04,4.45.04,4.45l.08,3.82-3.43-.89-4.39-1.43-4.52-1.36-4.73-.08-9.13-1.12-4.69-.29-9.23.6-4.59.52-4.69.4-4.4,1.58-4.55.89-4.05,1.68.6-4.29-.13-4.49-.37-4.45-.07-4.4.32-4.46-.35-4.44.4-4.4.23-4.46h0s-.01-4.47-.01-4.47ZM175.56,89.9l-1.47.04-.55-.06-1.66.12h-.14s-2.94-.26-2.94-.26l.51-3.23,1.16-3.96.61-4.16,1.17-3.5h.02s3.5-.13,3.5-.13l.4,3.74,1.39,3.93.82,3.95.32,3.38-3.14.13ZM170.06,71.92l-2.51,3.67-1.36-3.12-1.16-3.88-.26-4.34.96-3.17,2.26,2.08,2.76,2.92,2.35,2.33-3.04,3.5ZM173.84,69.27l2.45,2.63-.76,1.58-3.34.31h-.12s-.64-1.69-.64-1.69l2.41-2.83ZM174.94,68.45l2.45-2.47,2.99-2.71,2.2-2.12.92,3.11-.23,4.35-1.08,3.91-1.42,3.1-2.72-3.5-3.1-3.66ZM179.63,62.47l-2.99,2.71-2.61,2.63-2.5-2.48-2.77-2.93-2.83-2.61,7.67-.5,4.57.28,3.95.48-2.49,2.41ZM164.47,90.44l-4.52-.06-4.48.04-4.53-.59-4.56.18-4.04.13-.11-3.96-.04-4.41.42-4.41v-.03s-.13-4.46-.13-4.46l.14-4.47-.44-3.57.06.15,4.22-1.75,4.48-.88,4.39-1.57,4.56-.39,4.56-.52.49-.03-1.29,4.27.27,4.66,1.2,4.03,2.19,5.03,3.28-4.8.58,1.53-1.19,3.56-.6,4.14-1.16,3.95-.65,4.04-3.13.17ZM204.31,81.78l.17,4.43v3.79s-3.86.29-3.86.29l-4.49.09-4.5-.16-4.55-.33-4.55.36-2.68.09-.39-4.09-.85-4.08-1.38-3.92-.5-4.74.39-.8.06.08,3.82,4.92,2.19-4.78,1.16-4.14.25-4.66-1.16-3.9,3.87.47,4.66.09,4.37,1.32,4.4,1.43,3.74.97-.2,3.94.47,4.43-.48,4.42.05,4.49Z"/><path class="cls-2" d="M164.51,92.07h-.03l-4.53-.06-4.57.04-4.5-.58-4.43.18-5.68.19-.15-5.6-.04-4.52.42-4.43-.13-4.39.14-4.41-.56-4.5.62-4.49-.12-4.34-.37-4.47-.07-4.49.32-4.41-.35-4.45v-.04s.41-4.48.41-4.48l.23-4.4v-4.33s-.6-4.52-.6-4.52l.62-4.47-.36-4.4-.03-4.46.3-5.21,5.34-.59,4.53.37,4.55-.42h.06s4.45.6,4.45.6l4.48-.51,4.55.22,4.51-.29h.02s4.55.14,4.55.14l4.5.03,4.51-.05,4.55.1,4.47.16,4.53-.38,5.78.32-.48,5.56.15,4.38.08,4.45.31,4.43.09,4.55-.6,4.38.63,4.41-.31,4.54-.13,4.41-.23,4.43.08,4.41v4.46s.04,4.43.04,4.43l.09,4.47-.22,4.4.47,4.47-.49,4.49.05,4.38.17,4.43v5.33s-5.4.41-5.4.41l-4.58.1h-.03s-4.54-.17-4.54-.17l-4.46-.33-4.46.35-4.62.15-3.99-.46-2.07.05-2.86.2-4.57.25ZM159.95,90.95l4.53.06,4.53-.24,2.88-.2,2.17-.05,3.98.46,4.52-.15,4.52-.35h.04s4.48.33,4.48.33l4.52.17,4.52-.09,4.41-.34v-4.33s-.18-4.43-.18-4.43l-.05-4.46.49-4.44-.47-4.44.23-4.44-.09-4.44-.04-4.44v-4.46s-.08-4.43-.08-4.43v-.02s.23-4.44.23-4.44l.13-4.42.3-4.45-.64-4.44.61-4.44-.09-4.44-.31-4.43-.08-4.47-.16-4.43.39-4.54-4.62-.26-4.52.38-4.53-.16-4.51-.1-4.51.05-4.52-.03-4.53-.14-4.52.29-4.52-.22-4.52.52-4.52-.6-4.52.42-4.52-.37-4.35.48-.25,4.29.03,4.41.36,4.46v.06s-.62,4.39-.62,4.39l.58,4.48v4.39s-.22,4.45-.22,4.45l-.41,4.45.35,4.44-.32,4.44.07,4.43.37,4.45.13,4.46-.39,2.82.03.08.4-2.89-.12-4.44-.37-4.46-.07-4.42.32-4.44-.35-4.44v-.04s.41-4.4.41-4.4l.23-4.44v-4.41s-.59-4.48-.59-4.48l.62-4.44-.36-4.46-.03-4.41.25-4.25,4.31-.48,4.52.37,4.52-.42h.06s4.46.6,4.46.6l4.52-.52,4.52.22,4.52-.29,4.53.14,4.52.03,4.5-.05,4.52.1,4.53.16,4.52-.38,4.58.25-.39,4.5.16,4.43.08,4.45.31,4.43.09,4.45-.61,4.44.64,4.44-.3,4.44-.13,4.43-.23,4.45.08,4.43v4.46s.04,4.44.04,4.44l.09,4.51-4.11-1.06-4.43-1.44-4.44-1.34-4.71-.09-9.13-1.12-4.62-.29-9.2.6-4.56.52-4.64.39-4.42,1.58-4.5.88-3.78,1.57.02.04,3.83-1.57,4.44-.87,4.41-1.58h.07s4.56-.39,4.56-.39l4.83-.53h0s8.93-.58,8.93-.58l4.6.29,9.15,1.12,4.71.09,4.44,1.34,4.41,1.44,4.13,1.07-.22,4.33.47,4.44-.49,4.44.05,4.45.17,4.43v4.3s-4.35.33-4.35.33l-4.52.1-4.53-.16-4.53-.33-4.51.35-3.2.11-.43-4.55-.83-4.02-1.4-4-.52-4.89.81-1.67.59.7,3.3,4.25,1.81-3.95,1.13-4.05.24-4.51-1.22-4.1-2.87,2.77-2.99,2.71-2.96,2.99-2.87-2.85-2.77-2.92-2.96-2.72-1.25,4.13.27,4.51,1.18,3.95,1.8,4.12,3.26-4.77-.22.25-3.03,4.43-1.77-4.05-1.18-4-.26-4.44,1.23-4.06,2.91,2.68,2.77,2.92,2.69,2.67-3.07,3.53,1,2.64-1.24,3.69-.61,4.17-1.15,3.92-.71,4.43-3.57.19h-.02s-4.52-.06-4.52-.06l-4.51.04h-.04s-4.49-.59-4.49-.59l-4.52.18-4.58.15-.12-4.49-.04-4.45v-.03s.42-4.41.42-4.41l-.13-4.43.14-4.46-.47-3.8-.04.02.47,3.78-.14,4.46.13,4.43-.42,4.44.04,4.45.12,4.53,4.62-.15,4.52-.18,4.52.59,4.51-.04ZM159.95,89.86l4.51.06,2.68-.14.6-3.69,1.15-3.92.61-4.2,1.13-3.38-.15-.41-3.25,4.75-2.6-5.96-1.22-4.15-.28-4.76,1.09-3.61-4.27.48-4.51.38-4.4,1.57-4.43.87-3.84,1.59.38,3.04-.14,4.51.14,4.46v.07s-.42,4.39-.42,4.39l.04,4.39.09,3.42,3.51-.12,4.61-.18,4.54.59,4.45-.04ZM187.08,89.37h.04s4.55.34,4.55.34l4.48.16,4.46-.09,3.35-.26v-3.31s-.18-4.43-.18-4.43l-.05-4.52.48-4.39-.46-4.41.18-3.55-3.33-.86-4.43-1.44-4.28-1.29-4.64-.09-3.08-.38.96,3.22-.27,4.86-1.19,4.22-2.55,5.57-3.84-4.94.46,4.35,1.38,3.93.85,4.14.34,3.59,2.19-.07,4.57-.36ZM166.68,72.3l.97,2.22,2.01-2.94,2.72-3.13-2-1.98-2.76-2.92-1.63-1.5-.69,2.27.25,4.19,1.13,3.79ZM167.2,60.24l1.95,1.8,2.77,2.93,2.11,2.1,2.24-2.26,3-2.72,1.69-1.64-2.85-.35-4.5-.28-6.41.42ZM141.49,63.99l.02.16.02-.16-.02-.16-.02.16ZM142.71,50.61l.37,4.44.13,4.56-.48,3.42,3.3-1.36,4.51-.88,4.43-1.59,4.76-.41,4.57-.52,9.29-.61,4.72.29,9.14,1.12,4.77.08,4.59,1.38,4.41,1.43,2.73.71-.06-3.13-.04-4.45v-4.45s-.08-4.46-.08-4.46v-.03s.23-4.45.23-4.45l.13-4.44.29-4.35-.64-4.48.62-4.51-.08-4.35-.31-4.43-.08-4.47-.16-4.49.3-3.48-3.42-.19-4.51.38-4.59-.16-4.5-.1-4.5.05-4.54-.03-4.5-.14-4.53.29-4.49-.22-4.57.52-4.53-.6-4.49.41-4.51-.37-3.33.37-.19,3.33.03,4.35.37,4.52-.61,4.42.57,4.44v4.47s-.22,4.49-.22,4.49l-.4,4.37.34,4.43-.33,4.48.07,4.36ZM171.72,90.53l-3.53-.32.62-3.85,1.15-3.92.62-4.21,1.28-3.82.39-.04,3.99-.15.44,4.17,1.39,3.94.83,4.01.37,3.94-3.7.16-1.51.04-.54-.06-1.81.12ZM169.4,89.26l2.35.21h.11s1.68-.12,1.68-.12l.56.07,1.43-.04,2.58-.11-.27-2.8-.81-3.89-1.41-4.02-.35-3.25-2.66.1-1.04,3.11-.62,4.18-1.15,3.92-.42,2.64ZM180.88,76.62l-3.26-4.19-3.4-4.01,2.79-2.81,3.01-2.73,2.81-2.71,1.19,4.03-.25,4.55-1.11,3.98-1.78,3.89ZM175.66,68.48l2.79,3.29,2.2,2.83,1.04-2.27,1.06-3.81.22-4.2-.65-2.19-1.57,1.52-3,2.72-2.09,2.1ZM171.71,74.34l-.88-2.34,3-3.52,3.1,3.32-1.05,2.18-3.79.35-.38.02ZM172.03,72.21l.39,1.04,2.76-.26.48-.99-1.8-1.93-1.83,2.14Z"/><path class="cls-2" d="M164.52,42.59l-4.36-1.52-3.2-3.51-1.76-4.42-.56-4.71.67-4.71,2.08-4.19,2.51-4.01,4.65-1.47,4.63,1.46,2.76,3.95,1.33,4.43.83,4.53-.81,4.61-1.43,4.31-2.73,3.93-4.6,1.3ZM160.78,40.13l3.77,1.32,3.89-1.1,2.42-3.48,1.37-4.13.75-4.3-.79-4.31-1.26-4.17-2.44-3.5-3.95-1.25-3.94,1.24-2.28,3.64-1.96,3.96-.62,4.39.53,4.43,1.63,4.1,2.88,3.16Z"/><path class="cls-2" d="M164.5,43.15l-4.64-1.62-3.36-3.68-1.83-4.64-.57-4.78.69-4.86,2.14-4.31,2.61-4.17,4.99-1.58,4.97,1.57,2.91,4.17,1.37,4.57.84,4.62-.84,4.78-1.45,4.39-2.88,4.15-4.94,1.39ZM160.46,40.62l4.07,1.42,4.26-1.2,2.58-3.72,1.39-4.2.78-4.48-.8-4.41-1.3-4.32-2.61-3.74-4.31-1.36-4.3,1.36-2.39,3.82-2.03,4.09-.64,4.55.55,4.57,1.7,4.27,3.05,3.34ZM164.53,42l-4.05-1.42-3.04-3.33-1.7-4.32-.54-4.5.64-4.54,2.02-4.08,2.38-3.81,4.28-1.35,4.28,1.35,2.6,3.72,1.3,4.31.8,4.4-.78,4.47-1.39,4.2-2.57,3.7-4.23,1.19ZM161.08,39.68l3.49,1.22,3.55-1,2.27-3.26,1.33-4.02.72-4.17-.76-4.18-1.22-4.07-2.29-3.29-3.62-1.14-3.59,1.14-2.16,3.45-1.91,3.86-.6,4.24.51,4.29,1.57,3.95,2.73,2.99Z"/><path class="cls-2" d="M182.55,42.93l-4.49-1.72-3.15-3.64-1.29-4.56-.77-4.56.63-4.68,1.32-4.53,3.25-3.59,4.54-1.96,4.38,2.13,3.29,3.43,1.69,4.48.45,4.73-.94,4.57-1.16,4.53-3,3.9-4.74,1.46ZM178.71,40.29l3.88,1.49,4.04-1.25,2.65-3.45,1.1-4.3.9-4.38-.42-4.42-1.56-4.14-3-3.13-3.75-1.83-3.86,1.67-2.92,3.23-1.24,4.25-.59,4.39.74,4.37,1.2,4.24,2.82,3.25Z"/><path class="cls-2" d="M182.53,43.49l-4.78-1.83-3.32-3.83-1.34-4.73-.79-4.64.66-4.84,1.36-4.64,3.4-3.76,4.87-2.1,4.68,2.28,3.43,3.58,1.76,4.65.46,4.88-.95,4.65-1.19,4.66-3.17,4.12-5.07,1.56ZM178.37,40.77l4.2,1.61,4.4-1.36,2.83-3.69,1.13-4.43.92-4.47-.43-4.58-1.63-4.31-3.15-3.28-4.07-1.99-4.21,1.82-3.09,3.41-1.28,4.37-.62,4.56.76,4.46,1.25,4.42,2.99,3.46ZM182.57,42.34l-4.18-1.6-2.98-3.44-1.25-4.41-.75-4.45.62-4.55,1.28-4.36,3.08-3.4,4.19-1.81,4.05,1.98,3.14,3.27,1.62,4.3.43,4.57-.91,4.45-1.13,4.43-2.82,3.67-4.38,1.35ZM179.02,39.85l3.59,1.38,3.71-1.14,2.49-3.23,1.07-4.2.88-4.27-.4-4.27-1.5-3.97-2.86-2.98-3.45-1.68-3.53,1.52-2.76,3.05-1.2,4.09-.57,4.28.72,4.26,1.16,4.1,2.65,3.07Z"/><polygon class="cls-2" points="171.59 14.68 168.17 12.8 164.51 12.11 161.29 12.34 161.22 11.25 164.57 11.01 168.54 11.76 172.11 13.72 171.59 14.68"/><path class="cls-2" d="M171.8,15.4l-3.81-2.09-3.51-.66-3.67.26-.15-2.14,3.95-.28,4.12.78,4.11,2.26-1.03,1.88ZM164.54,11.58l3.81.72,3.03,1.66.02-.03-3.04-1.67-3.82-.72-2.76.2v.04s2.76-.2,2.76-.2Z"/><rect class="cls-2" x="155.82" y="12.64" width="3.53" height="1.09" transform="translate(9.46 68.56) rotate(-25.28)"/><path class="cls-2" d="M155.97,15.14l-.92-1.94,4.15-1.96.92,1.94-4.15,1.96ZM156.46,13.7l.02.03,2.24-1.06-.02-.03-2.24,1.06Z"/><polygon class="cls-2" points="175.44 14.62 174.92 13.65 178.53 11.72 182.55 10.75 185.89 11.46 185.67 12.53 182.57 11.87 178.92 12.75 175.44 14.62"/><path class="cls-2" d="M175.23,15.33l-1.01-1.89,4.2-2.23,4.14-1,3.97.84-.45,2.1-3.5-.74-3.46.84-3.89,2.08ZM175.64,13.87l.02.03,3.14-1.67,3.76-.91,2.7.57v-.04s-2.7-.57-2.7-.57l-3.84.93-3.08,1.65Z"/><rect class="cls-2" x="188.67" y="11.91" width="1.09" height="3.55" transform="translate(72.74 163.42) rotate(-56.26)"/><path class="cls-2" d="M190.53,15.85l-3.83-2.56,1.19-1.78,3.83,2.56-1.19,1.79ZM188.17,13.01l2.07,1.38.02-.03-2.07-1.38-.02.03Z"/><polygon class="cls-2" points="43.67 49.26 36.38 47.97 29.95 48.04 29.93 46.06 36.55 45.99 42.23 46.99 42.59 45.68 37.85 43.63 31.67 42.38 32.06 40.44 38.45 41.73 44.94 44.54 43.67 49.26"/><path class="cls-1" d="M65.47,68.59l.23-4.44v-.02s-.09-4.49-.09-4.49l-.05-4.47v-4.49s-.08-4.46-.08-4.46l.23-4.47.13-4.47.31-4.53-.64-4.46.61-4.44-.09-4.52-.31-4.49-.08-4.47-.16-4.44.44-5.09-5.24-.29-4.56.38-4.53-.16-4.56-.1h0s-4.56.05-4.56.05l-4.54-.03-4.58-.14-4.55.29-4.57-.22-4.53.52-4.55-.61-4.57.42-4.56-.37L1.12,1.12l-.28,4.77.03,4.5.36,4.46-.62,4.49.59,4.52v4.43s-.22,4.45-.22,4.45l-.41,4.51.35,4.48-.32,4.46.07,4.5.38,4.5.12,4.42-.63,4.51.56,4.51-.14,4.45.13,4.46-.42,4.44v.03s.03,4.52.03,4.52l.14,5.11,5.19-.17,4.51-.18,4.55.59,4.58-.04,4.56.06h.02s4.59-.25,4.59-.25l2.91-.21,2.13-.05,4.02.46,4.6-.15,4.54-.36,4.52.33,4.58.17h.02s4.57-.09,4.57-.09l4.97-.38v-4.86s-.18-4.48-.18-4.48l-.05-4.45.49-4.51-.47-4.5ZM2.31,23.82l-.58-4.48.62-4.47-.37-4.52-.03-4.44.22-3.8,3.85-.43,4.55.37,4.54-.42,4.56.61,4.58-.52,4.54.22,4.56-.29,4.54.14,4.57.03,4.55-.05,4.54.1,4.59.16,4.55-.38,4.03.22-.35,4.02.16,4.5.08,4.48.31,4.49.09,4.42-.62,4.51.64,4.5-.3,4.42-.13,4.49-.23,4.48v.02s.08,4.49.08,4.49v4.48s.04,4.48.04,4.48l.08,3.85-3.46-.9-4.43-1.44-4.56-1.37-4.77-.08-9.21-1.12-4.72-.29-9.31.61-4.63.52-4.73.4-4.44,1.6-4.59.9-4.08,1.69.6-4.33-.13-4.52-.38-4.49-.07-4.44.33-4.5-.35-4.47.41-4.43.24-4.5v-.02s-.01-4.49-.01-4.49ZM35.41,90.26l-1.48.04-.56-.06-1.67.12h-.14s-2.97-.26-2.97-.26l.52-3.25,1.17-3.99.61-4.19,1.18-3.53h.02s3.53-.14,3.53-.14l.4,3.77,1.4,3.97.83,3.99.32,3.41-3.16.13ZM29.87,72.13l-2.54,3.7-1.38-3.15-1.17-3.91-.26-4.38.96-3.19,2.28,2.1,2.79,2.95,2.37,2.35-3.06,3.53ZM33.68,69.46l2.47,2.65-.77,1.6-3.37.32h-.12s-.64-1.71-.64-1.71l2.43-2.85ZM34.79,68.63l2.47-2.49,3.01-2.73,2.21-2.14.93,3.13-.23,4.38-1.09,3.94-1.43,3.12-2.74-3.53-3.12-3.69ZM39.51,62.6l-3.01,2.73-2.63,2.65-2.52-2.5-2.79-2.95-2.86-2.63,7.73-.5,4.6.29,3.98.49-2.51,2.43ZM24.23,90.8l-4.55-.06-4.52.04-4.57-.59-4.6.18-4.08.14-.11-3.99-.04-4.45.42-4.45v-.03s-.13-4.5-.13-4.5l.14-4.5-.45-3.6.06.15,4.25-1.76,4.52-.88,4.42-1.58,4.6-.39,4.6-.52.5-.03-1.3,4.3.28,4.7,1.21,4.07,2.21,5.07,3.31-4.84.58,1.55-1.2,3.58-.6,4.17-1.17,3.98-.65,4.08-3.15.17ZM64.4,82.06l.17,4.47v3.83s-3.89.3-3.89.3l-4.53.09-4.53-.17-4.59-.34-4.59.36-2.71.09-.39-4.12-.85-4.11-1.39-3.95-.51-4.78.39-.81.07.08,3.85,4.96,2.21-4.82,1.17-4.18.25-4.7-1.17-3.94,3.9.48,4.7.09,4.4,1.33,4.43,1.44,3.77.98-.2,3.97.47,4.46-.49,4.45.05,4.53Z"/><path class="cls-2" d="M24.27,92.44h-.03l-4.56-.06-4.61.04-4.54-.59-4.47.18-5.73.19-.15-5.64-.04-4.55.42-4.47-.13-4.43.14-4.44-.56-4.54.63-4.53-.12-4.37-.38-4.51-.07-4.53.32-4.45-.35-4.49v-.04s.42-4.51.42-4.51l.23-4.43v-4.37S.08,19.34.08,19.34l.63-4.51-.36-4.44-.03-4.5L.62.65,6,.05l4.57.37,4.59-.42h.06s4.49.6,4.49.6L24.21.09l4.58.22L33.34.02h.02s4.58.14,4.58.14l4.53.03,4.55-.05,4.58.1,4.51.16L60.69,0l5.83.32-.48,5.6.16,4.41.08,4.48.31,4.46.09,4.59-.6,4.41.64,4.44-.31,4.58-.13,4.45-.23,4.47.08,4.44v4.5s.04,4.47.04,4.47l.09,4.51v.02s-.23,4.4-.23,4.4l.47,4.51-.5,4.53.05,4.41.17,4.47v5.37s-5.45.42-5.45.42l-4.62.1h-.03s-4.57-.17-4.57-.17l-4.49-.33-4.5.35-4.66.16-4.02-.47-2.09.05-2.88.21-4.61.25ZM19.68,91.32l4.57.06,4.57-.25,2.9-.21,2.19-.05,4.01.46,4.56-.15,4.56-.36h.04s4.52.33,4.52.33l4.56.17,4.56-.1,4.45-.34v-4.37s-.18-4.46-.18-4.46l-.05-4.49.49-4.48-.47-4.48.23-4.48-.09-4.47-.05-4.48v-4.49s-.08-4.47-.08-4.47v-.02s.23-4.47.23-4.47l.13-4.46.3-4.49-.64-4.48.61-4.48-.09-4.48-.31-4.47-.08-4.5-.16-4.47.39-4.58-4.66-.26-4.56.38-4.56-.16-4.55-.1-4.55.05-4.55-.03-4.57-.14-4.56.29-4.56-.22-4.56.52-4.56-.61-4.56.42-4.56-.37-4.39.48-.25,4.32.03,4.44.37,4.5-.62,4.48.58,4.51v4.43s-.22,4.48-.22,4.48l-.41,4.49.35,4.48-.33,4.48.07,4.46.38,4.48.13,4.49-.39,2.84.03.08.4-2.91-.13-4.48-.38-4.5-.07-4.46.33-4.48-.35-4.48v-.04s.41-4.43.41-4.43l.23-4.48v-4.45s-.59-4.51-.59-4.51l.62-4.48-.37-4.5-.03-4.44.25-4.29,4.35-.48,4.56.37,4.56-.42h.06s4.5.61,4.5.61l4.56-.52,4.56.22,4.56-.29,4.57.14,4.55.03,4.54-.05,4.56.1,4.57.16,4.56-.38,4.61.26-.39,4.54.16,4.47.08,4.49.31,4.47.09,4.49-.61,4.48.64,4.48-.3,4.48-.13,4.47-.23,4.49.08,4.47v4.49s.04,4.48.04,4.48l.09,4.55-4.14-1.07-4.46-1.45-4.48-1.35-4.75-.09-9.21-1.12-4.66-.29-9.28.6-4.6.52-4.67.4-4.45,1.59-4.53.89-3.81,1.58.02.04,3.86-1.59,4.48-.88,4.45-1.59h.07s4.6-.4,4.6-.4l4.87-.54h0s9-.59,9-.59l4.64.29,9.22,1.13,4.74.09,4.47,1.35,4.45,1.45,4.16,1.08-.22,4.36.47,4.48-.49,4.48.05,4.49.17,4.46v4.34s-4.38.34-4.38.34l-4.56.1-4.56-.17-4.57-.33-4.55.36-3.23.11-.44-4.59-.84-4.05-1.41-4.04-.52-4.93.81-1.68.59.7,3.33,4.29,1.82-3.99,1.14-4.08.24-4.55-1.23-4.13-2.89,2.8-3.01,2.73-2.99,3.01-2.89-2.87-2.79-2.95-2.98-2.75-1.26,4.17.27,4.55,1.19,3.98,1.81,4.16,3.28-4.81-.22.25-3.06,4.47-1.78-4.09-1.19-4.03-.26-4.47,1.24-4.09,2.93,2.7,2.79,2.95,2.71,2.69-3.09,3.56,1.01,2.67-1.25,3.72-.61,4.2-1.16,3.95-.72,4.47-3.6.19h-.02s-4.55-.06-4.55-.06l-4.54.04h-.04s-4.52-.59-4.52-.59l-4.56.18-4.62.15-.12-4.52-.04-4.49v-.03s.42-4.45.42-4.45l-.13-4.46.14-4.5-.48-3.83-.04.02.47,3.81-.14,4.49.14,4.46-.42,4.48.04,4.49.12,4.56,4.66-.15,4.55-.18,4.56.59,4.55-.04ZM19.68,90.21l4.55.06,2.7-.15.6-3.72,1.16-3.95.62-4.23,1.14-3.4-.16-.41-3.27,4.79-2.62-6.01-1.23-4.19-.28-4.8,1.1-3.64-4.31.49-4.55.39-4.43,1.58-4.47.87-3.87,1.6.38,3.06-.14,4.55.14,4.49v.07s-.42,4.42-.42,4.42l.04,4.42.09,3.44,3.54-.12,4.64-.18,4.57.59,4.48-.04ZM47.03,89.71h.04s4.59.34,4.59.34l4.51.16,4.5-.09,3.38-.26v-3.33s-.18-4.46-.18-4.46l-.05-4.56.49-4.43-.47-4.45.18-3.58-3.35-.87-4.47-1.45-4.32-1.3-4.68-.09-3.1-.38.96,3.25-.27,4.9-1.19,4.26-2.57,5.62-3.87-4.98.47,4.39,1.39,3.96.86,4.17.34,3.62,2.21-.07,4.6-.36ZM26.46,72.51l.98,2.24,2.03-2.96,2.74-3.15-2.01-2-2.79-2.95-1.64-1.51-.69,2.29.25,4.22,1.14,3.82ZM26.98,60.35l1.97,1.82,2.79,2.95,2.13,2.11,2.26-2.28,3.02-2.74,1.71-1.65-2.88-.35-4.54-.28-6.46.42ZM1.07,64.13l.02.16.02-.16-.02-.16-.02.16ZM2.3,50.64l.38,4.47.13,4.6-.48,3.45,3.33-1.37,4.55-.89,4.47-1.61,4.8-.41,4.61-.52,9.37-.61,4.76.3,9.21,1.12,4.81.09,4.63,1.4,4.44,1.45,2.75.71-.06-3.15-.05-4.49v-4.49s-.08-4.5-.08-4.5l.23-4.51.13-4.48.3-4.39-.65-4.52.62-4.55-.08-4.38-.31-4.47-.08-4.51-.16-4.52.3-3.51-3.44-.19-4.55.38-4.62-.16-4.53-.1-4.53.05-4.58-.03-4.53-.14-4.57.29-4.53-.22-4.6.53-4.57-.61-4.53.42-4.55-.37-3.35.37-.2,3.35.03,4.39.37,4.56v.06s-.62,4.4-.62,4.4l.57,4.47v4.51s-.23,4.53-.23,4.53l-.4,4.41.35,4.47-.33,4.51.07,4.39ZM31.54,90.88l-3.56-.32.62-3.88,1.16-3.95.63-4.25,1.29-3.85.39-.04,4.02-.15.45,4.2,1.4,3.98.84,4.04.38,3.97-3.73.16-1.52.04-.54-.06-1.82.12ZM29.2,89.61l2.37.21h.11s1.7-.12,1.7-.12l.57.07,1.44-.04,2.6-.11-.27-2.82-.82-3.92-1.42-4.05-.35-3.28-2.68.1-1.05,3.14-.62,4.22-1.16,3.96-.42,2.66ZM40.78,76.87l-3.28-4.22-3.43-4.04,2.81-2.83,3.03-2.75,2.83-2.74,1.2,4.06-.26,4.59-1.12,4.02-1.8,3.92ZM35.51,68.66l2.81,3.32,2.22,2.86,1.05-2.29,1.07-3.84.22-4.24-.65-2.2-1.58,1.53-3.02,2.74-2.1,2.12ZM31.53,74.57l-.89-2.36,3.02-3.54,3.13,3.35-1.06,2.19-3.82.35-.38.02ZM31.86,72.42l.39,1.04,2.78-.26.48-1-1.82-1.95-1.84,2.16Z"/><polygon class="cls-2" points="36.23 18.34 35.28 17.78 37.41 14.16 41.24 12.29 45.29 11.53 49.28 12.4 49.04 13.47 45.27 12.65 41.59 13.34 38.19 15.01 36.23 18.34"/><path class="cls-2" d="M36.42,19.07l-1.87-1.1,2.48-4.21,4.03-1.98,4.23-.79,4.61,1.01-.46,2.11-4.18-.91-3.51.66-3.19,1.56-2.15,3.65ZM36.01,17.59l.03.02,1.77-3.01,3.6-1.77,3.86-.72,3.36.73v-.04s-3.35-.74-3.35-.74l-3.87.73-3.62,1.78-1.78,3.02Z"/><polygon class="cls-2" points="29.82 18.68 27.6 15.55 24.56 13.38 20.9 12.55 17.13 13.42 16.88 12.35 20.9 11.42 25.02 12.36 28.39 14.76 30.72 18.05 29.82 18.68"/><path class="cls-2" d="M29.69,19.43l-2.48-3.49-2.87-2.06-3.44-.78-4.18.96-.48-2.11,4.66-1.07,4.35.98,3.52,2.52,2.69,3.79-1.77,1.25ZM20.9,12.01l3.88.88,3.19,2.29,1.97,2.77.03-.02-1.97-2.78-3.2-2.29-3.9-.88-3.38.78v.04s3.38-.78,3.38-.78Z"/><path class="cls-2" d="M42.09,42.64l-4.41-1.8-3.03-3.61-1.8-4.39-.41-4.71.68-4.65,1.3-4.49,2.93-3.97,4.78-1.46,4.36,1.92,2.99,3.59,2.05,4.31.5,4.79v.08s-.89,4.59-.89,4.59l-1.42,4.47-3.16,3.62-4.48,1.71ZM38.35,39.92l3.75,1.53,3.81-1.46,2.83-3.24,1.34-4.22.84-4.42-.47-4.44-1.91-4.01-2.74-3.28-3.75-1.65-4.04,1.23-2.6,3.52-1.23,4.27-.64,4.41.39,4.42,1.67,4.07,2.74,3.27Z"/><path class="cls-2" d="M42.09,43.21l-4.72-1.93-3.16-3.78-1.86-4.54-.42-4.86.7-4.78,1.32-4.58,3.09-4.19,5.14-1.57,4.65,2.05,3.14,3.8,2.09,4.39.52,4.95-.92,4.81-1.46,4.58-3.32,3.8-4.8,1.83ZM38.01,40.4l4.09,1.67,4.16-1.59,3-3.44,1.38-4.33.87-4.56-.49-4.62-1.99-4.17-2.87-3.44-4.07-1.79-4.42,1.35-2.77,3.75-1.26,4.37-.66,4.55.4,4.57,1.74,4.24,2.89,3.45ZM42.1,42.02l-4.07-1.66-2.88-3.44-1.73-4.22-.4-4.56.66-4.54,1.26-4.36,2.76-3.74,4.4-1.34,4.04,1.78,2.89,3.49,1.95,4.1.49,4.61-.87,4.56-1.38,4.33-2.99,3.42-4.13,1.58ZM38.68,39.48l3.44,1.4,3.49-1.33,2.67-3.06,1.3-4.08.82-4.31-.45-4.27-1.84-3.87-2.61-3.14-3.45-1.52-3.68,1.12-2.43,3.3-1.19,4.14-.62,4.31.37,4.28,1.61,3.92,2.6,3.11Z"/><path class="cls-2" d="M24.05,42.56l-4.41-1.69-3.19-3.56-1.68-4.49-.12-4.68h0s.09-4.7.09-4.7l1.77-4.43,2.88-3.87,4.68-1.9,4.64,1.97,2.72,3.92.02.06,1.74,4.29.33,4.68-.61,4.6-1.6,4.31-2.58,4.06-4.68,1.44ZM20.29,39.94l3.8,1.46,3.93-1.21,2.3-3.62,1.52-4.09.58-4.36-.31-4.4-1.65-4.07-2.47-3.56-3.92-1.67-3.97,1.61-2.61,3.51-1.64,4.11-.08,4.47.12,4.47,1.54,4.13,2.87,3.21Z"/><path class="cls-2" d="M24.03,43.13l-4.7-1.8-3.34-3.73-1.75-4.67-.13-4.79v-.03s.09-4.78.09-4.78l1.83-4.59,3.02-4.05,5.03-2.04,4.98,2.12,2.89,4.21,1.77,4.37.34,4.82-.65,4.76-1.65,4.41-2.68,4.22-5.04,1.55ZM19.96,40.43l4.11,1.58,4.32-1.33,2.44-3.85,1.56-4.2.6-4.48-.32-4.55-1.71-4.21-2.6-3.74-4.29-1.83-4.34,1.76-2.75,3.7-1.7,4.28-.09,4.59.12,4.58,1.61,4.32,3.04,3.39ZM24.07,41.96l-4.09-1.57-3.03-3.38-1.61-4.3-.12-4.56.09-4.59,1.7-4.27,2.74-3.69,4.32-1.75,4.27,1.82,2.61,3.79,1.68,4.15.32,4.54-.62,4.53-1.57,4.19-2.4,3.78-4.29,1.32ZM20.6,39.49l3.51,1.34,3.57-1.1,2.16-3.41,1.48-3.98.57-4.25-.3-4.26-1.6-3.94-2.35-3.38-3.58-1.52-3.63,1.48-2.48,3.34-1.58,3.96-.08,4.38.12,4.36,1.48,3.95,2.72,3.04Z"/><path class="cls-2" d="M26.57,21.49l-5.01-.2-4.99.09c-.3,0-.55-.24-.56-.54s.24-.55.54-.56l5.02-.09,5,.2,4.99-.14c.31,0,.56.23.57.54,0,.3-.23.56-.54.57l-5.02.14Z"/><path class="cls-2" d="M26.57,22.03l-5.03-.2-4.96.09c-.29,0-.56-.1-.77-.3-.21-.2-.33-.47-.33-.76,0-.29.1-.56.3-.77.2-.21.47-.33.76-.33l5.02-.09,5.01.2,4.97-.14c.61-.02,1.09.46,1.11,1.05.02.6-.46,1.1-1.05,1.11l-5.04.14ZM21.55,20.76l5.02.2,5.01-.14-.02-.57v.53s-4.99.14-4.99.14l-5.02-.2-4.99.09h0v.04l4.99-.09Z"/><path class="cls-2" d="M45.97,21.76h-.02s-3.87-.09-3.87-.09l-3.86-.2-3.85.08s0,0-.01,0c-.3,0-.54-.24-.55-.54,0-.3.23-.56.54-.56l3.89-.08h.02s3.87.2,3.87.2l3.83.08,3.85-.15c.31-.01.56.23.57.53.01.3-.22.56-.53.57l-3.88.15Z"/><path class="cls-2" d="M45.97,22.29l-3.9-.09-3.86-.2-3.85.08c-.58,0-1.07-.48-1.08-1.06-.01-.6.46-1.09,1.06-1.11l3.91-.08,3.91.2,3.82.08,3.82-.15c.29,0,.56.09.78.28.21.2.34.46.35.76.02.6-.44,1.1-1.04,1.12l-3.9.15ZM38.23,20.93l3.88.2,3.85.09,3.87-.15v-.03s-3.85.15-3.85.15l-3.87-.08-3.88-.2-3.87.08v.04s3.87-.08,3.87-.08Z"/></g></svg>