<?xml version="1.0" encoding="UTF-8"?>
<svg id="_레이어_2" data-name=" 레이어 2" xmlns="http://www.w3.org/2000/svg" version="1.1" viewBox="0 0 166.6 96.5">
  <defs>
    <style>
      .cls-1 {
        fill: #47ac49;
        stroke-width: 0px;
      }

      .cls-2 {
        fill: none;
        stroke: #0e0e0e;
        stroke-miterlimit: 10;
        stroke-width: .2px;
      }
    </style>
  </defs>
  <g id="_레이어_1-2" data-name=" 레이어 1-2">
    <polygon class="cls-1" points="87.8 11.2 92 18 96.1 25 103 22.8 109.7 21.8 115.9 20.2 114.8 26.1 113.9 32.9 121.7 33.3 129.2 34.3 136.5 34.4 130.6 39 124.6 44.1 131.5 46.2 137.9 49.5 144 51.7 138.2 53.2 131.6 54.2 124.9 56.2 129.8 59.8 133.8 64.1 138.1 67.7 130.7 67.5 123.2 66.8 115.7 66.3 117.3 72.9 118.8 79.4 112 77.2 105.2 74.6 98.5 71.9 95.4 78.2 90.8 83.1 86.3 79.7 82.1 75.6 77.5 71.7 72 74.5 66.3 76.5 61.2 78.4 59.3 72.5 57.7 65.5 50.1 66.7 42.8 66.7 36.1 67 39 61.5 42.4 56.2 35.5 54.5 28.1 53.1 20.5 51.2 26.6 49.2 31.6 45.7 36.8 43.7 31.6 40.2 26 36.8 19.9 33.7 27.3 33.1 34.6 33.3 41.6 32.1 37.3 26.1 33.6 19.5 40.9 20.7 48.3 21.9 55.8 24.6 56.5 17.8 57.8 11.3 63.8 14.5 69.1 18.5 75.2 21.5 81.5 16.4 87.8 11.2"/>
  </g>
  <g>
    <path class="cls-2" d="M46,41.2c1.5-.7,2.7-1.1,2.8-2.3.1-1.1-.7-1.3-1.3-1.4-.7,0-1.5.3-1.6,1.5v.2s-2.6-.2-2.6-.2v-.3c.2-2,1.4-3.7,4.3-3.5,2.7.2,3.9,1.7,3.8,3.6-.2,2.3-2,3.1-3.4,3.7-1.7.8-2.2,1.3-2.2,1.9h0s5.1.4,5.1.4v2.2c-.1,0-8.3-.5-8.3-.5v-.6c.2-2.1.8-3.5,3.3-4.8Z"/>
    <path class="cls-2" d="M52.4,41.5c.3-4.4,2.8-5.7,5-5.5,2.2.1,4.5,1.7,4.2,6.1-.3,4.5-2.8,5.7-5,5.6-2.2-.1-4.5-1.7-4.2-6.2ZM59.1,41.9c.1-1.7-.2-3.6-1.8-3.7-1.7-.1-2.2,1.7-2.3,3.5-.1,1.8.2,3.7,1.8,3.8,1.7.1,2.2-1.7,2.3-3.5Z"/>
    <path class="cls-2" d="M65.5,42.5c1.5-.7,2.7-1.1,2.8-2.3.1-1.1-.7-1.3-1.3-1.4-.7,0-1.5.3-1.6,1.5v.2s-2.6-.2-2.6-.2v-.3c.2-2,1.4-3.7,4.3-3.5,2.7.2,3.9,1.7,3.8,3.6-.2,2.3-2,3.1-3.4,3.7-1.7.8-2.2,1.3-2.2,1.9h0s5.1.4,5.1.4v2.2c-.1,0-8.3-.5-8.3-.5v-.6c.2-2.1.8-3.5,3.3-4.8Z"/>
    <path class="cls-2" d="M76.3,46.2l-4.8-.3v-2.1c.1,0,5.4-6.4,5.4-6.4l2.7.2-.4,6.7h1.3c0,0-.1,2.2-.1,2.2h-1.3c0,0-.2,2.5-.2,2.5l-2.7-.2.2-2.6ZM76.4,44.1l.2-3.5-2.8,3.3,2.5.2Z"/>
    <path class="cls-2" d="M85.9,38l2.8.2,3.7,7.3h0s.5-7,.5-7l2.7.2-.8,11.4-2.9-.2-3.7-7.1h0s-.4,6.8-.4,6.8l-2.7-.2.8-11.4Z"/>
    <path class="cls-2" d="M97.5,38.7l7.9.5-.2,2.4-5.2-.3v2.2c-.1,0,4.6.3,4.6.3v2.1c-.1,0-4.9-.3-4.9-.3l-.2,2.3,5.4.4-.2,2.4-8.1-.5.8-11.4Z"/>
    <path class="cls-2" d="M106.3,39.3l2.8.2,1.2,7.6h0s2.5-7.4,2.5-7.4l2.8.2,1.5,7.7h0s2.2-7.4,2.2-7.4l2.8.2-3.7,11.2-2.8-.2-1.7-8.1-2.8,7.8-2.8-.2-2.2-11.6Z"/>
    <path class="cls-2" d="M53.6,51.4l4.7.3c3.1.2,4.3,1.9,4.2,4.2-.1,2.2-1.6,3.8-4.7,3.6h-2c0-.1-.2,3.5-.2,3.5l-2.7-.2.8-11.4ZM59.7,55.7c0-.9-.4-1.5-1.6-1.6h-1.9c0-.1-.2,2.9-.2,2.9h1.9c1.2.2,1.8-.4,1.8-1.3Z"/>
    <path class="cls-2" d="M63.3,57.8c.2-3.4,2.5-5.7,5.9-5.5,3.4.2,5.4,2.8,5.1,6.2-.2,3.4-2.5,5.7-5.9,5.5-3.4-.2-5.3-2.8-5.1-6.2ZM71.4,58.3c.1-2.1-.7-3.5-2.5-3.7-1.8-.1-2.8,1.2-2.9,3.3-.1,2.1.7,3.6,2.5,3.7,1.8.1,2.8-1.3,2.9-3.3Z"/>
    <path class="cls-2" d="M76,52.9l2.7.2-.6,9,5.1.3-.2,2.4-7.8-.5.8-11.4Z"/>
    <path class="cls-2" d="M84.8,53.5l2.7.2-.8,11.4-2.7-.2.8-11.4Z"/>
    <path class="cls-2" d="M88.6,59.5c.2-3.6,2.5-5.7,5.8-5.5,2.5.2,4.5,1.6,4.5,4.6l-2.7-.2c-.2-1.4-1.1-2-2.1-2.1-1.9-.1-2.7,1.5-2.8,3.3-.1,1.9.4,3.5,2.3,3.7,1,0,2-.4,2.4-1.8l2.7.2c-.4,3-2.6,4.1-5.1,4-3.3-.2-5.3-2.6-5-6.2Z"/>
    <path class="cls-2" d="M102.8,62l-3.6-7.5,3.1.2,2.1,4.8,2.7-4.5,3.1.2-4.6,7-.3,4.1-2.8-.2.3-4.1Z"/>
  </g>
</svg>