<?xml version="1.0" encoding="UTF-8"?><svg id="_레이어_2" xmlns="http://www.w3.org/2000/svg" viewBox="0 0 756.86 76.56"><defs><style>.cls-1{fill:none;stroke:#241713;stroke-width:3px;}.cls-2{fill:#f7c9dd;}.cls-2,.cls-3{stroke-width:0px;}.cls-3{fill:#241713;}</style></defs><g id="_레이어_1-2"><path class="cls-2" d="M23.94,47.22l16.72-.4,12.23,13.33,12.12-14.47.13-14.03-.53-14.04.48-14.03,16.6.22.05,14.26-.23,14.5.21,14.5-3.27,14.57-10.99,9.8-14.66,2.86-14.89-2.5-11.26-10.09-2.69-14.49Z"/><path class="cls-1" d="M23.94,47.22l16.72-.4,12.23,13.33,12.12-14.47.13-14.03-.53-14.04.48-14.03,16.6.22.05,14.26-.23,14.5.21,14.5-3.27,14.57-10.99,9.8-14.66,2.86-14.89-2.5-11.26-10.09-2.69-14.49Z"/><path class="cls-2" d="M89.47,38.58l2-13.72,6.81-12.09,11.64-7.35,13.46-2.7,13.62,2.35,11.43,7.78,6.54,12.13,2.66,13.6-2.01,13.83-7.01,12.1-11.51,7.88-13.71,2.46-13.46-3.06-11.5-7.49-7.14-11.92-1.81-13.8ZM139.77,38.58l-3.64-14.52-12.75-6.6-13.17,6.33-3.37,14.79,3.71,14.61,12.84,6.74,13.1-6.57,3.3-14.78Z"/><path class="cls-1" d="M89.47,38.58l2-13.72,6.81-12.09,11.64-7.35,13.46-2.7,13.62,2.35,11.43,7.78,6.54,12.13,2.66,13.6-2.01,13.83-7.01,12.1-11.51,7.88-13.71,2.46-13.46-3.06-11.5-7.49-7.14-11.92-1.81-13.8ZM139.77,38.58l-3.64-14.52-12.75-6.6-13.17,6.33-3.37,14.79,3.71,14.61,12.84,6.74,13.1-6.57,3.3-14.78Z"/><path class="cls-2" d="M165.58,3.74l14.34.15h14.5s15.89,3.35,15.89,3.35l6.87,13.94-9.35,13.99,10.74,5.95,3.8,11.76-3.26,12.19-10.78,6.63-12.52,1.52-15.2.33-15.25.08.06-14.05.15-14v-14s-.45-14.01-.45-14.01l.46-13.84ZM200.95,24.48l-7.13-7.12-11.93.12.2,14.23,11.74.41,7.13-7.64ZM205.35,50.98l-10.13-9.12-13.34.13.21,17.51,13.14.41,10.13-8.94Z"/><path class="cls-1" d="M165.58,3.74l14.34.15h14.5s15.89,3.35,15.89,3.35l6.87,13.94-9.35,13.99,10.74,5.95,3.8,11.76-3.26,12.19-10.78,6.63-12.52,1.52-15.2.33-15.25.08.06-14.05.15-14v-14s-.45-14.01-.45-14.01l.46-13.84ZM200.95,24.48l-7.13-7.12-11.93.12.2,14.23,11.74.41,7.13-7.64ZM205.35,50.98l-10.13-9.12-13.34.13.21,17.51,13.14.41,10.13-8.94Z"/><path class="cls-2" d="M252.03,38.58l1.29-13.75,6.83-11.98,11.28-7.79,13.58-1.99,14.31,2.57,11.34,9.11,4.08,14.52-16.63-.17-13.6-12.29-12.67,7.17-3.32,14.61,3.23,14.71,12.77,7.06,13.81-11.94,16.4-.54-4.06,14.57-11.4,9.24-14.45,3.34-13.44-3.14-11.6-7.33-6.38-12.27-1.37-13.7Z"/><path class="cls-1" d="M252.03,38.58l1.29-13.75,6.83-11.98,11.28-7.79,13.58-1.99,14.31,2.57,11.34,9.11,4.08,14.52-16.63-.17-13.6-12.29-12.67,7.17-3.32,14.61,3.23,14.71,12.77,7.06,13.81-11.94,16.4-.54-4.06,14.57-11.4,9.24-14.45,3.34-13.44-3.14-11.6-7.33-6.38-12.27-1.37-13.7Z"/><path class="cls-2" d="M322.43,3.31l14.76-.05,14.5.79,13.53,1.6,10.82,8.35,2.49,13.38-2.86,13.05-9.8,8.59,7.05,12.12,7.11,12.71-16.85-.45-6.53-10.86-5.93-11.47-11,.56-.53,10.81.13,11.05-16.38-.19-.72-13.7.04-14,.86-14-.8-14,.11-14.27ZM361.32,27.38l-10.23-8.88-12.1-.57.51,18.68,11.59-.37,10.23-8.86Z"/><path class="cls-1" d="M322.43,3.31l14.76-.05,14.5.79,13.53,1.6,10.82,8.35,2.49,13.38-2.86,13.05-9.8,8.59,7.05,12.12,7.11,12.71-16.85-.45-6.53-10.86-5.93-11.47-11,.56-.53,10.81.13,11.05-16.38-.19-.72-13.7.04-14,.86-14-.8-14,.11-14.27ZM361.32,27.38l-10.23-8.88-12.1-.57.51,18.68,11.59-.37,10.23-8.86Z"/><path class="cls-2" d="M387.46,3.92l15.93-.37,16.24-.24,15.94.59.09,14.04-15.79.58-16.19-.58.51,13.49,14.19-.14,14.79.15-.08,13.55-14.71.08-14.81-.63.24,14.61,16.57-.31,16.25.52.28,14.35-16.6-.35-16.57.13-16.38-.04-.47-13.77-.06-14,.72-14-.12-14,.05-13.66Z"/><path class="cls-1" d="M387.46,3.92l15.93-.37,16.24-.24,15.94.59.09,14.04-15.79.58-16.19-.58.51,13.49,14.19-.14,14.79.15-.08,13.55-14.71.08-14.81-.63.24,14.61,16.57-.31,16.25.52.28,14.35-16.6-.35-16.57.13-16.38-.04-.47-13.77-.06-14,.72-14-.12-14,.05-13.66Z"/><path class="cls-2" d="M465.98,3.84l10.67.11,10.78-.24,5.24,13.81,4.94,14.02,4.72,14.09,5.6,13.78,4.53,14.19h-17.72s-4.25-11.53-4.25-11.53l-13.9-.03-13.97-.08-4.29,11.42-17.51.23,4.83-14.08,5.39-13.86,4.62-14.12,5.54-13.8,4.77-13.9ZM486.89,49.54l-4.64-14.73-4.94-14.3-1.02.12-4.84,14.33-5.02,14.44,20.45.14Z"/><path class="cls-1" d="M465.98,3.84l10.67.11,10.78-.24,5.24,13.81,4.94,14.02,4.72,14.09,5.6,13.78,4.53,14.19h-17.72s-4.25-11.53-4.25-11.53l-13.9-.03-13.97-.08-4.29,11.42-17.51.23,4.83-14.08,5.39-13.86,4.62-14.12,5.54-13.8,4.77-13.9ZM486.89,49.54l-4.64-14.73-4.94-14.3-1.02.12-4.84,14.33-5.02,14.44,20.45.14Z"/><path class="cls-2" d="M525.46,18.61l-19.75-.08-.22-15.2,14.38.11,14.12-.16,14.13.5,14.3-.36-.14,15.1-19.79.16-.39,13.58.17,13.77.33,13.78-.06,14.01-17.2.03.6-14.04-.57-13.77.28-13.78-.2-13.64Z"/><path class="cls-1" d="M525.46,18.61l-19.75-.08-.22-15.2,14.38.11,14.12-.16,14.13.5,14.3-.36-.14,15.1-19.79.16-.39,13.58.17,13.77.33,13.78-.06,14.01-17.2.03.6-14.04-.57-13.77.28-13.78-.2-13.64Z"/><path class="cls-2" d="M567.34,3.21l17.07.3.35,14.07-.08,14-.68,14,.6,14.01-.15,14.13-16.86-.05.27-14.07-.13-14-.25-14,.59-14.01-.72-14.37Z"/><path class="cls-1" d="M567.34,3.21l17.07.3.35,14.07-.08,14-.68,14,.6,14.01-.15,14.13-16.86-.05.27-14.07-.13-14-.25-14,.59-14.01-.72-14.37Z"/><path class="cls-2" d="M592.51,38.58l2.06-13.65,6.53-12.22,11.64-7.46,13.53-2.57,13.53,2.62,11.4,7.66,7.24,11.83,1.5,13.8-2.22,13.57-6.52,12.1-11.51,7.43-13.43,2.75-13.48-2.58-11.04-7.94-7.05-11.7-2.19-13.62ZM642.81,38.58l-3.61-14.64-12.94-6.38-13.01,6.33-3.49,14.69,3.46,14.74,13.04,6.76,12.57-7.06,3.97-14.44Z"/><path class="cls-1" d="M592.51,38.58l2.06-13.65,6.53-12.22,11.64-7.46,13.53-2.57,13.53,2.62,11.4,7.66,7.24,11.83,1.5,13.8-2.22,13.57-6.52,12.1-11.51,7.43-13.43,2.75-13.48-2.58-11.04-7.94-7.05-11.7-2.19-13.62ZM642.81,38.58l-3.61-14.64-12.94-6.38-13.01,6.33-3.49,14.69,3.46,14.74,13.04,6.76,12.57-7.06,3.97-14.44Z"/><path class="cls-2" d="M668.07,3.29l17.35.62,8.44,14.17,9.26,13.91,8.24,14.52h.79s-.15-14.32-.15-14.32l.29-14.3-.42-14.22,16.48.22.29,13.7-.32,14-.16,14,.92,14.01-.55,13.91-17.75-.24-8.18-13.83-8.5-13.88-8.83-13.68-.2-.08.04,13.93-.32,13.94.2,13.92-16.82.17.13-14.15.1-14,.34-14-.73-14,.06-14.3Z"/><path class="cls-1" d="M668.07,3.29l17.35.62,8.44,14.17,9.26,13.91,8.24,14.52h.79s-.15-14.32-.15-14.32l.29-14.3-.42-14.22,16.48.22.29,13.7-.32,14-.16,14,.92,14.01-.55,13.91-17.75-.24-8.18-13.83-8.5-13.88-8.83-13.68-.2-.08.04,13.93-.32,13.94.2,13.92-16.82.17.13-14.15.1-14,.34-14-.73-14,.06-14.3Z"/><path class="cls-2" d="M745.16,2.08c3.32,2.93,6.64,5.62,9.96,8.55-1.07,3.2-2.13,6.4-3.2,9.6-2.84,2.21-5.68,4.41-8.52,6.62l-3.95-3.15c1.58-2.27,3.15-4.54,4.73-6.81-2.41-2.15-4.82-4.3-7.23-6.45,2.73-2.87,5.47-5.49,8.2-8.35Z"/><path class="cls-3" d="M743.39,28.75l-5.97-4.76,4.77-6.87-7.39-6.6,1.07-1.12c1.37-1.44,2.74-2.81,4.12-4.19,1.36-1.37,2.73-2.73,4.09-4.16l1-1.04,1.08.95c1.65,1.46,3.33,2.88,4.96,4.25,1.64,1.38,3.33,2.82,5,4.29l.75.66-3.66,10.97-9.81,7.62ZM741.49,23.39l1.93,1.54,7.23-5.61,2.74-8.22c-1.41-1.23-2.83-2.43-4.21-3.6-1.29-1.09-2.61-2.2-3.92-3.35-1.04,1.08-2.09,2.12-3.14,3.17-1,1-2,2-2.99,3.03l7.06,6.29-4.69,6.75Z"/><path class="cls-2" d="M11.7,26.84c-3.32-2.93-6.64-5.62-9.96-8.55,1.07-3.2,2.13-6.4,3.2-9.6,2.84-2.21,5.68-4.41,8.52-6.62,1.32,1.05,2.63,2.1,3.95,3.15-1.58,2.27-3.15,4.54-4.73,6.81,2.41,2.15,4.82,4.3,7.23,6.45-2.73,2.87-5.47,5.49-8.2,8.35Z"/><path class="cls-3" d="M11.79,28.92l-1.08-.95c-1.65-1.46-3.33-2.88-4.96-4.26-1.64-1.38-3.33-2.82-5-4.29l-.74-.66L3.66,7.79,13.47.17l5.97,4.76-4.77,6.87,7.39,6.59-1.07,1.12c-1.37,1.44-2.75,2.82-4.12,4.19-1.36,1.37-2.72,2.73-4.08,4.16l-1,1.04ZM3.48,17.82c1.41,1.23,2.83,2.43,4.21,3.59,1.29,1.09,2.61,2.21,3.93,3.35,1.04-1.07,2.09-2.12,3.13-3.17,1-1,2-2,3-3.03l-7.05-6.29,4.69-6.75-1.93-1.54-7.23,5.61-2.74,8.22Z"/></g></svg>