<?xml version="1.0" encoding="UTF-8"?><svg id="_레이어_2" xmlns="http://www.w3.org/2000/svg" viewBox="0 0 660.12 128.89"><defs><style>.cls-1{fill:none;stroke:#f2c6da;stroke-miterlimit:10;stroke-width:5px;}</style></defs><g id="_레이어_1-2"><polygon class="cls-1" points="74.88 15.7 83.19 26.24 87.46 39.06 86.64 52.45 81.61 64.59 74.91 75.96 63.6 82.77 51.32 87.16 38.07 88.11 25.25 84.13 15.11 75.47 6.82 65.15 2.77 52.47 2.51 39.12 6.87 26.51 14.46 15.51 25.93 8.85 38.24 4.6 51.47 3.5 64.2 7.68 74.88 15.7"/><polyline class="cls-1" points="40.42 69.64 52.69 69.43 63.51 63.92 68.48 53.17 67.44 41.58"/><polygon class="cls-1" points="34.15 41.76 37.93 54.65 26.18 49.74 22.63 39.35 34.15 41.76"/><polygon class="cls-1" points="51.04 24.88 54.21 36.25 42.44 33.48 38.66 20.71 51.04 24.88"/><polygon class="cls-1" points="301.12 45.82 299.01 59.13 292.98 71.19 283.09 80.28 271.41 86.92 258.05 87.91 245.12 85.62 233.48 79.63 224.02 70.54 218.01 58.83 215.02 45.82 217.48 32.64 224.39 21.37 233.58 12.14 244.96 5.52 258.05 3.8 271.19 5.38 283.44 10.87 292.24 20.98 298.46 32.69 301.12 45.82"/><polyline class="cls-1" points="277.78 67.73 276.23 66.69 268.3 59.04 257.81 55.39 240.1 65.14 237.95 67.52"/><polygon class="cls-1" points="250.71 35.44 246.11 45.97 240.27 35.44 246.11 24.67 250.71 35.44"/><polygon class="cls-1" points="275.11 35.44 270.63 46.03 264.84 35.44 270.63 24.38 275.11 35.44"/><polygon class="cls-1" points="657.6 45.82 656.43 59.06 650.13 70.85 641.03 80.71 628.46 85.15 615.68 88.36 602.83 85.35 590.79 80.07 581.37 70.74 575 59.03 572.87 45.82 576.18 32.98 581.52 21 590.62 11.32 602.31 4.68 615.68 2.56 628.49 6.4 640.44 11.73 649.96 20.91 655.34 32.93 657.6 45.82"/><polygon class="cls-1" points="608.5 35.44 603.94 45.96 599.09 35.44 603.94 24.23 608.5 35.44"/><polygon class="cls-1" points="634.53 35.44 628.46 46.61 623.79 35.44 628.46 25.12 634.53 35.44"/><polygon class="cls-1" points="623.79 62.17 615.68 73.14 607.54 62.17 615.68 50.06 623.79 62.17"/><polygon class="cls-1" points="428.28 64.55 426.39 78.15 422.2 91.24 414.32 102.45 405.17 112.68 393.05 119.09 380.57 124.93 366.79 125.08 353.33 123.51 340.32 119.52 328.65 112.38 319.88 101.95 311.51 91.17 307 78.2 306.29 64.55 306.82 50.86 311.88 38.11 319.28 26.66 328.55 16.59 340.71 10.39 353.42 5.96 366.79 3.71 380.53 4.33 393.42 9.26 404.37 17.42 414.23 26.72 421.45 38.23 426.56 50.91 428.28 64.55"/><polygon class="cls-1" points="358.53 49.58 349.86 65.62 342.01 49.58 349.86 34.88 358.53 49.58"/><polygon class="cls-1" points="393.63 49.58 385.24 64.8 377.91 49.58 385.24 33.04 393.63 49.58"/><polygon class="cls-1" points="208.09 64.55 205.3 77.95 201.91 91.19 194.4 102.68 184.97 112.68 172.92 119.25 160.22 124.32 146.58 126.35 132.99 124.09 119.89 119.97 108.85 111.87 99.25 102.29 92.15 90.76 86.61 78.24 85.15 64.55 87.58 51.08 92.37 38.44 98.67 26.34 108.58 16.89 119.85 9.04 133.12 5.59 146.58 3.21 160.32 4.35 172.81 10.08 184.94 16.45 193.75 26.93 201.82 37.95 205.58 51.08 208.09 64.55"/><polygon class="cls-1" points="137.05 49.58 129.65 64.58 122.69 49.58 129.65 33.49 137.05 49.58"/><polygon class="cls-1" points="173.05 49.58 165.03 64.85 157.88 49.58 165.03 34.65 173.05 49.58"/><polyline class="cls-1" points="144.15 80.52 153.34 73.87 158.69 82.64 149.62 90 151.27 98.43 138.29 99.17"/><polygon class="cls-1" points="521.87 117.17 508.75 121.36 495.67 124.68 482.07 125.1 468.96 121.46 456.8 115.51 446.2 107.08 437.37 96.7 432.3 84.07 428.65 70.98 428.04 57.24 432.52 44.26 437.45 31.49 446.68 21.37 457.65 13.42 469.85 7.76 482.9 4.11 496.58 3.66 509.6 7.77 521.89 13.46 532.69 21.75 540.89 32.62 547.42 44.66 550.43 58.09 550.11 71.82 547.2 85.26 540.4 97.15 532.4 108.24 521.87 117.17"/><polygon class="cls-1" points="496.51 47.76 479.51 49.73 488.28 34.47 505.92 33.38 496.51 47.76"/><polygon class="cls-1" points="515.33 78.17 498.16 79.8 507.55 65.6 525.42 62.92 515.33 78.17"/><polyline class="cls-1" points="457.63 65.31 466.04 78.95 474.11 92.81"/></g></svg>