<?xml version="1.0" encoding="UTF-8"?><svg id="_레이어_2" xmlns="http://www.w3.org/2000/svg" viewBox="0 0 203.72 170.06"><defs><style>.cls-1{fill:#0f0f0e;stroke-width:0px;}</style></defs><g id="_레이어_1-2"><polygon class="cls-1" points="117.59 37.68 112.42 34.64 124.01 14.94 144.84 4.7 166.92 .57 188.65 5.32 187.37 11.18 166.83 6.69 146.75 10.45 128.27 19.53 117.59 37.68"/><polygon class="cls-1" points="82.63 39.56 70.53 22.5 54.01 10.66 34.06 6.15 13.49 10.89 12.14 5.04 34.05 0 56.52 5.08 74.84 18.2 87.53 36.09 82.63 39.56"/><path class="cls-1" d="M149.51,170.06l-24.02-9.79-16.49-19.7-9.79-23.9-2.24-25.68,3.7-25.32,7.06-24.48,15.96-21.63,26.05-7.94,23.76,10.47,16.29,19.56,11.19,23.47,2.75,26.08-.08.43-4.76,25.03-7.76,24.36-17.23,19.73-24.39,9.32ZM129.14,155.27l20.44,8.34,20.78-7.94,15.42-17.66,7.32-23,4.55-24.07-2.55-24.18-10.42-21.86-14.91-17.9-20.43-9-22.02,6.71-14.14,19.17-6.71,23.25-3.48,24.02,2.1,24.08,9.1,22.19,14.93,17.84Z"/><path class="cls-1" d="M51.21,169.67l-24.01-9.19-17.38-19.4L.67,116.6l-.67-25.51v-.07s.49-25.53.49-25.53l9.62-24.15,15.72-21.1,25.52-10.37,25.26,10.75,14.82,21.36.13.31,9.48,23.37,1.79,25.52-3.35,25.04-8.73,23.49-14.04,22.12-25.49,7.85ZM30.71,155.39l20.72,7.93,21.4-6.59,12.52-19.72,8.28-22.27,3.18-23.76-1.68-23.96-9-22.18-13.45-19.39-21.37-9.09-21.65,8.8-14.25,19.13-8.93,22.41-.46,24.37.64,24.37,8.41,22.48,15.65,17.47Z"/><path class="cls-1" d="M64.93,54.87l-27.29-1.1-27.18.46c-1.62.03-3.02-1.29-3.05-2.95s1.29-3.02,2.95-3.05l27.35-.47,27.25,1.1,27.17-.74c1.67-.04,3.04,1.26,3.08,2.92.04,1.66-1.26,3.04-2.92,3.08l-27.37.75Z"/><path class="cls-1" d="M170.64,56.29h-.09s-21.07-.47-21.07-.47l-21.05-1.1-20.96.45s-.04,0-.07,0c-1.63,0-2.96-1.3-3-2.94-.04-1.66,1.28-3.03,2.93-3.06l21.18-.45h.11s21.07,1.11,21.07,1.11l20.89.46,20.98-.82c1.68-.07,3.05,1.23,3.11,2.88.06,1.66-1.23,3.05-2.88,3.11l-21.16.82Z"/></g></svg>