<?xml version="1.0" encoding="UTF-8"?><svg id="_레이어_2" xmlns="http://www.w3.org/2000/svg" viewBox="0 0 126.56 91.55"><defs><style>.cls-1{fill:#0f0f0e;stroke-width:0px;}</style></defs><g id="_레이어_1-2"><path class="cls-1" d="M126.12,42.3l.44,7.68-7.27,2.73-3.17,7.62,1.53,6.58-1.56,6.58.56,7.44-3.42,6.75-6.59,3.89-7.64-.05-.77-7.18,6.85-.34,4.2-4.54-.47-6.07v-7.85s-.08-7.85-.08-7.85l3.21-7.31,7.06-3.36-.6-.64-6.44-4.58-2.06-7.29.05-7.9-.47-7.9-1.12-5.94-3.63-4.21-5.6-1.87.35-5.8,6.79,1.12,5.86,3.53,4.35,5.7,1.18,7.37-.86,6.62.39,6.62,1.72,7.97,7.22,2.48Z"/><path class="cls-1" d="M7.66,38.94l1.72-7.97.39-6.62-.86-6.62,1.18-7.37,4.35-5.7,5.86-3.53,6.79-1.12.35,5.8-5.6,1.87-3.63,4.21-1.12,5.94-.47,7.9.05,7.9-2.06,7.29-6.44,4.58-.6.64,7.06,3.36,3.21,7.31-.07,7.85v7.85s-.47,6.07-.47,6.07l4.2,4.54,6.85.34-.77,7.18-7.64.05-6.59-3.89-3.42-6.75.56-7.44-1.56-6.58,1.53-6.58-3.17-7.62-7.27-2.73.44-7.68,7.22-2.48Z"/></g></svg>