<?xml version="1.0" encoding="UTF-8"?><svg id="_레이어_2" xmlns="http://www.w3.org/2000/svg" viewBox="0 0 230.58 17.71"><defs><style>.cls-1{fill:#0f0f0e;stroke-width:0px;}</style></defs><g id="_레이어_1-2"><path class="cls-1" d="M145.42,1.23c.65.57,1.3,1.1,1.95,1.68-.21.63-.42,1.25-.63,1.88-.56.43-1.11,1.42-1.67,1.85l-.77-.62c.31-.45.62-1.45.93-1.89-.47-.42-.94-.84-1.42-1.26.54-.56,1.07-1.08,1.61-1.64Z"/><path class="cls-1" d="M145.07,6.87l-1.01-.81.09-.14c.14-.21.3-.57.45-.91.13-.3.26-.61.4-.84l-1.44-1.29.13-.13c.27-.28.54-.55.81-.82.27-.27.53-.53.8-.81l.12-.12.13.11c.33.29.65.56.98.84.33.28.65.55.98.84l.09.08-.68,2.04-.04.03c-.26.2-.54.56-.8.9-.28.36-.57.73-.87.96l-.11.09ZM144.54,5.98l.54.43c.23-.21.47-.51.7-.81.27-.34.54-.69.82-.92l.57-1.72c-.29-.26-.59-.51-.88-.75-.28-.24-.57-.48-.85-.73-.23.24-.46.47-.69.7-.23.23-.45.45-.68.69l1.4,1.25-.09.13c-.14.21-.3.57-.45.91-.13.3-.26.6-.39.84Z"/><path class="cls-1" d="M164.6,1.23c.65.57,1.3,1.1,1.95,1.68-.21.63-.42,1.25-.63,1.88-.56.43-1.11,1.42-1.67,1.85l-.77-.62c.31-.45.62-1.45.93-1.89-.47-.42-.94-.84-1.42-1.26.54-.56,1.07-1.08,1.61-1.64Z"/><path class="cls-1" d="M164.25,6.87l-1.01-.81.09-.14c.14-.21.3-.57.45-.91.13-.3.26-.61.4-.84l-1.44-1.29.13-.13c.27-.28.54-.55.81-.82.27-.27.53-.53.8-.81l.12-.12.13.11c.32.29.65.56.97.83.33.28.65.55.98.84l.09.08-.68,2.04-.04.03c-.26.2-.54.56-.8.9-.28.36-.57.73-.87.96l-.11.09ZM163.71,5.98l.54.43c.23-.21.47-.51.7-.81.27-.34.54-.69.82-.92l.57-1.72c-.3-.26-.59-.51-.89-.76-.28-.24-.57-.48-.85-.73-.23.24-.46.47-.69.7-.23.23-.45.45-.68.69l1.4,1.25-.09.13c-.14.21-.3.57-.45.91-.13.3-.26.6-.39.84Z"/><path class="cls-1" d="M68.51,15.42l1.54-1.42,1.9,1.42-1.9,1.67-1.54-1.67Z"/><path class="cls-1" d="M70.02,17.59l-2.01-2.19,2.01-1.87,2.49,1.86-2.49,2.19ZM69.02,15.44l1.06,1.15,1.31-1.15-1.31-.98-1.06.98Z"/><path class="cls-1" d="M86.68,15.44l1.96-1.57,1.66,1.57-1.66,1.77-1.96-1.77Z"/><path class="cls-1" d="M88.66,17.71l-2.53-2.28,2.53-2.03,2.15,2.03-2.15,2.28ZM87.23,15.45l1.39,1.26,1.18-1.26-1.18-1.11-1.39,1.11Z"/><path class="cls-1" d="M228.21,12.43l1-1.24,1.12,1.26-1.13,1.04-.98-1.06ZM230.01,10.08l-1.46.11-.11-3.08.21-3.03-.34-3.15,1.84.18.04,2.98-.04,3.03-.14,2.97Z"/><path class="cls-1" d="M229.19,13.74l-1.2-1.3,1.22-1.52,1.37,1.55-1.39,1.28ZM228.45,12.42l.76.82.88-.81-.87-.98-.77.96ZM228.38,10.38l-.11-3.27.21-3.05-.36-3.34,2.21.21.04,3.13-.04,3.03-.15,3.13-1.8.14ZM228.51,1.12l.32,2.94-.2,3.06.1,2.88,1.12-.09.13-2.82.04-3.02-.04-2.81-1.47-.14Z"/><path class="cls-1" d="M210.55,13.44l-1.09-.99,1.06-1.31,1.06,1.29-1.04,1.01ZM209.6,1.11l1.71-.12.03,3.09-.29,3.03.26,3.15-1.6-.16-.12-2.98-.04-3.03.05-2.97Z"/><path class="cls-1" d="M210.55,13.68l-1.33-1.21,1.3-1.61,1.3,1.58-1.27,1.23ZM209.7,12.43l.84.76.8-.78-.82-1-.82,1.02ZM211.5,10.45l-1.96-.2-.13-3.13-.04-3.03.06-3.13,2.05-.15.03,3.28-.29,3.04.28,3.33ZM209.88,9.93l1.24.13-.24-2.93.29-3.06-.03-2.89-1.36.1-.05,2.81.04,3.02.12,2.82Z"/><path class="cls-1" d="M22.37,5.81l.85-1.39.31-.82-.48-.93-1.57-.75-1.63.12-.55,1.83-1.3-.27.91-2.38,2.57-1.03,2.52,1.06,1.25,2.42-.3,1.65-1.41,1.53-1.37.79-.58,1.85-.69.06-.05-.92.04-1.57,1.48-1.25ZM20.42,11.31l.87-1.01,1.03,1.01-1.03,1.06-.87-1.06Z"/><path class="cls-1" d="M21.28,12.63l-1.09-1.32,1.09-1.27,1.29,1.27-1.29,1.32ZM20.65,11.32l.65.79.77-.79-.77-.76-.65.76ZM20.73,9.74l-.06-1.1.04-1.66,1.52-1.28.84-1.37.27-.72-.42-.81-1.48-.7-1.46.11-.56,1.87-1.66-.35,1.01-2.64,2.71-1.09,2.64,1.11,1.31,2.53-.31,1.76-1.49,1.6-1.32.75-.6,1.89-.99.08ZM21.06,7.14l-.04,1.49.04.73.39-.03.57-1.8,1.41-.81,1.36-1.47.28-1.54-1.19-2.31-2.39-1.01-2.43.98-.81,2.11.94.2.54-1.8,1.8-.14,1.67.8.54,1.06-.34.89-.91,1.47-1.42,1.19Z"/><path class="cls-1" d="M4.61,5.81l.85-1.39.31-.82-.48-.93-1.57-.75-1.63.12-.55,1.83-1.3-.27.91-2.38L3.72.19l2.52,1.06,1.25,2.42-.3,1.65-1.41,1.53-1.37.79-.58,1.85-.69.06-.05-.92.04-1.57,1.48-1.25ZM2.66,11.31l.87-1.01,1.03,1.01-1.03,1.06-.87-1.06Z"/><path class="cls-1" d="M3.52,12.63l-1.09-1.32,1.09-1.27,1.29,1.27-1.29,1.32ZM2.89,11.32l.65.79.77-.79-.77-.76-.65.76ZM2.97,9.74l-.06-1.1.04-1.66,1.52-1.28.84-1.37.27-.72-.42-.81-1.48-.7-1.46.11-.56,1.87-1.66-.35L1.01,1.09,3.72,0l2.64,1.11,1.31,2.53-.31,1.76-1.49,1.6-1.31.75-.6,1.89-.99.08ZM3.3,7.14l-.04,1.49.04.73.39-.03.57-1.8,1.41-.81,1.36-1.47.28-1.54-1.19-2.31L3.72.38l-2.43.98L.48,3.47l.94.2.54-1.8,1.8-.14,1.67.8.54,1.06-.34.89-.91,1.47-1.42,1.19Z"/></g></svg>