<?xml version="1.0" encoding="UTF-8"?><svg id="_레이어_2" xmlns="http://www.w3.org/2000/svg" viewBox="0 0 276.3 92.88"><defs><style>.cls-1{fill:#080103;}.cls-1,.cls-2{stroke-width:0px;}.cls-2{fill:#0f0f0e;}</style></defs><g id="_레이어_1-2"><path class="cls-2" d="M163.86,42.7l-2.67-.68-2.3-1.45-1.95-1.99-1.25-2.5-.71-2.6-.64-2.65-.28-2.7.31-2.73.48-2.64.68-2.67,1.51-2.37,1.7-2.13,2.37-1.56,2.74-.52,2.86.31,2.41,1.62,1.94,2.15.81,2.67,1.13,2.45.29,2.7.51,2.69-.34,2.81-.69,2.55-.66,2.62-1.31,2.45-1.83,2.11-2.37,1.48-2.73.57ZM161.64,40.98l2.25.57,2.29-.47,2.06-1.28,1.63-1.88,1.18-2.22.63-2.5.68-2.52.3-2.52-.49-2.58-.28-2.54-1.09-2.4-.75-2.47-1.68-1.87-2.07-1.39-2.42-.26-2.36.45-2.03,1.34-1.57,1.97-1.37,2.15-.63,2.48-.47,2.56-.29,2.56.27,2.54.61,2.53.67,2.48,1.12,2.24,1.73,1.78,2.04,1.29Z"/><path class="cls-2" d="M163.85,43.25l-2.87-.73-2.47-1.57-2.01-2.05-1.32-2.67-.71-2.6-.66-2.74-.29-2.76.32-2.83.49-2.67.7-2.75,1.59-2.49,1.75-2.2,2.53-1.66,2.93-.55,3.07.33,2.62,1.78,2.01,2.24.83,2.75,1.15,2.5.3,2.77.52,2.75-.37,2.97-.69,2.55-.71,2.73-1.37,2.55-1.88,2.17-2.52,1.57-2.95.61ZM161.41,41.52l2.47.63,2.52-.52,2.22-1.39,1.73-2,1.25-2.34.65-2.56.68-2.53.33-2.69-.5-2.65-.28-2.62-1.12-2.44-.77-2.56-1.81-2.01-2.25-1.51-2.65-.29-2.56.48-2.2,1.45-1.63,2.04-1.45,2.27-.66,2.57-.48,2.6-.3,2.66.27,2.61.63,2.62.69,2.53,1.19,2.37,1.84,1.89,2.18,1.37ZM163.88,42.11l-2.45-.63-2.21-1.41-1.79-1.84-1.2-2.42-.67-2.48-.63-2.61-.27-2.6.3-2.65.47-2.6.65-2.56,1.44-2.26,1.62-2.04,2.19-1.44,2.54-.48,2.63.28,2.28,1.55,1.76,1.95.77,2.55,1.11,2.44.28,2.61.5,2.64-.33,2.68-.68,2.52-.68,2.61-1.25,2.32-1.69,1.95-2.21,1.38-2.5.52ZM161.85,40.49l2.05.52,2.07-.43,1.91-1.19,1.54-1.78,1.13-2.11.62-2.43.67-2.49.29-2.4-.48-2.54-.27-2.46-1.08-2.38-.71-2.36-1.55-1.73-1.9-1.28-2.21-.24-2.18.41-1.87,1.23-1.5,1.88-1.31,2.05-.61,2.38-.46,2.52-.28,2.48.26,2.45.61,2.49.66,2.41,1.06,2.12,1.63,1.67,1.92,1.21Z"/><path class="cls-2" d="M182.67,42.69l-2.89-.24-2.24-1.87-1.86-2.01-1.13-2.54-.91-2.54-.66-5.34-.13-2.74.51-2.77,1.16-2.51,1.23-2.42,1.84-2.05,2.24-1.69,2.83-.59,2.7.78,2.38,1.41,1.92,2.08,1.17,2.49,1.13,2.56.05,2.76.47,2.65-.3,2.79-.62,2.59-.72,2.6-1.29,2.47-1.95,2-2.18,1.68-2.77.44ZM180.23,41.37l2.4.2,2.35-.38,1.92-1.49,1.75-1.8,1.16-2.22.68-2.48.6-2.52.26-2.53-.46-2.63-.05-2.58-1.04-2.34-1.09-2.32-1.69-1.83-2.11-1.25-2.3-.66-2.32.49-1.96,1.47-1.67,1.87-1.16,2.28-1.09,2.35-.46,2.5.12,2.59.64,5.15.87,2.4,1.03,2.32,1.71,1.85,1.89,1.57Z"/><path class="cls-2" d="M182.69,43.23l-3.12-.26-2.42-2.02-1.92-2.07-1.18-2.66-.94-2.65-.66-5.38-.13-2.8.56-2.95,1.16-2.51,1.32-2.55,1.91-2.13,2.34-1.76,3.08-.65,2.95.87,2.44,1.45,2.02,2.19,1.2,2.56,1.18,2.67.05,2.82.47,2.69-.32,2.93-.62,2.59-.76,2.73-1.33,2.54-2.06,2.11-2.28,1.77-2.96.47ZM180,41.93l2.66.22,2.57-.41,2.04-1.58,1.86-1.92,1.23-2.35.7-2.55.6-2.53.28-2.68-.46-2.66-.05-2.65-1.09-2.46-1.13-2.4-1.81-1.96-2.25-1.34-2.51-.72-2.59.54-2.1,1.58-1.76,1.96-1.2,2.35-1.13,2.43-.49,2.64.12,2.65.65,5.26.89,2.46,1.08,2.44,1.78,1.92,2.09,1.74ZM182.65,42.1l-2.64-.22-2.07-1.73-1.77-1.91-1.08-2.44-.89-2.52-.64-5.19-.12-2.65.52-2.69,1.09-2.35,1.25-2.41,1.75-1.94,2.05-1.54,2.57-.54,2.55.75,2.18,1.29,1.8,1.95,1.13,2.39,1.08,2.45.05,2.64.46,2.66-.28,2.67-.6,2.52-.73,2.6-1.2,2.29-1.86,1.91-2.03,1.57-2.55.41ZM180.44,40.85l2.17.18,2.15-.35,1.78-1.38,1.67-1.72,1.1-2.1.67-2.43.59-2.47.25-2.42-.45-2.64-.04-2.47-.99-2.25-1.05-2.23-1.58-1.71-1.99-1.18-2.1-.6-2.07.44-1.82,1.37-1.59,1.77-1.13,2.22-1.05,2.28-.44,2.38.12,2.5.63,5.07.84,2.33.99,2.22,1.63,1.76,1.74,1.44Z"/><polygon class="cls-2" points="189.72 15.14 187.67 13.37 185.45 11.97 183.06 10.93 180.47 10.81 177.96 11.66 175.49 12.82 175.02 11.81 177.58 10.61 180.31 9.69 183.31 9.82 186.01 11.01 188.36 12.5 190.45 14.3 189.72 15.14"/><path class="cls-2" d="M189.78,15.9l-2.43-2.1-2.15-1.36-2.27-.99-2.39-.11-2.38.8-2.93,1.37-.93-1.98,3.1-1.44,2.83-.95,3.2.14,2.87,1.26,2.41,1.54,2.49,2.15-1.43,1.65ZM180.39,10.28l2.79.12,2.56,1.12,2.28,1.45,1.65,1.42.03-.03-1.65-1.42-2.28-1.45-2.57-1.13-2.8-.12-2.61.88-2.05.96.02.04,2.05-.95,2.6-.88Z"/><polygon class="cls-2" points="170.98 15.17 168.82 13.49 166.7 12.01 164.2 11.43 161.6 11.25 159.08 11.86 156.73 13.18 156.18 12.21 158.67 10.81 161.51 10.12 164.41 10.33 167.16 10.97 169.49 12.6 171.66 14.29 170.98 15.17"/><path class="cls-2" d="M171.07,15.92l-2.58-2.01-2.02-1.41-2.36-.55-2.47-.17-2.37.58-2.75,1.55-1.07-1.9,3.01-1.69,2.99-.73,3.07.23,2.85.67,2.42,1.69,2.61,2.03-1.34,1.72ZM161.56,10.71l2.76.2,2.6.61,2.21,1.54,1.76,1.37.03-.04-1.75-1.36-2.23-1.55-2.61-.61-2.78-.2-2.69.65-1.96,1.1.02.04,1.95-1.1,2.68-.65Z"/><polygon class="cls-2" points="171.63 49.41 171.22 47.46 175.9 46.49 179.22 46.62 177.16 43.31 175.16 38.64 172.16 34.47 173.78 33.31 176.9 37.65 178.95 42.46 182.92 48.76 176.07 48.48 171.63 49.41"/><path class="cls-1" d="M205.55,68.92l.23-4.46v-.02s-.09-4.51-.09-4.51l-.05-4.49v-4.51s-.08-4.48-.08-4.48l.23-4.49.13-4.49.31-4.55-.64-4.48.61-4.47-.09-4.54-.31-4.51-.08-4.5-.16-4.47.44-5.11-5.27-.29-4.59.39-4.55-.16-4.58-.1h0s-4.58.05-4.58.05l-4.57-.03-4.61-.14-4.57.29-4.59-.22-4.56.52-4.57-.61-4.59.42-4.58-.37-4.91.54-.28,4.79.03,4.52.36,4.48-.63,4.51.59,4.54v4.45s-.22,4.47-.22,4.47l-.42,4.54.35,4.5-.33,4.48.07,4.52.38,4.52.12,4.44-.63,4.53.56,4.53-.14,4.47.14,4.48-.42,4.47v.03s.03,4.54.03,4.54l.14,5.13,5.22-.17,4.53-.18,4.57.59,4.61-.04,4.58.06h.02s4.61-.25,4.61-.25l2.92-.21,2.14-.05,4.04.47,4.62-.15,4.56-.36,4.54.33,4.6.17h.02s4.59-.1,4.59-.1l4.99-.38v-4.89s-.18-4.5-.18-4.5l-.05-4.47.5-4.53-.47-4.52ZM142.08,23.94l-.58-4.5.62-4.49-.37-4.54-.03-4.46.22-3.82,3.87-.43,4.57.37,4.56-.42,4.59.61,4.6-.53,4.56.22,4.58-.3,4.57.14,4.59.03,4.57-.05,4.56.1,4.61.16,4.57-.39,4.05.23-.35,4.04.16,4.52.08,4.5.31,4.51.09,4.44-.62,4.53.65,4.52-.3,4.44-.13,4.51-.23,4.5v.02s.08,4.51.08,4.51v4.51s.04,4.51.04,4.51l.08,3.87-3.48-.9-4.45-1.45-4.58-1.38-4.79-.09-9.25-1.13-4.75-.3-9.35.61-4.65.53-4.75.4-4.46,1.6-4.61.9-4.1,1.7.6-4.35-.13-4.55-.38-4.51-.07-4.46.33-4.52-.35-4.49.41-4.45.24-4.52v-.02s-.01-4.52-.01-4.52ZM175.35,90.69l-1.49.04-.56-.06-1.68.12h-.15s-2.98-.26-2.98-.26l.52-3.27,1.17-4.01.61-4.21,1.19-3.55h.02s3.54-.14,3.54-.14l.4,3.79,1.41,3.99.83,4.01.33,3.43-3.18.13ZM169.78,72.48l-2.55,3.72-1.38-3.16-1.17-3.93-.26-4.4.97-3.21,2.29,2.11,2.8,2.96,2.38,2.36-3.08,3.54ZM173.61,69.79l2.48,2.66-.77,1.6-3.38.32h-.12s-.65-1.71-.65-1.71l2.45-2.87ZM174.72,68.96l2.48-2.5,3.03-2.74,2.22-2.15.93,3.15-.23,4.41-1.1,3.96-1.44,3.14-2.76-3.55-3.14-3.71ZM179.47,62.9l-3.02,2.74-2.65,2.67-2.53-2.51-2.8-2.96-2.87-2.64,7.77-.51,4.63.29,4,.49-2.53,2.44ZM164.12,91.24l-4.57-.06-4.54.04-4.59-.59-4.62.18-4.1.14-.11-4.01-.04-4.47.42-4.47v-.03s-.13-4.52-.13-4.52l.14-4.53-.45-3.61.06.15,4.27-1.77,4.54-.89,4.44-1.59,4.62-.39,4.62-.52.5-.03-1.3,4.32.28,4.72,1.22,4.09,2.22,5.09,3.32-4.86.59,1.55-1.21,3.6-.61,4.19-1.17,4-.66,4.1-3.17.17ZM204.47,82.46l.17,4.49v3.84s-3.91.3-3.91.3l-4.55.09-4.55-.17-4.61-.34-4.61.36-2.72.09-.39-4.14-.86-4.13-1.4-3.97-.51-4.8.39-.81.07.08,3.87,4.98,2.22-4.85,1.17-4.2.25-4.72-1.17-3.95,3.92.48,4.72.09,4.42,1.33,4.46,1.45,3.79.98-.2,3.99.47,4.48-.49,4.47.05,4.55Z"/><path class="cls-2" d="M164.15,92.88h-.02s-4.6-.06-4.6-.06l-4.63.04h-.04s-4.53-.59-4.53-.59l-4.49.18-5.76.19-.15-5.67-.04-4.57.42-4.49-.13-4.45.14-4.47-.57-4.56.63-4.55-.12-4.39-.38-4.53-.07-4.55.32-4.47-.35-4.51v-.04s.42-4.54.42-4.54l.23-4.45v-4.39s-.61-4.58-.61-4.58l.63-4.53-.36-4.46-.03-4.52.31-5.28,5.41-.6,4.59.37,4.61-.42h.06s4.51.61,4.51.61l4.53-.52,4.61.23,4.57-.29,4.63.14,4.55.03,4.57-.05,4.61.1,4.53.16L200.74,0l5.85.33-.49,5.63.16,4.43.08,4.51.31,4.48.09,4.61-.61,4.43.64,4.46-.31,4.6-.13,4.47-.23,4.49.08,4.46v4.52s.04,4.49.04,4.49l.09,4.53-.23,4.45.48,4.53-.5,4.55.05,4.44.17,4.49v5.4s-5.47.42-5.47.42l-4.64.1h-.03s-4.6-.17-4.6-.17l-4.52-.33-4.52.35-4.68.16-4.04-.47-2.1.05-2.9.21-4.64.25ZM159.54,91.75l4.59.06,4.59-.25,2.91-.21,2.2-.05,4.03.47,4.58-.15,4.58-.36h.04s4.54.33,4.54.33l4.58.17,4.58-.1,4.47-.34v-4.39s-.18-4.48-.18-4.48l-.05-4.51.49-4.5-.47-4.5.23-4.5-.09-4.5-.05-4.5v-4.52s-.08-4.49-.08-4.49v-.02s.23-4.49.23-4.49l.13-4.48.31-4.51-.64-4.5.62-4.5-.09-4.5-.31-4.49-.08-4.52-.16-4.49.4-4.6-4.68-.26-4.58.39-4.59-.16-4.57-.1-4.57.05-4.58-.03-4.59-.14-4.58.29-4.58-.22-4.58.52-4.58-.61-4.58.42-4.58-.37-4.41.49-.25,4.34.03,4.47.37,4.52v.06s-.63,4.44-.63,4.44l.59,4.54v4.45s-.22,4.5-.22,4.5l-.41,4.51.35,4.5-.33,4.5.07,4.48.38,4.5.13,4.51-.4,2.85.03.08.41-2.93-.13-4.5-.38-4.52-.07-4.48.33-4.5-.35-4.5v-.04s.41-4.45.41-4.45l.24-4.5v-4.47s-.6-4.53-.6-4.53l.63-4.5-.37-4.52-.03-4.46.25-4.31,4.37-.48,4.58.37,4.58-.42h.06s4.52.61,4.52.61l4.58-.52,4.58.22,4.58-.29,4.59.14,4.58.03,4.56-.05,4.58.1,4.59.16,4.58-.39,4.64.26-.39,4.56.16,4.49.08,4.51.31,4.49.09,4.51-.62,4.5.64,4.5-.31,4.5-.13,4.49-.23,4.51.08,4.49v4.52s.04,4.5.04,4.5l.09,4.57-4.16-1.08-4.48-1.46-4.5-1.36-4.77-.09-9.25-1.13-4.68-.29-9.32.61-4.62.52-4.7.4-4.47,1.6-4.56.89-3.83,1.59.02.04,3.88-1.59,4.5-.88,4.47-1.6,4.69-.4,4.89-.54h0l9.05-.59,4.66.29,4.56.56h0s4.7.57,4.7.57l4.77.09,4.49,1.35,4.47,1.45,4.18,1.08-.22,4.38.47,4.5-.49,4.5.05,4.51.17,4.48v4.36s-4.4.34-4.4.34l-4.58.1-4.58-.17-4.59-.34-4.57.36-3.24.11-.44-4.61-.84-4.07-1.41-4.06-.53-4.95.82-1.69.6.7,3.35,4.31,1.83-4.01,1.14-4.1.24-4.57-1.23-4.15-2.91,2.81-3.02,2.74-3,3.03-2.91-2.89-2.8-2.96-3-2.76-1.26,4.19.27,4.57,1.19,4,1.82,4.18,3.3-4.83-.22.25-3.07,4.49-1.79-4.11-1.19-4.05-.26-4.49,1.24-4.11,2.95,2.71,2.8,2.96,2.72,2.7-3.11,3.57,1.01,2.68-1.25,3.74-.62,4.22-1.16,3.97-.72,4.49-3.61.19h-.02s-4.57-.06-4.57-.06l-4.57.04-4.58-.59-4.58.18-4.64.15-.12-4.54-.04-4.51v-.03s.42-4.47.42-4.47l-.14-4.49.14-4.52-.48-3.85-.04.02.48,3.83-.14,4.52.14,4.48-.42,4.5.04,4.51.12,4.59,4.68-.16,4.58-.18,4.58.59,4.57-.04ZM159.54,90.64l4.57.06,2.72-.15.6-3.74,1.16-3.97.62-4.25,1.15-3.42-.16-.42-3.29,4.81-2.63-6.04-1.24-4.21-.28-4.82,1.1-3.66-4.33.49-4.57.39-4.46,1.59-4.49.88-3.89,1.61.38,3.08-.14,4.57.14,4.52v.07s-.42,4.44-.42,4.44l.04,4.44.09,3.46,3.56-.12,4.67-.19,4.6.59,4.5-.04ZM187.02,90.15h.04s4.61.34,4.61.34l4.53.17,4.52-.1,3.39-.26v-3.35s-.18-4.49-.18-4.49l-.05-4.58.49-4.45-.47-4.47.18-3.6-3.37-.87-4.49-1.46-4.34-1.31-4.7-.09-3.12-.38.97,3.26-.27,4.93-1.2,4.28-2.58,5.65-3.88-5,.47,4.41,1.4,3.98.86,4.19.35,3.64,2.22-.07,4.63-.36ZM166.35,72.86l.98,2.25,2.04-2.97,2.75-3.17-2.02-2.01-2.8-2.96-1.65-1.52-.69,2.3.25,4.24,1.15,3.84ZM166.88,60.64l1.98,1.82,2.8,2.96,2.14,2.12,2.27-2.29,3.04-2.75,1.72-1.66-2.89-.35-4.56-.28-6.49.42ZM140.84,64.44l.02.16.02-.16-.02-.16-.02.16ZM142.07,50.89l.38,4.49.13,4.62-.48,3.47,3.34-1.37,4.57-.89,4.49-1.61,4.82-.41,4.63-.52,9.41-.61,4.78.3,9.25,1.13,4.84.09,4.65,1.4,4.46,1.45,2.76.72-.06-3.17-.05-4.51v-4.51s-.08-4.51-.08-4.51v-.03s.23-4.51.23-4.51l.13-4.5.3-4.41-.65-4.54.63-4.57-.09-4.4-.31-4.49-.08-4.53-.16-4.55.3-3.53-3.46-.19-4.57.38-4.64-.16-4.56-.1-4.55.05-4.6-.03-4.55-.14-4.59.3-4.55-.22-4.63.53-4.59-.61-4.55.42-4.57-.37-3.37.37-.2,3.37.03,4.41.37,4.58-.62,4.47.58,4.49v4.53s-.23,4.55-.23,4.55l-.41,4.43.35,4.49-.33,4.53.07,4.42ZM171.46,91.32l-3.58-.32.63-3.9,1.16-3.97.63-4.27,1.3-3.88.39-.03,4.04-.15.45,4.22,1.41,4,.84,4.06.38,3.99-3.75.16-1.53.04-.55-.06-1.83.12ZM169.11,90.04l2.38.21h.11s1.71-.12,1.71-.12l.57.07,1.45-.04,2.61-.11-.27-2.84-.82-3.94-1.43-4.07-.35-3.29-2.69.1-1.06,3.15-.62,4.24-1.16,3.98-.43,2.67ZM180.74,77.24l-3.3-4.24-3.44-4.06,2.83-2.85,3.05-2.76,2.85-2.75,1.21,4.08-.26,4.61-1.13,4.04-1.8,3.94ZM175.45,68.99l2.82,3.33,2.23,2.87,1.05-2.3,1.07-3.86.23-4.26-.66-2.22-1.59,1.54-3.04,2.75-2.11,2.13ZM171.45,74.93l-.89-2.37,3.04-3.56,3.14,3.36-1.06,2.2-3.84.35h-.38ZM171.77,72.77l.4,1.05,2.8-.26.48-1-1.82-1.95-1.85,2.17Z"/><path class="cls-1" d="M135.44,68.92l.23-4.46v-.02s-.09-4.51-.09-4.51l-.05-4.49v-4.51s-.08-4.48-.08-4.48l.23-4.49.13-4.49.31-4.55-.64-4.48.61-4.47-.09-4.54-.31-4.51-.08-4.5-.16-4.47.44-5.11-5.27-.29-4.59.39-4.55-.16-4.58-.1h0s-4.58.05-4.58.05l-4.57-.03-4.61-.14-4.57.29-4.59-.22-4.56.52-4.57-.61-4.59.42-4.58-.37-4.91.54-.28,4.79.03,4.52.36,4.48-.63,4.51.59,4.54v4.45s-.22,4.47-.22,4.47l-.42,4.54.35,4.5-.33,4.48.07,4.52.38,4.52.12,4.44-.63,4.53.56,4.53-.14,4.47.14,4.48-.42,4.47v.03s.03,4.54.03,4.54l.14,5.13,5.22-.17,4.53-.18,4.57.59,4.61-.04,4.58.06h.02s4.61-.25,4.61-.25l2.92-.21,2.14-.05,4.04.47,4.62-.15,4.56-.36,4.54.33,4.6.17h.02s4.59-.1,4.59-.1l4.99-.38v-4.89s-.18-4.5-.18-4.5l-.05-4.47.5-4.53-.47-4.52ZM71.97,23.94l-.58-4.5.62-4.49-.37-4.54-.03-4.46.22-3.82,3.87-.43,4.57.37,4.56-.42,4.59.61,4.6-.53,4.56.22,4.58-.3,4.57.14,4.59.03,4.57-.05,4.56.1,4.61.16,4.57-.39,4.05.23-.35,4.04.16,4.52.08,4.5.31,4.51.09,4.44-.62,4.53.65,4.52-.3,4.44-.13,4.51-.23,4.5v.02s.08,4.51.08,4.51v4.51s.04,4.51.04,4.51l.08,3.87-3.48-.9-4.45-1.45-4.58-1.38-4.79-.09-9.25-1.13-4.75-.3-9.35.61-4.65.53-4.75.4-4.46,1.6-4.61.9-4.1,1.7.6-4.35-.13-4.55-.38-4.51-.07-4.46.33-4.52-.35-4.49.41-4.45.24-4.52v-.02s-.01-4.52-.01-4.52ZM105.23,90.69l-1.49.04-.56-.06-1.68.12h-.15s-2.98-.26-2.98-.26l.52-3.27,1.17-4.01.61-4.21,1.19-3.55h.02s3.54-.14,3.54-.14l.4,3.79,1.41,3.99.83,4.01.33,3.43-3.18.13ZM99.66,72.48l-2.55,3.72-1.38-3.16-1.17-3.93-.26-4.4.97-3.21,2.29,2.11,2.8,2.96,2.38,2.36-3.08,3.54ZM103.49,69.79l2.48,2.66-.77,1.6-3.38.32h-.12s-.65-1.71-.65-1.71l2.45-2.87ZM104.61,68.96l2.48-2.5,3.03-2.74,2.22-2.15.93,3.15-.23,4.41-1.1,3.96-1.44,3.14-2.76-3.55-3.14-3.71ZM109.36,62.9l-3.02,2.74-2.65,2.67-2.53-2.51-2.8-2.96-2.87-2.64,7.77-.51,4.63.29,4,.49-2.53,2.44ZM94,91.24l-4.57-.06-4.54.04-4.59-.59-4.62.18-4.1.14-.11-4.01-.04-4.47.42-4.47v-.03s-.13-4.52-.13-4.52l.14-4.53-.45-3.61.06.15,4.27-1.77,4.54-.89,4.44-1.59,4.62-.39,4.62-.52.5-.03-1.3,4.32.28,4.72,1.22,4.09,2.22,5.09,3.32-4.86.59,1.55-1.21,3.6-.61,4.19-1.17,4-.66,4.1-3.17.17ZM134.36,82.46l.17,4.49v3.84s-3.91.3-3.91.3l-4.55.09-4.55-.17-4.61-.34-4.61.36-2.72.09-.39-4.14-.86-4.13-1.4-3.97-.51-4.8.39-.81.07.08,3.87,4.98,2.22-4.85,1.17-4.2.25-4.72-1.17-3.95,3.92.48,4.72.09,4.42,1.33,4.46,1.45,3.79.98-.2,3.99.47,4.48-.49,4.47.05,4.55Z"/><path class="cls-2" d="M94.03,92.88h-.02s-4.6-.06-4.6-.06l-4.63.04h-.04s-4.53-.59-4.53-.59l-4.49.18-5.76.19-.15-5.67-.04-4.57.42-4.49-.13-4.45.14-4.47-.57-4.56.63-4.55-.12-4.39-.38-4.53-.07-4.55.32-4.47-.35-4.51.42-4.58.23-4.45v-4.39s-.61-4.58-.61-4.58l.63-4.53-.36-4.46-.03-4.52.31-5.28,5.41-.6,4.59.37L84.87,0h.06s4.51.61,4.51.61l4.53-.52,4.61.23,4.57-.29,4.63.14,4.55.03,4.57-.05,4.61.1,4.53.16L130.63,0l5.86.33-.49,5.63.16,4.43.08,4.51.31,4.48.09,4.61-.61,4.43.64,4.46-.31,4.6-.13,4.47-.23,4.49.08,4.46v4.52s.04,4.49.04,4.49l.09,4.53-.23,4.45.48,4.53-.5,4.55.05,4.44.17,4.49v5.4s-5.47.42-5.47.42l-4.64.1h-.03s-4.6-.17-4.6-.17l-4.52-.33-4.52.35-4.68.16-4.04-.47-2.1.05-2.9.21-4.64.25ZM89.42,91.75l4.59.06,4.59-.25,2.91-.21,2.2-.05,4.03.47,4.58-.15,4.58-.36h.04s4.54.33,4.54.33l4.58.17,4.58-.1,4.47-.34v-4.39s-.18-4.49-.18-4.49l-.05-4.51.49-4.5-.47-4.5.23-4.5-.09-4.5-.05-4.5v-4.52s-.08-4.49-.08-4.49v-.02s.23-4.49.23-4.49l.13-4.48.31-4.51-.64-4.5.62-4.5-.09-4.5-.31-4.49-.08-4.52-.16-4.49.4-4.6-4.68-.26-4.58.39-4.59-.16-4.57-.1-4.57.05-4.58-.03-4.59-.14-4.58.29-4.58-.22-4.58.52-4.58-.61-4.58.42-4.58-.37-4.41.49-.25,4.34.03,4.47.37,4.52-.63,4.5.59,4.54v4.45s-.22,4.5-.22,4.5l-.41,4.51.35,4.5-.33,4.5.07,4.48.38,4.5.13,4.51-.4,2.86.03.08.41-2.93-.13-4.5-.38-4.52-.07-4.48.33-4.5-.35-4.5.41-4.5.24-4.5v-4.47s-.6-4.53-.6-4.53l.63-4.5-.37-4.52-.03-4.46.25-4.31,4.37-.48,4.58.37,4.58-.42h.06s4.52.61,4.52.61l4.58-.52,4.58.22,4.58-.29,4.59.14,4.58.03,4.56-.05,4.58.1,4.59.16,4.58-.39,4.63.26-.39,4.56.16,4.49.08,4.51.31,4.49.09,4.51-.62,4.5.64,4.5-.31,4.5-.13,4.49-.23,4.51.08,4.49v4.52s.04,4.5.04,4.5l.09,4.57-4.16-1.08-4.48-1.46-4.5-1.36-4.77-.09-9.25-1.13-4.68-.29-9.32.61-4.62.52-4.7.4-4.47,1.6-4.56.89-3.83,1.59.02.04,3.88-1.59,4.5-.88,4.54-1.61,4.62-.39,4.89-.54h0s9.05-.59,9.05-.59l4.66.29,5.15.63h0s4.12.5,4.12.5l4.77.09,4.49,1.35,4.47,1.45,4.18,1.08-.22,4.38.47,4.5-.49,4.5.05,4.51.17,4.48v4.36s-4.4.34-4.4.34l-4.58.1-4.58-.17-4.59-.34-4.57.36-3.24.11-.44-4.61-.84-4.07-1.41-4.06-.53-4.95.82-1.69.6.71,3.35,4.31,1.83-4.01,1.14-4.1.24-4.57-1.23-4.15-2.91,2.81-3.02,2.74-3,3.03-2.91-2.89-2.8-2.96-3-2.76-1.26,4.19.27,4.57,1.19,4,1.82,4.18,3.3-4.83-.22.25-3.07,4.49-1.79-4.11-1.19-4.05-.26-4.49,1.24-4.11,2.95,2.71,2.8,2.96,2.72,2.7-3.11,3.57,1.01,2.68-1.25,3.74-.62,4.22-1.16,3.97-.72,4.49-3.61.19h-.02s-4.57-.06-4.57-.06l-4.57.04h-.04s-4.54-.59-4.54-.59l-4.58.18-4.64.15-.12-4.54-.04-4.51.42-4.5-.14-4.49.14-4.52-.48-3.85-.04.02.48,3.83-.14,4.52.14,4.48-.42,4.5.04,4.51.12,4.59,4.68-.16,4.58-.18,4.58.59,4.57-.04ZM89.42,90.64l4.57.06,2.72-.15.6-3.74,1.16-3.97.62-4.25,1.15-3.42-.16-.41-3.29,4.81-2.63-6.04-1.24-4.21-.28-4.82,1.1-3.66-4.33.49-4.57.39-4.46,1.59-4.49.88-3.89,1.61.38,3.08-.14,4.57.14,4.52-.42,4.51.04,4.44.09,3.46,3.56-.12,4.67-.19,4.6.59,4.5-.04ZM116.91,90.15h.04s4.61.34,4.61.34l4.53.17,4.52-.1,3.39-.26v-3.35s-.18-4.49-.18-4.49l-.05-4.58.49-4.45-.47-4.47.18-3.6-3.37-.87-4.49-1.46-4.34-1.31-4.7-.09-3.12-.38.97,3.26-.27,4.93-1.2,4.28-2.58,5.65-3.88-5,.47,4.41,1.4,3.98.86,4.19.35,3.64,2.22-.07,4.63-.36ZM96.23,72.85l.98,2.25,2.04-2.98,2.75-3.17-2.02-2.01-2.8-2.96-1.65-1.52-.69,2.3.25,4.24,1.15,3.84ZM96.76,60.64l1.98,1.82,2.8,2.96,2.14,2.12,2.27-2.29,3.04-2.75,1.72-1.66-2.89-.35-4.56-.28-6.49.42ZM70.73,64.44l.02.16.02-.16-.02-.16-.02.16ZM71.96,50.89l.38,4.49.13,4.62-.48,3.47,3.34-1.37,4.57-.89,4.49-1.61,4.82-.41,4.63-.53,9.41-.61,4.78.3,9.25,1.13,4.84.09,4.65,1.4,4.46,1.45,2.76.72-.06-3.17-.05-4.51v-4.51s-.08-4.52-.08-4.52v-.04s.23-4.5.23-4.5l.13-4.5.3-4.41-.65-4.54.63-4.57-.09-4.4-.31-4.49-.08-4.53-.16-4.55.3-3.53-3.46-.19-4.57.38-4.64-.16-4.56-.1-4.55.05-4.6-.03-4.55-.14-4.59.3-4.55-.22-4.63.53-4.59-.61-4.55.42-4.57-.37-3.37.37-.2,3.37.03,4.41.37,4.58-.62,4.47.58,4.49v4.53s0,.03,0,.03l-.24,4.52-.41,4.43.35,4.49-.33,4.53.07,4.41ZM101.34,91.32l-3.58-.32.63-3.9,1.16-3.97.63-4.27,1.3-3.87.39-.04,4.04-.15.45,4.22,1.41,4,.84,4.06.38,3.99-3.75.16-1.53.04-.55-.06-1.83.12ZM99,90.04l2.38.21h.11s1.7-.12,1.7-.12l.57.07,1.45-.04,2.61-.11-.27-2.84-.82-3.94-1.43-4.07-.35-3.29-2.69.1-1.06,3.15-.62,4.24-1.16,3.98-.43,2.67ZM110.62,77.24l-3.3-4.24-3.44-4.06,2.83-2.85,3.05-2.76,2.84-2.75,1.21,4.08-.26,4.61-1.13,4.03-1.8,3.94ZM105.33,68.99l2.82,3.33,2.23,2.87,1.05-2.3,1.07-3.86.23-4.26-.66-2.22-1.59,1.54-3.04,2.75-2.11,2.13ZM101.33,74.93l-.9-2.37,3.04-3.56,3.14,3.36-1.06,2.2-3.84.35-.39.02ZM101.66,72.77l.4,1.05,2.8-.26.48-1-1.82-1.95-1.85,2.17Z"/><polygon class="cls-2" points="101.14 49.61 100.74 47.67 105.42 46.69 108.74 46.82 106.68 43.51 104.68 38.84 101.68 34.68 103.29 33.52 106.42 37.86 108.47 42.66 112.43 48.96 105.58 48.69 101.14 49.61"/><polygon class="cls-2" points="91.69 14.98 88.79 14.38 86.26 13.04 86.78 12.06 89.17 13.33 91.74 13.85 94.32 13.57 96.7 12.58 98.92 11.22 101.05 9.49 101.75 10.35 99.53 12.14 97.17 13.58 94.6 14.66 91.69 14.98"/><path class="cls-2" d="M91.66,15.52l-3.05-.63-3.07-1.63,1.02-1.92,2.8,1.49,2.41.5,2.42-.26,2.28-.95,2.15-1.32,2.51-2.04,1.37,1.69-2.69,2.17-2.43,1.48-2.64,1.11-3.07.33ZM88.98,13.88l2.74.56,2.75-.3,2.46-1.03,2.3-1.4,1.77-1.43-.03-.03-1.77,1.43-2.29,1.4-2.46,1.03-2.74.3-2.72-.56-1.99-1.06-.02.04,1.99,1.06Z"/><polygon class="cls-2" points="114.61 14.66 111.79 14.45 109.1 13.65 106.61 12.27 104.55 10.34 105.31 9.53 107.27 11.37 109.53 12.62 111.99 13.35 114.55 13.54 117.05 13.05 119.28 11.66 119.86 12.6 117.47 14.1 114.61 14.66"/><path class="cls-2" d="M114.64,15.2l-3.01-.24-2.79-.84-2.6-1.46-2.45-2.3,1.49-1.59,2.3,2.16,2.15,1.19,2.35.69,2.43.18,2.34-.46,2.59-1.62,1.15,1.85-2.93,1.83-3.02.59ZM111.88,13.92l2.7.2,2.69-.53,1.86-1.16-.02-.04-1.85,1.16-2.67.52-2.74-.22-2.56-.77-2.37-1.33-1.57-1.48-.03.03,1.62,1.53,2.38,1.32,2.58.76Z"/><path class="cls-2" d="M112.37,43.49l-2.92-.63-2.28-1.79-1.95-2.02-.88-2.63-1.22-2.41-.61-2.74.04-2.74v-2.72s.59-2.75.59-2.75l.96-2.55,1.53-2.28,1.64-2.15,2.34-1.52,2.7-.65,2.93.29,2.29,1.83,1.6,2.25,1.35,2.32.81,2.61.62,2.63.05,2.69.14,2.75-.84,2.62-.67,2.61-1.32,2.44-1.6,2.3-2.47,1.52-2.83.72ZM109.94,41.83l2.41.52,2.41-.62,2.13-1.31,1.45-2.09,1.21-2.24.65-2.53.79-2.44-.13-2.58-.05-2.58-.59-2.49-.75-2.43-1.28-2.19-1.47-2.06-1.91-1.53-2.41-.24-2.33.56-2.02,1.32-1.52,1.99-1.43,2.13-.9,2.39-.53,2.52v2.61s-.05,2.61-.05,2.61l.56,2.48,1.21,2.39.81,2.43,1.74,1.81,1.99,1.55Z"/><path class="cls-2" d="M112.38,44.04l-3.16-.69-2.43-1.91-2.03-2.11-.9-2.7-1.25-2.5-.63-2.8.04-2.8.02-2.82.61-2.83,1.02-2.66,1.53-2.28,1.72-2.25,2.49-1.63,2.88-.7,3.17.32,2.47,1.98,1.67,2.35,1.4,2.43.82,2.65.63,2.74.05,2.69.15,2.83-.87,2.71-.71,2.7-1.35,2.49-1.66,2.39-2.64,1.62-3.03.78ZM109.69,42.36l2.67.58,2.63-.67,2.31-1.42,1.52-2.19,1.28-2.36.65-2.55.82-2.56-.14-2.66-.05-2.65-.6-2.55-.78-2.53-1.31-2.25-1.54-2.17-2.11-1.69-2.68-.27-2.52.61-2.18,1.42-1.59,2.08-1.48,2.2-.93,2.46-.56,2.66v2.66s-.05,2.68-.05,2.68l.59,2.62,1.22,2.42.84,2.51,1.84,1.91,2.15,1.69ZM112.36,42.9l-2.66-.58-2.14-1.68-1.83-1.9-.84-2.51-1.23-2.48-.57-2.54.04-2.68.02-2.71.55-2.6.96-2.5,1.43-2.13,1.59-2.08,2.17-1.42,2.51-.61,2.66.26,2.09,1.67,1.54,2.16,1.33,2.3.76,2.47.6,2.6.05,2.58.14,2.66-.82,2.53-.69,2.62-1.24,2.29-1.51,2.18-2.3,1.41-2.62.67ZM110.17,41.33l2.17.47,2.21-.57,1.97-1.21,1.37-1.97,1.17-2.16.63-2.46.76-2.38-.13-2.48-.05-2.54-.57-2.42-.73-2.36-1.23-2.12-1.41-1.98-1.73-1.38-2.16-.21-2.15.52-1.86,1.22-1.46,1.91-1.38,2.05-.87,2.3-.51,2.42v2.56s-.04,2.56-.04,2.56l.53,2.35,1.21,2.41.77,2.31,1.64,1.7,1.86,1.46Z"/><path class="cls-2" d="M93.92,43.15l-2.78-.53-2.3-1.64-1.96-1.93-1.32-2.5-.67-2.64-.69-2.64v-2.8s.35-2.6.35-2.6l.24-2.68.82-2.67,1.48-2.36,3.87-3.97,2.98-.47,2.77.76,2.21,1.65,2.11,1.87.98,2.64.91,2.52.74,2.66-.19,2.72.18,2.7-.59,2.74-1.17,2.45-1.15,2.44-1.56,2.33-2.54,1.38-2.73.56ZM91.58,41.58l2.33.45,2.35-.48,2.15-1.17,1.39-2.07,1.09-2.34,1.12-2.34.53-2.46-.17-2.62.19-2.6-.68-2.45-.89-2.46-.88-2.38-1.88-1.67-1.99-1.48-2.34-.64-2.38.37-3.53,3.62-1.34,2.14-.75,2.41-.23,2.6-.34,2.58v2.55s.64,2.5.64,2.5l.64,2.52,1.17,2.23,1.8,1.78,2,1.42Z"/><path class="cls-2" d="M93.92,43.7l-3-.58-2.46-1.76-2.02-1.99-1.4-2.69-.67-2.64-.7-2.7.02-2.94.34-2.6.26-2.77.84-2.73,1.59-2.51,4-4.1,3.27-.51,2.98.82,2.33,1.74,2.21,1.96,1.03,2.77.92,2.56.77,2.75-.2,2.78.18,2.74-.64,2.93-1.17,2.45-1.18,2.51-1.63,2.44-2.72,1.48-2.91.6ZM91.35,42.12l2.56.49,2.55-.52,2.35-1.28,1.47-2.19,1.13-2.41,1.15-2.4.56-2.61-.17-2.66.19-2.66-.71-2.55-.9-2.5-.93-2.51-1.99-1.77-2.11-1.58-2.56-.7-2.69.42-3.71,3.8-1.41,2.25-.79,2.54-.23,2.63-.34,2.59v2.7s.66,2.57.66,2.57l.65,2.59,1.25,2.37,1.87,1.84,2.17,1.55ZM93.91,42.57l-2.55-.49-2.16-1.54-1.86-1.83-1.26-2.42-.64-2.52-.67-2.56v-2.69s.35-2.58.35-2.58l.25-2.69.77-2.48,1.44-2.29,3.66-3.75,2.67-.42,2.55.7,2.1,1.57,1.98,1.76.93,2.5.9,2.5.71,2.54-.19,2.66.17,2.66-.58,2.66-1.12,2.34-1.13,2.4-1.46,2.18-2.34,1.27-2.53.52ZM91.8,41.07l2.11.41,2.17-.44,1.97-1.07,1.29-1.93,1.07-2.3,1.09-2.29.5-2.33-.17-2.58.18-2.55-.65-2.34-.88-2.44-.84-2.25-1.77-1.57-1.89-1.41-2.13-.58-2.09.33-3.37,3.45-1.27,2.03-.71,2.29-.22,2.55-.34,2.57v2.45s.63,2.43.63,2.43l.62,2.46,1.11,2.1,1.71,1.69,1.87,1.32Z"/><path class="cls-2" d="M252.2,44.94l-2.73-.66-2.21-1.65-1.65-2.1-1.54-2.24-.65-2.64-.7-2.6-.3-2.68.27-2.76.64-2.53.54-2.66,1.34-2.51,2.1-1.79,2.07-1.84,2.86-.48,2.72.65,2.38,1.46,1.82,2.12,1.22,2.48.63,2.63.49,2.55.46,2.67-.25,2.77-.63,2.58-.83,2.52-1.07,2.5-1.81,2.13-2.35,1.58-2.81.5ZM249.94,43.27l2.29.55,2.35-.42,2.03-1.37,1.61-1.89.99-2.32.8-2.43.6-2.48.22-2.51-.43-2.52-.49-2.52-.59-2.47-1.11-2.24-1.62-1.88-2.08-1.28-2.33-.55-2.33.39-1.84,1.64-1.95,1.66-1.17,2.18-.52,2.55-.63,2.5-.24,2.53.28,2.52.68,2.48.61,2.46,1.41,2.06,1.53,1.95,1.91,1.42Z"/><path class="cls-2" d="M252.18,45.48l-2.95-.71-2.36-1.75-1.69-2.16-1.61-2.34-.67-2.73-.71-2.66-.3-2.73.29-2.9.64-2.53.55-2.71,1.42-2.67,2.18-1.85,2.17-1.93,3.12-.52,2.9.69,2.52,1.55,1.95,2.29,1.26,2.59.63,2.63.5,2.57.47,2.75-.27,2.92-.64,2.63-.85,2.56-1.1,2.57-1.91,2.25-2.5,1.69-3.03.54ZM249.69,43.8l2.52.61,2.59-.46,2.2-1.48,1.71-2.02,1.03-2.4.82-2.47.62-2.53.24-2.66-.45-2.61-.49-2.54-.61-2.55-1.17-2.37-1.72-2-2.24-1.37-2.53-.6-2.61.44-1.95,1.74-2.03,1.73-1.26,2.35-.53,2.59-.64,2.52-.26,2.67.29,2.58.69,2.56.63,2.56,1.48,2.16,1.59,2.02,2.07,1.54ZM252.22,44.36l-2.5-.61-2.06-1.53-1.57-2-1.49-2.16-.63-2.55-.69-2.55-.29-2.57.26-2.66.64-2.5.53-2.6,1.25-2.34,2.03-1.72,1.94-1.73,2.58-.43,2.51.6,2.22,1.36,1.74,2.06,1.15,2.35.59,2.47.49,2.55.44,2.6-.24,2.65-.61,2.52-.82,2.47-1.02,2.39-1.71,2.01-2.18,1.47-2.57.46ZM250.17,42.78l2.08.5,2.13-.38,1.88-1.27,1.51-1.78.95-2.23.79-2.39.59-2.42.21-2.4-.42-2.45-.49-2.51-.57-2.39-1.05-2.13-1.52-1.77-1.94-1.19-2.14-.51-2.07.35-1.72,1.54-1.88,1.6-1.08,2.03-.5,2.47-.63,2.49-.23,2.43.27,2.42.67,2.44.59,2.38,1.36,1.98,1.46,1.86,1.77,1.32Z"/><path class="cls-2" d="M234,45.19l-2.86-.66-2.41-1.56-1.78-2.23-1.31-2.37-.84-2.67-.37-2.66.11-2.67.04-2.66.38-2.68.79-2.61,1.19-2.47,1.94-2.06,2.41-1.35,2.68-.74,2.79.58,2.32,1.57,1.83,2.09,1.16,2.53.74,2.53.63,2.6v2.67s.03,2.68.03,2.68l-.64,2.59-.51,2.68-1.4,2.46-2.02,1.89-2.12,1.66-2.78.85ZM231.57,43.5l2.38.55,2.31-.71,1.94-1.52,1.84-1.73,1.23-2.15.48-2.55.61-2.47-.04-2.56v-2.55s-.58-2.46-.58-2.46l-.72-2.45-1.05-2.28-1.63-1.87-2.02-1.37-2.32-.48-2.29.64-2.15,1.2-1.7,1.81-1.1,2.28-.73,2.44-.35,2.52-.03,2.57-.11,2.59.35,2.52.78,2.43,1.23,2.24,1.58,1.98,2.1,1.36Z"/><path class="cls-2" d="M234.01,45.74l-3.09-.72-2.56-1.66-1.88-2.37-1.35-2.47-.86-2.75-.38-2.71.11-2.72.04-2.71.4-2.76.82-2.68,1.23-2.54,2.05-2.18,2.6-1.43,2.8-.78,3.02.62,2.47,1.66,1.93,2.2,1.22,2.68.74,2.53.65,2.69v2.74s.03,2.74.03,2.74l-.66,2.66-.52,2.74-1.48,2.6-2.11,1.97-2.2,1.72-3.01.92ZM231.34,44.04l2.63.61,2.55-.78,2.02-1.59,1.94-1.82,1.32-2.31.49-2.59.63-2.55-.04-2.61v-2.62s-.6-2.54-.6-2.54l-.72-2.47-1.12-2.43-1.74-1.99-2.18-1.47-2.57-.53-2.49.69-2.28,1.27-1.82,1.94-1.14,2.36-.76,2.53-.37,2.61-.04,2.63-.11,2.64.36,2.57.81,2.58,1.26,2.29,1.7,2.13,2.26,1.46ZM233.97,44.6l-2.61-.61-2.25-1.45-1.69-2.12-1.27-2.33-.8-2.52-.36-2.57.11-2.64.04-2.62.37-2.6.76-2.52,1.13-2.35,1.81-1.93,2.33-1.29,2.41-.67,2.55.52,2.17,1.46,1.73,1.98,1.11,2.42.72,2.45.62,2.55v2.61s.03,2.61.03,2.61l-.63,2.53-.49,2.6-1.31,2.3-1.93,1.81-2.02,1.58-2.54.78ZM231.78,43.01l2.16.5,2.08-.64,1.84-1.44,1.76-1.66,1.14-2.01.47-2.46.6-2.43-.04-2.49v-2.49s-.57-2.4-.57-2.4l-.7-2.39-1-2.17-1.54-1.76-1.88-1.27-2.09-.43-2.11.58-2.02,1.13-1.59,1.7-1.04,2.17-.71,2.36-.34,2.45-.03,2.54-.1,2.56.34,2.43.75,2.34,1.19,2.15,1.5,1.87,1.95,1.26Z"/><polygon class="cls-2" points="226.57 17.54 225.65 16.95 227.02 14.79 228.84 12.98 231.13 11.81 233.61 11.33 236.34 11.33 238.72 12.67 240.68 14.39 242.21 16.52 241.31 17.16 239.86 15.13 238.08 13.57 236.05 12.43 233.72 12.43 231.49 12.86 229.49 13.88 227.88 15.48 226.57 17.54"/><path class="cls-2" d="M226.74,18.27l-1.82-1.15,1.73-2.7,1.88-1.87,2.43-1.23,2.65-.51h2.87s2.59,1.47,2.59,1.47l2.04,1.81,1.83,2.56-1.75,1.25-1.72-2.41-1.69-1.48-1.87-1.05h-2.15s-2.1.41-2.1.41l-1.86.94-1.51,1.5-1.56,2.45ZM226.37,16.79l.04.02,1.1-1.7,1.67-1.66,2.14-1.08,2.4-.46h2.47s2.24,1.27,2.24,1.27l1.86,1.65,1.14,1.6.04-.03-1.18-1.65-1.87-1.64-2.22-1.24h-2.54s-2.36.46-2.36.46l-2.15,1.09-1.72,1.71-1.06,1.67Z"/><polygon class="cls-2" points="259.45 17.52 258.44 15.37 256.73 13.84 254.72 12.7 252.51 12.11 250.19 12.45 248.11 13.59 246.32 15.13 244.83 17.15 243.95 16.49 245.51 14.38 247.48 12.68 249.83 11.39 252.58 10.99 255.14 11.68 257.38 12.94 259.35 14.7 260.45 17.05 259.45 17.52"/><path class="cls-2" d="M259.2,18.22l-1.19-2.53-1.59-1.42-1.9-1.07-2.04-.55-2.12.31-1.94,1.07-1.71,1.47-1.77,2.39-1.73-1.28,1.96-2.62,2.06-1.76,2.43-1.34,2.95-.43,2.79.76,2.33,1.33,2.05,1.83,1.37,2.93-1.95.92ZM252.54,11.58l2.44.67,2.1,1.2,1.79,1.6.83,1.77.04-.02-.83-1.78-1.84-1.65-2.13-1.2-2.4-.64-2.55.37-2.21,1.22-1.89,1.62-1.22,1.64.04.03,1.26-1.68,1.88-1.61,2.16-1.19,2.53-.36Z"/><polygon class="cls-2" points="250.44 51.34 244.38 50.71 244.58 48.76 250.53 49.37 254.07 49.34 251.57 46.21 246.42 42.34 247.6 40.77 252.95 44.79 258.12 51.26 250.44 51.34"/><path class="cls-1" d="M275.09,68.4l.23-4.4v-.02s-.09-4.46-.09-4.46l-.04-4.44v-4.46s-.08-4.43-.08-4.43l.23-4.44.13-4.44.31-4.49-.63-4.43.6-4.41-.09-4.49-.31-4.46-.08-4.44-.16-4.41.44-5.05-5.21-.29-4.53.38-4.5-.16-4.53-.1h0s-4.52.05-4.52.05l-4.51-.03-4.55-.14-4.52.29-4.54-.22-4.5.51-4.52-.6-4.54.42-4.53-.37-4.85.54-.28,4.74.03,4.47.36,4.43-.62,4.46.58,4.49v4.4s-.22,4.42-.22,4.42l-.41,4.48.35,4.45-.32,4.43.07,4.47.37,4.47.12,4.39-.62,4.47.56,4.48-.14,4.42.13,4.43-.42,4.41v.03s.03,4.48.03,4.48l.14,5.07,5.16-.17,4.48-.18,4.52.58,4.55-.04,4.53.06h.02s4.55-.25,4.55-.25l2.89-.21,2.11-.05,3.99.46,4.56-.15,4.51-.35,4.48.33,4.54.17h.02s4.54-.09,4.54-.09l4.93-.38v-4.83s-.18-4.45-.18-4.45l-.05-4.41.49-4.47-.47-4.46ZM212.37,23.96l-.57-4.44.62-4.43-.37-4.49-.03-4.41.22-3.78,3.82-.42,4.52.37,4.51-.41,4.53.6,4.55-.52,4.51.22,4.53-.29,4.51.14,4.53.03,4.52-.05,4.51.1,4.56.16,4.52-.38,4,.22-.34,3.99.16,4.47.08,4.45.31,4.46.08,4.39-.61,4.48.64,4.47-.3,4.39-.13,4.46-.23,4.45v.02s.08,4.46.08,4.46v4.45s.04,4.45.04,4.45l.08,3.82-3.44-.89-4.4-1.43-4.53-1.36-4.73-.08-9.14-1.12-4.69-.29-9.24.6-4.59.52-4.69.4-4.41,1.59-4.55.89-4.06,1.68.6-4.29-.13-4.49-.37-4.46-.07-4.4.32-4.46-.35-4.44.4-4.4.23-4.47h0s-.01-4.48-.01-4.48ZM245.24,89.92l-1.47.04-.55-.06-1.66.12h-.14s-2.94-.26-2.94-.26l.51-3.23,1.16-3.96.61-4.16,1.17-3.5h.02s3.5-.13,3.5-.13l.4,3.75,1.39,3.94.82,3.96.32,3.39-3.14.13ZM239.73,71.92l-2.52,3.68-1.37-3.12-1.16-3.88-.26-4.35.96-3.17,2.27,2.08,2.77,2.93,2.35,2.33-3.04,3.5ZM243.52,69.27l2.45,2.63-.77,1.58-3.34.31h-.12s-.64-1.69-.64-1.69l2.42-2.83ZM244.62,68.44l2.45-2.47,2.99-2.71,2.2-2.12.92,3.11-.23,4.35-1.08,3.91-1.42,3.1-2.72-3.51-3.1-3.66ZM249.31,62.46l-2.99,2.71-2.61,2.63-2.5-2.48-2.77-2.93-2.84-2.61,7.68-.5,4.57.28,3.96.48-2.5,2.41ZM234.14,90.46l-4.52-.06-4.49.04-4.53-.59-4.57.18-4.05.13-.11-3.96-.04-4.42.42-4.42v-.03s-.13-4.46-.13-4.46l.14-4.47-.44-3.57.06.15,4.22-1.75,4.49-.88,4.39-1.57,4.57-.39,4.57-.52.5-.03-1.29,4.27.27,4.67,1.2,4.04,2.2,5.03,3.28-4.81.58,1.53-1.19,3.56-.6,4.14-1.16,3.96-.65,4.05-3.13.17ZM274.02,81.78l.17,4.44v3.8s-3.86.3-3.86.3l-4.49.09-4.5-.16-4.56-.33-4.55.36-2.69.09-.39-4.09-.85-4.08-1.38-3.92-.5-4.74.39-.8.06.08,3.83,4.93,2.19-4.79,1.16-4.15.25-4.66-1.16-3.91,3.88.47,4.67.09,4.37,1.32,4.4,1.43,3.74.97-.2,3.94.47,4.43-.49,4.42.05,4.5Z"/><path class="cls-2" d="M234.17,92.08h-.02s-4.54-.06-4.54-.06l-4.58.04-4.51-.58-4.44.18-5.69.19-.15-5.6-.04-4.52.42-4.44-.13-4.4.14-4.41-.56-4.5.62-4.5-.12-4.34-.37-4.48-.07-4.49.32-4.41-.35-4.46v-.04s.42-4.48.42-4.48l.23-4.4v-4.33s-.6-4.52-.6-4.52l.62-4.47-.36-4.41-.03-4.47.3-5.22,5.34-.59,4.53.37,4.55-.42h.06s4.45.6,4.45.6l4.48-.51,4.55.22,4.51-.29h.02s4.55.14,4.55.14l4.5.03,4.52-.05,4.55.1,4.48.16,4.54-.38,5.79.32-.48,5.56.15,4.38.08,4.45.31,4.43.09,4.56-.6,4.38.63,4.41-.31,4.55-.13,4.42-.23,4.43.08,4.41v4.47s.04,4.43.04,4.43l.09,4.47-.23,4.4.47,4.48-.49,4.5.05,4.38.17,4.44v5.34s-5.41.41-5.41.41l-4.59.1h-.03s-4.54-.17-4.54-.17l-4.46-.33-4.47.35-4.63.15-3.99-.46-2.07.05-2.86.2-4.58.25ZM229.61,90.97l4.54.06,4.54-.24,2.88-.2,2.17-.05,3.99.46,4.53-.15,4.52-.35h.04s4.48.33,4.48.33l4.53.17,4.53-.09,4.42-.34v-4.34s-.18-4.43-.18-4.43l-.05-4.46.49-4.45-.47-4.45.23-4.45-.09-4.44-.05-4.45v-4.46s-.08-4.44-.08-4.44v-.02s.23-4.44.23-4.44l.13-4.42.3-4.46-.64-4.45.61-4.45-.09-4.45-.31-4.43-.08-4.47-.16-4.44.39-4.54-4.63-.26-4.53.38-4.53-.16-4.52-.1-4.52.05-4.52-.03-4.54-.14-4.52.29-4.52-.22-4.52.52-4.52-.6-4.53.42-4.52-.37-4.36.48-.25,4.29.03,4.41.36,4.47-.62,4.45.58,4.48v4.4s-.22,4.45-.22,4.45l-.41,4.46.35,4.45-.32,4.45.07,4.43.37,4.45.13,4.46-.39,2.83.03.08.4-2.9-.12-4.45-.37-4.46-.07-4.43.32-4.45-.35-4.45v-.04s.41-4.4.41-4.4l.23-4.45v-4.41s-.59-4.48-.59-4.48l.62-4.45-.36-4.47-.03-4.41.25-4.25,4.32-.48,4.52.37,4.52-.42h.06s4.47.6,4.47.6l4.53-.52,4.52.22,4.53-.29,4.54.14,4.52.03,4.51-.05,4.53.1,4.53.16,4.53-.38,4.58.25-.39,4.5.16,4.44.08,4.46.31,4.43.09,4.46-.61,4.45.64,4.45-.3,4.44-.13,4.44-.23,4.46.08,4.44v4.46s.04,4.45.04,4.45l.09,4.52-4.11-1.07-4.43-1.44-4.45-1.34-4.71-.09-9.14-1.12-4.63-.29-9.21.6-4.57.52-4.64.4-4.42,1.58-4.5.88-3.79,1.57.02.04,3.84-1.58,4.45-.87,4.42-1.58,4.64-.39,5.07-.55,8.7-.57,4.61.29,5.09.62h0s4.07.5,4.07.5l4.71.09,4.44,1.34,4.41,1.44,4.13,1.07-.22,4.33.47,4.45-.49,4.45.05,4.46.17,4.43v4.31s-4.35.33-4.35.33l-4.52.1-4.53-.16-4.54-.33-4.51.35-3.21.11-.43-4.56-.83-4.02-1.4-4.01-.52-4.89.81-1.67.59.7,3.31,4.26,1.81-3.96,1.13-4.05.24-4.51-1.22-4.1-2.87,2.78-2.99,2.71-2.97,2.99-2.87-2.85-2.77-2.93-2.96-2.73-1.25,4.14.27,4.51,1.18,3.95,1.8,4.13,3.26-4.77-.21.25-3.04,4.44-1.77-4.06-1.18-4-.26-4.44,1.23-4.07,2.91,2.68,2.77,2.93,2.69,2.67-3.07,3.53,1,2.65-1.24,3.69-.61,4.17-1.15,3.92-.71,4.44-3.57.19h-.02s-4.52-.06-4.52-.06l-4.51.04h-.04s-4.49-.59-4.49-.59l-4.52.18-4.58.15-.12-4.49-.04-4.45v-.03s.42-4.42.42-4.42l-.13-4.43.14-4.46-.47-3.8-.04.02.47,3.79-.14,4.46.13,4.43-.42,4.45.04,4.46.12,4.53,4.62-.15,4.52-.18,4.52.59,4.52-.04ZM229.62,89.87l4.51.06,2.69-.14.6-3.69,1.15-3.92.62-4.2,1.13-3.38-.15-.41-3.25,4.76-2.6-5.97-1.23-4.16-.28-4.76,1.09-3.62-4.28.49-4.51.38-4.4,1.57-4.44.87-3.84,1.59.38,3.04-.14,4.51.14,4.46v.07s-.42,4.39-.42,4.39l.04,4.39.09,3.42,3.52-.12,4.61-.18,4.54.59,4.45-.04ZM256.77,89.38h.04s4.56.34,4.56.34l4.48.16,4.46-.09,3.35-.26v-3.31s-.18-4.43-.18-4.43l-.05-4.53.48-4.4-.46-4.42.18-3.56-3.33-.86-4.43-1.44-4.29-1.29-4.65-.09-3.08-.38.96,3.22-.27,4.87-1.19,4.23-2.55,5.58-3.84-4.94.46,4.36,1.38,3.93.85,4.14.34,3.6,2.19-.07,4.57-.36ZM236.35,72.29l.97,2.22,2.02-2.94,2.72-3.13-2-1.99-2.77-2.92-1.63-1.5-.69,2.27.25,4.19,1.13,3.79ZM236.87,60.23l1.96,1.8,2.77,2.93,2.11,2.1,2.24-2.26,3-2.72,1.7-1.64-2.86-.35-4.51-.28-6.41.42ZM211.14,63.98l.02.16.02-.16-.02-.16-.02.16ZM212.36,50.59l.37,4.44.13,4.57-.48,3.43,3.3-1.36,4.51-.88,4.43-1.59,4.76-.41,4.58-.52,9.3-.61,4.72.29,9.14,1.12,4.78.08,4.6,1.39,4.41,1.44,2.73.71-.06-3.13-.05-4.46v-4.46s-.08-4.46-.08-4.46l.23-4.48.13-4.44.3-4.35-.64-4.48.62-4.51-.08-4.35-.31-4.44-.08-4.47-.16-4.49.3-3.48-3.42-.19-4.51.38-4.59-.16-4.5-.1-4.5.05-4.54-.03-4.5-.14-4.53.29-4.5-.22-4.57.52-4.54-.6-4.5.41-4.51-.37-3.33.37-.19,3.33.03,4.36.37,4.53v.06s-.61,4.36-.61,4.36l.57,4.44v4.48s-.22,4.5-.22,4.5l-.4,4.38.34,4.44-.33,4.48.07,4.36ZM241.39,90.54l-3.54-.32.62-3.85,1.15-3.92.62-4.22,1.28-3.83.39-.04,4-.15.44,4.17,1.39,3.95.83,4.02.37,3.94-3.7.16-1.51.04-.54-.06-1.81.12ZM239.08,89.27l2.35.21h.11s1.68-.12,1.68-.12l.56.06,1.43-.04,2.58-.11-.27-2.8-.81-3.89-1.41-4.02-.34-3.26-2.66.1-1.04,3.11-.62,4.19-1.15,3.93-.42,2.64ZM250.56,76.62l-3.26-4.19-3.4-4.02,2.79-2.81,3.01-2.73,2.81-2.72,1.2,4.03-.25,4.56-1.11,3.99-1.78,3.89ZM245.34,68.47l2.79,3.29,2.2,2.84,1.04-2.27,1.06-3.81.22-4.2-.65-2.19-1.57,1.52-3,2.72-2.09,2.11ZM241.38,74.34l-.88-2.34,3-3.52,3.1,3.32-1.05,2.18-3.79.35h-.38ZM241.71,72.21l.39,1.04,2.76-.26.48-.99-1.8-1.93-1.83,2.15Z"/><path class="cls-2" d="M42.26,44.36l-2.83-.34-2.19-1.83-1.88-1.96-1.09-2.49-1.02-2.5-.35-2.67-.42-2.64.09-2.79.95-2.54.66-2.58,1.43-2.27,1.5-2.28,2.31-1.69,2.86-.7,2.81.77,2.37,1.58,1.53,2.25,1.65,2.23.43,2.75.49,2.54.44,2.7-.51,2.65-.23,2.66-1.01,2.56-1.23,2.33-1.48,2.35-2.45,1.63-2.82.28ZM39.88,42.97l2.38.29,2.43-.24,2.02-1.34,1.34-2.13,1.19-2.25.91-2.33.22-2.58.48-2.49-.41-2.5-.49-2.55-.39-2.5-1.51-2.05-1.41-2.08-2.04-1.36-2.36-.65-2.37.58-1.97,1.45-1.38,2.1-1.33,2.12-.64,2.5-.9,2.4-.08,2.5.41,2.55.34,2.54.96,2.36,1,2.3,1.72,1.79,1.87,1.56Z"/><path class="cls-2" d="M42.25,44.89l-3.04-.36-2.35-1.97-1.95-2.02-1.12-2.58-1.06-2.64-.35-2.67-.43-2.68.09-2.92.97-2.6.67-2.63,1.48-2.34,1.55-2.37,2.47-1.81,3.09-.76,3.02.83,2.52,1.68,1.59,2.34,1.72,2.32.45,2.88.49,2.52.46,2.81-.53,2.72-.23,2.7-1.06,2.69-1.25,2.36-1.54,2.44-2.65,1.76-3.01.3ZM39.65,43.51l2.61.31,2.64-.26,2.24-1.49,1.41-2.23,1.21-2.29.97-2.46.23-2.64.5-2.56-.43-2.61-.49-2.52-.42-2.64-1.57-2.13-1.48-2.19-2.21-1.47-2.59-.71-2.62.64-2.15,1.58-1.44,2.2-1.38,2.2-.65,2.56-.92,2.46-.09,2.65.42,2.59.35,2.61,1,2.44,1.04,2.39,1.79,1.87,2.04,1.71ZM42.26,43.78l-2.6-.31-2.03-1.7-1.79-1.86-1.04-2.39-1-2.5-.34-2.54-.42-2.59.09-2.64.92-2.46.65-2.55,1.38-2.19,1.44-2.19,2.13-1.57,2.6-.64,2.57.71,2.19,1.46,1.47,2.17,1.58,2.13.41,2.62.49,2.53.43,2.6-.5,2.55-.23,2.63-.96,2.46-1.21,2.28-1.4,2.22-2.22,1.48-2.62.26ZM40.1,42.46l2.17.26,2.24-.22,1.82-1.21,1.27-2.02,1.17-2.2.87-2.23.23-2.56.46-2.39-.39-2.4-.49-2.54-.38-2.39-1.43-1.94-1.37-2.02-1.88-1.25-2.15-.59-2.13.52-1.81,1.33-1.33,2.02-1.28,2.04-.64,2.47-.87,2.32-.08,2.36.4,2.5.33,2.49.94,2.29.96,2.2,1.64,1.7,1.73,1.45Z"/><path class="cls-2" d="M24.04,44.62l-2.7-.89-2.35-1.4-1.83-2.13-1.02-2.54-.85-2.51-.53-2.54-.53-2.69.36-2.7.44-2.65.67-2.64,1.41-2.43,1.71-2.2,2.53-1.3,2.68-.64,2.87.43,2.15,1.91,1.68,2.01,1.55,2.23.8,2.65.54,2.61.36,2.71-.5,2.7-.56,2.66-1.94,4.94-1.81,2.15-2.35,1.5-2.78.76ZM21.8,42.72l2.27.75,2.3-.63,2.07-1.32,1.58-1.88,1.86-4.73.52-2.51.46-2.51-.33-2.52-.52-2.53-.73-2.41-1.43-2.07-1.61-1.92-1.82-1.61-2.34-.35-2.35.56-2.19,1.13-1.54,1.98-1.27,2.2-.63,2.47-.42,2.57-.33,2.51.49,2.51.52,2.5.82,2.4.94,2.33,1.59,1.85,2.1,1.25Z"/><path class="cls-2" d="M24.03,45.17l-2.95-.99-2.43-1.45-1.94-2.26-1.05-2.62-.88-2.6-.53-2.54-.55-2.78.37-2.79.45-2.71.69-2.71,1.48-2.55,1.78-2.3,2.75-1.4,2.78-.66,3.13.47,2.32,2.07,1.71,2.05,1.6,2.3.83,2.78.54,2.65.37,2.8-.51,2.78-.59,2.75-1.98,5.02-1.91,2.27-2.48,1.59-3.01.83ZM21.56,43.24l2.49.83,2.55-.7,2.21-1.41,1.7-2.02,1.9-4.82.55-2.61.48-2.6-.35-2.61-.53-2.57-.77-2.55-1.49-2.15-1.64-1.96-2-1.78-2.62-.4-2.52.6-2.37,1.22-1.62,2.08-1.35,2.33-.65,2.55-.43,2.63-.34,2.6.51,2.6.52,2.5.84,2.48.98,2.43,1.71,1.99,2.23,1.33ZM24.05,44.02l-2.52-.85-2.17-1.29-1.7-1.98-.97-2.41-.85-2.49-.52-2.5-.51-2.6.34-2.59.43-2.63.65-2.54,1.35-2.33,1.61-2.07,2.42-1.23,2.45-.58,2.6.39,1.99,1.77,1.64,1.96,1.48,2.14.76,2.54.53,2.57.34,2.6-.48,2.59-.55,2.61-1.89,4.81-1.69,2.01-2.2,1.41-2.53.7ZM22.02,42.24l2.06.68,2.07-.57,1.93-1.23,1.47-1.75,1.81-4.61.51-2.47.45-2.42-.32-2.42-.51-2.49-.7-2.31-1.37-1.98-1.57-1.87-1.67-1.48-2.09-.31-2.18.52-2.03,1.05-1.44,1.86-1.22,2.11-.6,2.38-.42,2.54-.32,2.41.48,2.42.51,2.46.81,2.37.89,2.22,1.48,1.72,1.97,1.17Z"/><polygon class="cls-2" points="30.38 17.93 28.47 16.73 26.59 15.6 24.57 14.98 21.83 15.11 19.09 15.17 16.56 16.17 16.16 15.15 18.87 14.07 21.79 14.01 24.71 13.87 27.04 14.58 29.05 15.79 30.97 17.01 30.38 17.93"/><path class="cls-2" d="M30.54,18.66l-2.35-1.49-1.81-1.09-1.87-.57-2.65.13-2.65.05-2.93,1.17-.8-2,3.29-1.31,3.01-.06,2.99-.15,2.54.8,2,1.21,2.38,1.51-1.15,1.82ZM24.63,14.44l2.23.7,1.88,1.13,1.47.93.02-.04-1.47-.93-1.94-1.17-2.19-.67-2.83.14-2.84.05-2.13.85.02.04,2.13-.85,2.83-.05,2.82-.14Z"/><polygon class="cls-2" points="35.68 15.58 35.28 14.56 37.69 13.61 40.02 12.3 42.77 11.82 45.98 12.13 49 12.67 48.81 13.75 45.81 13.22 42.81 12.93 40.4 13.35 38.13 14.62 35.68 15.58"/><path class="cls-2" d="M35.38,16.27l-.79-2.01,2.87-1.13,2.38-1.34,2.91-.5,3.32.32,3.54.63-.38,2.12-3.5-.62-2.9-.28-2.26.39-2.25,1.26-2.94,1.15ZM35.96,14.86l.02.04,1.92-.76,2.31-1.3,2.58-.44,3.11.3,2.48.44v-.04s-2.48-.44-2.48-.44l-3.11-.3-2.59.45-2.32,1.3-1.92.75Z"/><polygon class="cls-2" points="40.87 51.24 34.81 50.62 35.01 48.66 40.96 49.28 44.5 49.24 42 46.11 36.85 42.24 38.03 40.67 43.38 44.69 48.55 51.17 40.87 51.24"/><path class="cls-1" d="M65.01,68.53l.23-4.4v-.02s-.09-4.46-.09-4.46l-.04-4.44v-4.46s-.08-4.43-.08-4.43l.23-4.44.13-4.44.31-4.49-.63-4.43.6-4.41-.09-4.49-.31-4.46-.08-4.44-.16-4.41.44-5.05-5.21-.29-4.53.38-4.5-.16-4.53-.1h0s-4.52.05-4.52.05l-4.51-.03-4.55-.14-4.52.29-4.54-.22-4.5.51-4.52-.6-4.54.42-4.53-.37L1.11,1.54l-.28,4.74.03,4.47.36,4.43-.62,4.46.58,4.49v4.4s-.22,4.42-.22,4.42l-.41,4.48.35,4.45-.32,4.43.07,4.47.37,4.47.12,4.39-.62,4.47.56,4.48-.14,4.42.13,4.43-.42,4.41v.03s.03,4.48.03,4.48l.14,5.07,5.16-.17,4.48-.18,4.52.58,4.55-.04,4.53.06h.02s4.55-.25,4.55-.25l2.89-.21,2.11-.05,3.99.46,4.56-.15,4.51-.35,4.48.33,4.54.17h.02s4.54-.09,4.54-.09l4.93-.38v-4.83s-.18-4.45-.18-4.45l-.05-4.41.49-4.47-.47-4.46ZM2.29,24.08l-.57-4.44.62-4.43-.37-4.49-.03-4.41.22-3.78,3.82-.42,4.52.37,4.51-.41,4.53.6,4.55-.52,4.51.22,4.53-.29,4.51.14,4.53.03,4.52-.05,4.51.1,4.56.16,4.52-.38,4,.22-.34,3.99.16,4.47.08,4.45.31,4.46.08,4.39-.61,4.48.64,4.47-.3,4.39-.13,4.46-.23,4.45v.02s.08,4.46.08,4.46v4.45s.04,4.45.04,4.45l.08,3.82-3.44-.89-4.4-1.43-4.53-1.36-4.73-.08-9.14-1.12-4.69-.29-9.24.6-4.59.52-4.69.4-4.41,1.59-4.55.89-4.06,1.68.6-4.29-.13-4.49-.37-4.46-.07-4.4.32-4.46-.35-4.44.4-4.4.23-4.47h0s-.01-4.48-.01-4.48ZM35.16,90.04l-1.47.04-.55-.06-1.66.12h-.14s-2.94-.26-2.94-.26l.51-3.23,1.16-3.96.61-4.16,1.17-3.5h.02s3.5-.13,3.5-.13l.4,3.75,1.39,3.94.82,3.96.32,3.39-3.14.13ZM29.65,72.05l-2.52,3.68-1.37-3.12-1.16-3.88-.26-4.35.96-3.17,2.27,2.08,2.77,2.93,2.35,2.33-3.04,3.5ZM33.44,69.39l2.45,2.63-.77,1.58-3.34.31h-.12s-.64-1.69-.64-1.69l2.42-2.83ZM34.54,68.57l2.45-2.47,2.99-2.71,2.2-2.12.92,3.11-.23,4.35-1.08,3.91-1.42,3.1-2.72-3.51-3.1-3.66ZM39.23,62.59l-2.99,2.71-2.61,2.63-2.5-2.48-2.77-2.93-2.84-2.61,7.68-.5,4.57.28,3.96.48-2.5,2.41ZM24.06,90.58l-4.52-.06-4.49.04-4.53-.59-4.57.18-4.05.13-.11-3.96-.04-4.42.42-4.42v-.03s-.13-4.46-.13-4.46l.14-4.47-.44-3.57.06.15,4.22-1.75,4.49-.88,4.39-1.57,4.57-.39,4.57-.52.5-.03-1.29,4.27.27,4.67,1.2,4.04,2.2,5.03,3.28-4.81.58,1.53-1.19,3.56-.6,4.14-1.16,3.96-.65,4.05-3.13.17ZM63.94,81.91l.17,4.44v3.8s-3.86.3-3.86.3l-4.49.09-4.5-.16-4.56-.33-4.55.36-2.69.09-.39-4.09-.85-4.08-1.38-3.92-.5-4.74.39-.8.06.08,3.83,4.93,2.19-4.79,1.16-4.15.25-4.66-1.16-3.91,3.88.47,4.67.09,4.37,1.32,4.4,1.43,3.74.97-.2,3.94.47,4.43-.49,4.42.05,4.5Z"/><path class="cls-2" d="M24.09,92.21h-.02s-4.54-.06-4.54-.06l-4.58.04h-.04s-4.47-.58-4.47-.58l-4.44.18-5.69.19-.15-5.6-.04-4.52.42-4.44-.13-4.4.14-4.41-.56-4.5.62-4.5-.12-4.34-.37-4.48-.07-4.49.32-4.41-.35-4.46v-.04s.42-4.48.42-4.48l.23-4.4v-4.33S.08,19.63.08,19.63l.62-4.47-.36-4.41-.03-4.47L.61,1.07,5.95.48l4.54.37,4.55-.42h.06s4.45.6,4.45.6l4.48-.51,4.55.22,4.51-.29h.02s4.55.14,4.55.14l4.5.03,4.52-.05,4.55.1,4.48.16,4.54-.38,5.79.32-.48,5.56.15,4.38.08,4.45.31,4.43.09,4.56-.6,4.38.63,4.41-.31,4.55-.13,4.42-.23,4.43.08,4.41v4.47s.04,4.44.04,4.44l.09,4.47-.23,4.4.47,4.48-.49,4.5.05,4.38.17,4.44v5.34s-5.41.41-5.41.41l-4.59.1h-.03s-4.54-.17-4.54-.17l-4.46-.33-4.47.35-4.63.15-3.99-.46-2.07.05-2.86.2-4.58.25ZM19.54,91.09l4.54.06,4.54-.24,2.88-.2,2.17-.05,3.99.46,4.53-.15,4.52-.35h.04s4.48.33,4.48.33l4.53.17,4.53-.09,4.41-.34v-4.34s-.18-4.43-.18-4.43l-.05-4.46.49-4.45-.47-4.45.23-4.45-.09-4.44-.04-4.45v-4.46s-.08-4.44-.08-4.44v-.02s.23-4.44.23-4.44l.13-4.42.3-4.46-.64-4.45.61-4.45-.09-4.45-.31-4.43-.08-4.47-.16-4.44.39-4.54-4.63-.26-4.53.38-4.53-.16-4.52-.1-4.52.05-4.52-.03-4.54-.14-4.52.29-4.52-.22-4.52.52-4.52-.6-4.53.42-4.52-.37-4.36.48-.25,4.29.03,4.41.36,4.47v.06s-.62,4.39-.62,4.39l.58,4.48v4.4s-.22,4.45-.22,4.45l-.41,4.46.35,4.45-.32,4.45.07,4.43.37,4.45.13,4.46-.39,2.82.03.08.4-2.89-.12-4.45-.37-4.46-.07-4.43.32-4.45-.35-4.45v-.04s.41-4.4.41-4.4l.23-4.45v-4.41s-.59-4.48-.59-4.48l.62-4.45-.36-4.47-.03-4.41.25-4.25,4.32-.48,4.52.37,4.52-.42h.06s4.47.6,4.47.6l4.53-.52,4.52.22,4.52-.29,4.54.14,4.52.03,4.51-.05,4.53.1,4.53.16,4.53-.38,4.58.25-.39,4.5.16,4.44.08,4.46.31,4.43.09,4.46-.61,4.45.64,4.45-.3,4.44-.13,4.44-.23,4.46.08,4.44v4.46s.04,4.45.04,4.45l.09,4.52-4.11-1.07-4.43-1.44-4.45-1.34-4.71-.09-9.14-1.12-4.63-.29-9.21.6-4.57.52-4.64.4-4.42,1.58-4.5.88-3.79,1.57.02.04,3.84-1.58,4.45-.87,4.42-1.58,4.64-.39,4.83-.54h0l1-.07h0s7.94-.52,7.94-.52l4.61.29,5.09.62h0s4.07.5,4.07.5l4.71.09,4.44,1.34,4.41,1.44,4.13,1.07-.22,4.33.47,4.45-.49,4.45.05,4.46.17,4.43v4.31s-4.35.33-4.35.33l-4.52.1-4.53-.16-4.54-.33-4.51.35-3.21.11-.43-4.56-.83-4.02-1.4-4.01-.52-4.89.81-1.67.59.7,3.31,4.25,1.81-3.96,1.13-4.05.24-4.51-1.22-4.1-2.87,2.78-2.99,2.71-2.97,2.99-2.87-2.85-2.77-2.93-2.96-2.73-1.25,4.14.27,4.51,1.18,3.95,1.8,4.13,3.26-4.77-.21.25-3.04,4.44-1.77-4.06-1.18-4-.26-4.44,1.23-4.07,2.91,2.68,2.77,2.93,2.69,2.67-3.07,3.53,1,2.65-1.24,3.69-.61,4.17-1.15,3.92-.71,4.44-3.57.19h-.02s-4.52-.06-4.52-.06l-4.51.04h-.04s-4.49-.59-4.49-.59l-4.52.18-4.58.15-.12-4.49-.04-4.45v-.03s.42-4.42.42-4.42l-.13-4.43.14-4.46-.47-3.8-.04.02.47,3.79-.14,4.46.14,4.43-.42,4.45.04,4.46.12,4.53,4.62-.15,4.52-.18,4.53.59,4.52-.04ZM19.54,90l4.51.06,2.69-.14.6-3.69,1.15-3.92.62-4.2,1.13-3.38-.15-.41-3.25,4.76-2.6-5.97-1.23-4.16-.28-4.76,1.09-3.62-4.28.49-4.51.38-4.4,1.57-4.44.87-3.84,1.59.38,3.04-.14,4.51.14,4.46v.07s-.42,4.39-.42,4.39l.04,4.39.09,3.42,3.52-.12,4.61-.18,4.54.59,4.45-.04ZM46.69,89.5h.04s4.56.34,4.56.34l4.48.16,4.46-.09,3.35-.26v-3.31s-.18-4.43-.18-4.43l-.05-4.53.48-4.4-.46-4.42.18-3.56-3.33-.86-4.43-1.44-4.29-1.29-4.65-.09-3.08-.38.96,3.22-.27,4.87-1.19,4.23-2.55,5.58-3.84-4.94.46,4.36,1.38,3.93.85,4.14.34,3.6,2.19-.07,4.57-.36ZM26.27,72.42l.97,2.22,2.02-2.94,2.72-3.13-2-1.99-2.77-2.92-1.63-1.5-.69,2.27.25,4.19,1.13,3.79ZM26.79,60.35l1.96,1.8,2.77,2.93,2.11,2.1,2.24-2.26,3-2.72,1.69-1.64-2.86-.35-4.51-.28-6.41.42ZM1.06,64.1l.02.16.02-.16-.02-.16-.02.16ZM2.28,50.71l.37,4.44.13,4.57-.48,3.43,3.3-1.36,4.51-.88,4.43-1.59,4.76-.41,4.58-.52,9.3-.61,4.72.29,9.14,1.12,4.78.08,4.6,1.39,4.41,1.44,2.73.71-.06-3.13-.05-4.46v-4.46s-.08-4.46-.08-4.46v-.03s.23-4.46.23-4.46l.13-4.44.3-4.35-.64-4.48.62-4.51-.08-4.35-.31-4.44-.08-4.47-.16-4.49.3-3.48-3.42-.19-4.51.38-4.59-.16-4.5-.1-4.5.05-4.54-.03-4.5-.14-4.53.29-4.5-.22-4.57.52-4.54-.6-4.5.41-4.51-.37-3.33.37-.19,3.33.03,4.36.37,4.53-.61,4.42.57,4.44v4.48s-.22,4.5-.22,4.5l-.4,4.38.34,4.44-.33,4.48.07,4.36ZM31.31,90.67l-3.54-.32.62-3.85,1.15-3.92.62-4.22,1.28-3.83.39-.04,4-.15.44,4.17,1.39,3.95.83,4.02.37,3.94-3.7.16-1.51.04-.54-.06-1.81.12ZM29,89.4l2.35.21h.11s1.68-.12,1.68-.12l.56.06,1.43-.04,2.58-.11-.27-2.8-.81-3.89-1.41-4.02-.35-3.26-2.66.1-1.04,3.11-.62,4.19-1.15,3.93-.42,2.64ZM40.49,76.75l-3.26-4.19-3.4-4.02,2.79-2.81,3.01-2.73,2.81-2.72,1.2,4.03-.25,4.56-1.11,3.99-1.78,3.89ZM35.26,68.6l2.79,3.29,2.2,2.84,1.04-2.27,1.06-3.81.22-4.2-.65-2.19-1.57,1.52-3,2.72-2.09,2.11ZM31.3,74.47l-.88-2.34,3-3.52,3.1,3.32-1.05,2.18-3.79.35h-.38ZM31.63,72.33l.39,1.04,2.76-.26.48-.99-1.8-1.93-1.83,2.15Z"/></g></svg>