<?xml version="1.0" encoding="UTF-8"?><svg id="_레이어_2" xmlns="http://www.w3.org/2000/svg" viewBox="0 0 354.27 401.77"><defs><style>.cls-1{fill:#0f0f0e;stroke-width:0px;}.cls-2{fill:none;stroke:#0f0f0e;stroke-miterlimit:10;stroke-width:4px;}</style></defs><g id="_레이어_1-2"><polyline class="cls-1" points=".16 2.37 14.31 3 28.47 2.26 42.62 3.64 56.78 2.43 70.94 2.66 85.09 3.81 99.25 3.3 113.4 2.27 127.56 3.22 141.71 3.35 155.86 3.1 170.02 3.3 184.17 2.35 198.33 2.4 212.48 3.16 226.64 2.5 240.8 3.11 254.96 3.78 269.11 2.83 283.27 2.58 297.43 3.25 311.59 3.99 325.75 2.01 339.91 2.6 354.08 3.11"/><polyline class="cls-2" points=".16 2.37 14.31 3 28.47 2.26 42.62 3.64 56.78 2.43 70.94 2.66 85.09 3.81 99.25 3.3 113.4 2.27 127.56 3.22 141.71 3.35 155.86 3.1 170.02 3.3 184.17 2.35 198.33 2.4 212.48 3.16 226.64 2.5 240.8 3.11 254.96 3.78 269.11 2.83 283.27 2.58 297.43 3.25 311.59 3.99 325.75 2.01 339.91 2.6 354.08 3.11"/><polyline class="cls-1" points=".16 399.33 14.31 398.82 28.47 397.98 42.62 399.6 56.78 398.71 70.94 398.34 85.09 398.76 99.25 399.74 113.4 398.83 127.56 398.52 141.71 398.99 155.86 398.47 170.02 399.39 184.17 399.53 198.33 398.93 212.48 398.79 226.64 399.24 240.8 398.53 254.96 398.08 269.11 399.14 283.27 398.62 297.43 398.15 311.59 397.83 325.75 398.65 339.91 399.18 354.08 399.77"/><polyline class="cls-2" points=".16 399.33 14.31 398.82 28.47 397.98 42.62 399.6 56.78 398.71 70.94 398.34 85.09 398.76 99.25 399.74 113.4 398.83 127.56 398.52 141.71 398.99 155.86 398.47 170.02 399.39 184.17 399.53 198.33 398.93 212.48 398.79 226.64 399.24 240.8 398.53 254.96 398.08 269.11 399.14 283.27 398.62 297.43 398.15 311.59 397.83 325.75 398.65 339.91 399.18 354.08 399.77"/><polyline class="cls-1" points=".16 320.17 14.31 319.66 28.47 318.82 42.62 320.45 56.78 319.55 70.94 319.18 85.09 319.6 99.25 320.58 113.4 319.67 127.56 319.36 141.71 319.83 155.86 319.31 170.02 320.24 184.17 320.37 198.33 319.77 212.48 319.63 226.64 320.09 240.8 319.37 254.96 318.92 269.11 319.98 283.27 319.47 297.43 318.99 311.59 318.68 325.75 319.49 339.91 320.02 354.08 320.61"/><polyline class="cls-2" points=".16 320.17 14.31 319.66 28.47 318.82 42.62 320.45 56.78 319.55 70.94 319.18 85.09 319.6 99.25 320.58 113.4 319.67 127.56 319.36 141.71 319.83 155.86 319.31 170.02 320.24 184.17 320.37 198.33 319.77 212.48 319.63 226.64 320.09 240.8 319.37 254.96 318.92 269.11 319.98 283.27 319.47 297.43 318.99 311.59 318.68 325.75 319.49 339.91 320.02 354.08 320.61"/><polyline class="cls-1" points=".16 240.44 14.31 240.48 28.47 241.02 42.62 239.69 56.78 241.28 70.94 240.04 85.09 240.09 99.25 240.48 113.4 239.58 127.56 240.27 141.71 241.08 155.86 241.47 170.02 240.28 184.17 241.02 198.33 241.35 212.48 240.62 226.64 240.07 240.8 240.1 254.96 241.37 269.11 241.25 283.27 239.88 297.43 241.12 311.59 239.84 325.75 240.29 339.91 239.84 354.08 241.23"/><polyline class="cls-2" points=".16 240.44 14.31 240.48 28.47 241.02 42.62 239.69 56.78 241.28 70.94 240.04 85.09 240.09 99.25 240.48 113.4 239.58 127.56 240.27 141.71 241.08 155.86 241.47 170.02 240.28 184.17 241.02 198.33 241.35 212.48 240.62 226.64 240.07 240.8 240.1 254.96 241.37 269.11 241.25 283.27 239.88 297.43 241.12 311.59 239.84 325.75 240.29 339.91 239.84 354.08 241.23"/><polyline class="cls-1" points=".16 161.34 14.31 161.45 28.47 160.89 42.62 161.55 56.78 160.48 70.94 160.89 85.09 161.87 99.25 161.51 113.4 160.33 127.56 161.56 141.71 162.19 155.86 161.83 170.02 161.3 184.17 161.58 198.33 162.24 212.48 161.04 226.64 160.52 240.8 160.47 254.96 161.33 269.11 162.1 283.27 160.72 297.43 162.18 311.59 160.84 325.75 161.67 339.91 161.95 354.08 162.04"/><polyline class="cls-2" points=".16 161.34 14.31 161.45 28.47 160.89 42.62 161.55 56.78 160.48 70.94 160.89 85.09 161.87 99.25 161.51 113.4 160.33 127.56 161.56 141.71 162.19 155.86 161.83 170.02 161.3 184.17 161.58 198.33 162.24 212.48 161.04 226.64 160.52 240.8 160.47 254.96 161.33 269.11 162.1 283.27 160.72 297.43 162.18 311.59 160.84 325.75 161.67 339.91 161.95 354.08 162.04"/><polyline class="cls-1" points=".16 82.02 14.31 83.16 28.47 82.24 42.62 82.33 56.78 81.81 70.94 82.92 85.09 82.39 99.25 82.73 113.4 82.43 127.56 82.8 141.71 82.38 155.86 82.15 170.02 82.59 184.17 83.1 198.33 82 212.48 82.13 226.64 81.3 240.8 82.58 254.96 82.2 269.11 82.42 283.27 82.25 297.43 81.31 311.59 81.9 325.75 82.54 339.91 81.35 354.08 82.24"/><polyline class="cls-2" points=".16 82.02 14.31 83.16 28.47 82.24 42.62 82.33 56.78 81.81 70.94 82.92 85.09 82.39 99.25 82.73 113.4 82.43 127.56 82.8 141.71 82.38 155.86 82.15 170.02 82.59 184.17 83.1 198.33 82 212.48 82.13 226.64 81.3 240.8 82.58 254.96 82.2 269.11 82.42 283.27 82.25 297.43 81.31 311.59 81.9 325.75 82.54 339.91 81.35 354.08 82.24"/><polyline class="cls-1" points="282.41 3.25 283.91 17.45 282.76 31.64 283.84 45.83 282.99 60.03 282.83 74.22 283.78 88.42 283.99 102.61 282.87 116.81 283.11 131 282.88 145.19 282.48 159.39 283.76 173.58 282.52 187.77 282.41 201.97 283.4 216.16 283.16 230.36 282.56 244.55 283.89 258.74 282.81 272.94 284.06 287.14 283.47 301.33 282.44 315.53 284 329.73 284.09 343.92 283.84 358.12 283.19 372.32 283.77 386.52 282.37 400.73"/><polyline class="cls-2" points="282.41 3.25 283.91 17.45 282.76 31.64 283.84 45.83 282.99 60.03 282.83 74.22 283.78 88.42 283.99 102.61 282.87 116.81 283.11 131 282.88 145.19 282.48 159.39 283.76 173.58 282.52 187.77 282.41 201.97 283.4 216.16 283.16 230.36 282.56 244.55 283.89 258.74 282.81 272.94 284.06 287.14 283.47 301.33 282.44 315.53 284 329.73 284.09 343.92 283.84 358.12 283.19 372.32 283.77 386.52 282.37 400.73"/><polyline class="cls-1" points="211.96 3.25 213.42 17.42 212.13 31.58 212.33 45.74 213.15 59.91 212.05 74.07 213.14 88.23 211.94 102.4 212.65 116.56 212.59 130.72 213.45 144.89 213.01 159.05 213.37 173.22 213.38 187.38 212.71 201.54 213.4 215.7 211.78 229.87 213.17 244.03 213.5 258.19 212.77 272.36 213.32 286.53 213.13 300.69 212.79 314.86 211.8 329.03 212.21 343.19 212.04 357.36 212.26 371.52 213.41 385.7 212.63 399.87"/><polyline class="cls-2" points="211.96 3.25 213.42 17.42 212.13 31.58 212.33 45.74 213.15 59.91 212.05 74.07 213.14 88.23 211.94 102.4 212.65 116.56 212.59 130.72 213.45 144.89 213.01 159.05 213.37 173.22 213.38 187.38 212.71 201.54 213.4 215.7 211.78 229.87 213.17 244.03 213.5 258.19 212.77 272.36 213.32 286.53 213.13 300.69 212.79 314.86 211.8 329.03 212.21 343.19 212.04 357.36 212.26 371.52 213.41 385.7 212.63 399.87"/><polyline class="cls-1" points="141.55 3 141.07 17.21 141.02 31.41 141.61 45.61 142.27 59.81 140.78 74.02 142.39 88.22 141.11 102.42 141.99 116.63 142.63 130.83 142.27 145.03 141.71 159.24 140.98 173.44 141.93 187.64 141.42 201.84 141.36 216.05 141.71 230.25 141.51 244.45 141.87 258.66 142.27 272.86 142.71 287.07 140.86 301.27 142.17 315.48 141.87 329.69 142.21 343.89 140.76 358.1 141.34 372.3 141.42 386.52 142.67 400.73"/><polyline class="cls-2" points="141.55 3 141.07 17.21 141.02 31.41 141.61 45.61 142.27 59.81 140.78 74.02 142.39 88.22 141.11 102.42 141.99 116.63 142.63 130.83 142.27 145.03 141.71 159.24 140.98 173.44 141.93 187.64 141.42 201.84 141.36 216.05 141.71 230.25 141.51 244.45 141.87 258.66 142.27 272.86 142.71 287.07 140.86 301.27 142.17 315.48 141.87 329.69 142.21 343.89 140.76 358.1 141.34 372.3 141.42 386.52 142.67 400.73"/><polyline class="cls-1" points="70.4 3 71.85 17.21 70.56 31.41 70.76 45.61 71.58 59.81 70.48 74.02 71.57 88.22 70.37 102.42 71.08 116.63 71.02 130.83 71.88 145.03 71.45 159.24 71.8 173.44 71.81 187.64 71.14 201.84 71.83 216.05 70.21 230.25 71.6 244.45 71.93 258.66 71.21 272.86 71.76 287.07 71.57 301.27 71.22 315.48 70.23 329.69 70.64 343.89 70.48 358.1 70.69 372.3 71.84 386.52 71.06 400.73"/><polyline class="cls-2" points="70.4 3 71.85 17.21 70.56 31.41 70.76 45.61 71.58 59.81 70.48 74.02 71.57 88.22 70.37 102.42 71.08 116.63 71.02 130.83 71.88 145.03 71.45 159.24 71.8 173.44 71.81 187.64 71.14 201.84 71.83 216.05 70.21 230.25 71.6 244.45 71.93 258.66 71.21 272.86 71.76 287.07 71.57 301.27 71.22 315.48 70.23 329.69 70.64 343.89 70.48 358.1 70.69 372.3 71.84 386.52 71.06 400.73"/></g></svg>