<?xml version="1.0" encoding="UTF-8"?><svg id="_레이어_2" xmlns="http://www.w3.org/2000/svg" viewBox="0 0 599.85 98.97"><defs><style>.cls-1{fill:#0f0f0e;stroke-width:0px;}</style></defs><g id="_레이어_1-2"><path class="cls-1" d="M0,49.93l4.13-14.96,6.76-14.14,13.91-7.51,15.36-2.35,18.41,4.97,14.48,12.15,5.76,18.59-4.78,14.17-12.26,6.98-12.49-7.43-12.16,8.04-11.54-5.71-5.43-12.15,4.35-13.19,12.4-4.74,12.02,11.01,1.09-10.29,7.45-.14-.91,17.23,5.32,9.61,6.76-13.3-4.9-13.43-9.44-10.46-14.25-3.6-15.08,4.62-11.14,10.62-4.42,15.18,4.48,15.59,11.23,11.75,16.13,1.13,11.97-.64,1.16,9.78-14.22,2.63-15.02-4.5-13.51-7.27-8.74-12.85-2.87-15.39ZM45.5,50.36l-7.09-10.02-6.16,10.02,6.27,8.7,6.98-8.7Z"/><path class="cls-1" d="M172.69,69.28l-18.66.37-18.48-.98.31,14.85.33,15.27-16.61-1.47.03-13.81-.44-15.12-18.33.45-18.49.69.16-14.33,18.25.68,17.9.88,17.89-1.57,17.91-.12,17.97.53.25,13.67ZM109.64,13.23l17.72-.34,18.08,1-.19-10.2,17.67-.44-1.67,15.25.37,14.67.43,14.24-17.08.44-17.44.86-17.45-.26-17.32-.75.95-14.51-1.57-14.67.09-15.14,17.21.37.21,9.48ZM145.13,33.77l-.1-6.18-17.67-.96-17.91.37.23,6.54,17.69,1.88,17.75-1.66Z"/><path class="cls-1" d="M266.96,65.4l-17.94-1.23-17.9,1.73-17.89-1.29-17.91,1.11-17.21-1.3-.48-12.26,17.97-.48,18.17.14v-4.92s-25.16-.7-25.16-.7l.52-13.74-.6-14.06,16.79-.59,17.11-.34,16.96-.22-.02-1.72-16.96-.04-17.15-1.56-17.46,1.12.03-13.72,17.38-.45,17.09,1.31,17.1-1.44,16.85,1.26,1.06,13.85-.49,14.54-17.46-.35-17.15-.51-17.27-.05-.04,5.19,17.83-.36,17.68.08,16.98.5.83,12.12-13.86-.49-13.63.64.05,4.15,17.98.12,17.42,1.4.76,12.56ZM257.1,98.17l-16.34-.93-1.15-13.98-17.16-1.15-17.54,1.11-16.84-1.3-.48-12.05,17.2-.47,17.41.14,17.42.03,16.93.62-.41,13.66.95,14.32Z"/><path class="cls-1" d="M337.41,63.34l-9.99,14.04-14.35-9.69-8.31-15.69-8.99,16.68-15.1,11.85-9.39-15.1,14.48-10.93,8.24-16.4,3.21-18.35-1.22-12.64,16.93.53.15,12.11,3,17.25,7.05,15.75,14.3,10.6ZM356.14,98.9l-17.94.07-.25-16.82,1.71-16.4-.78-16.4-1.46-16.4,1.29-16.41-.21-16.53,17.16.27-1.07,16.25,1.23,16.4-.65,16.4.41,16.4,1.04,16.4-.48,16.78Z"/><path class="cls-1" d="M367.59,78.6l10.78-10.53,10.58,10.53-10.58,9.36-10.78-9.36Z"/><path class="cls-1" d="M393.45,60.21l3.39-15,10.99-10.46,14.66-3.02,18.01,5.56,8.01,17.86-16.18-.47-9.95-9.86-12.87,15.39,12.87,14.76,9.69-10.32,16.09.93-8.27,16.53-17.4,6.84-15.09-2.55-10.78-11.12-3.17-15.07Z"/><path class="cls-1" d="M451.69,60.1l3.02-14.71,10.41-10.82,14.69-3.24,14.87,2.9,9.18,11.69,5.12,14.18-4.74,14.37-10.4,9.92-14.02,5.24-14.95-3.51-10.55-11.1-2.62-14.92ZM491.42,60.1l-11.61-14.02-11.45,14.02,11.45,14.15,11.61-14.15Z"/><path class="cls-1" d="M574.21,44.72l-7.91,11.98.19,15.51-.99,15.51-16.69-.83-1.13-14.68,1.09-15.51-8.66-11.84-8.4,11.84-.61,15.51.84,16.11-17.86-.69-.74-18.32.32-18.41,1.08-17.7,17.22-1.54-.76,12.52.98.03,15.69-12.84,16.6,12.66,17.08-12.45,14.37,5.64,3.94,15.23-.18,17.63.14,17.75-17.99.4-.59-16.02,1.6-15.51-8.62-11.98Z"/></g></svg>