<?xml version="1.0" encoding="UTF-8"?><svg id="_레이어_2" xmlns="http://www.w3.org/2000/svg" viewBox="0 0 67.48 93.53"><defs><style>.cls-1{fill:#080103;}.cls-1,.cls-2{stroke-width:0px;}.cls-2{fill:#0f0f0e;}</style></defs><g id="_레이어_1-2"><path class="cls-1" d="M66.25,69.4l.23-4.49v-.02s-.09-4.55-.09-4.55l-.05-4.53v-4.54s-.08-4.51-.08-4.51l.23-4.52.13-4.52.31-4.58-.65-4.51.62-4.5-.09-4.58-.31-4.54-.08-4.53-.16-4.5.44-5.15-5.3-.3-4.62.39-4.59-.16-4.61-.1h0s-4.61.05-4.61.05l-4.6-.03-4.64-.14-4.61.3-4.62-.23-4.59.52-4.6-.61-4.63.42-4.62-.37L1.13,1.14l-.28,4.83.03,4.55.37,4.51-.63,4.55.6,4.57v4.48s-.22,4.51-.22,4.51l-.42,4.57.35,4.54-.33,4.51.07,4.56.38,4.55.13,4.47-.63,4.56.57,4.56-.14,4.51.14,4.51-.42,4.5v.03s.03,4.57.03,4.57l.14,5.17,5.25-.17,4.57-.18,4.6.6,4.64-.04,4.61.06h.02s4.64-.25,4.64-.25l2.94-.21,2.15-.05,4.06.47,4.65-.16,4.59-.36,4.57.33,4.63.17h.02s4.63-.1,4.63-.1l5.03-.38v-4.92s-.18-4.54-.18-4.54l-.05-4.5.5-4.56-.48-4.55ZM2.33,24.11l-.59-4.53.63-4.52-.37-4.57-.03-4.49.22-3.85,3.9-.43,4.61.37,4.6-.42,4.62.61,4.63-.53,4.6.22,4.62-.3,4.6.14,4.62.03,4.6-.05,4.59.1,4.64.16,4.61-.39,4.08.23-.35,4.07.16,4.55.08,4.53.31,4.55.09,4.47-.62,4.57.65,4.55-.3,4.47-.13,4.54-.23,4.53v.02s.08,4.54.08,4.54v4.54s.04,4.54.04,4.54l.08,3.9-3.5-.91-4.48-1.46-4.61-1.39-4.82-.09-9.31-1.14-4.78-.3-9.42.61-4.68.53-4.78.41-4.49,1.62-4.64.91-4.13,1.71.61-4.38-.13-4.58-.38-4.54-.07-4.49.33-4.55-.35-4.53.41-4.48.24-4.55v-.02s-.01-4.55-.01-4.55ZM35.83,91.32l-1.5.04-.56-.07-1.69.12h-.15s-3-.27-3-.27l.52-3.29,1.18-4.04.62-4.24,1.2-3.57h.02s3.57-.14,3.57-.14l.4,3.82,1.42,4.01.84,4.03.33,3.45-3.2.13ZM30.22,72.98l-2.57,3.75-1.39-3.18-1.18-3.96-.26-4.43.97-3.23,2.31,2.12,2.82,2.98,2.39,2.38-3.1,3.57ZM34.08,70.28l2.5,2.68-.78,1.61-3.41.32h-.12s-.65-1.73-.65-1.73l2.46-2.89ZM35.2,69.44l2.5-2.52,3.05-2.76,2.24-2.16.94,3.17-.24,4.44-1.11,3.98-1.45,3.16-2.78-3.57-3.16-3.73ZM39.98,63.34l-3.04,2.76-2.66,2.68-2.55-2.53-2.82-2.98-2.89-2.66,7.82-.51,4.66.29,4.03.49-2.54,2.46ZM24.52,91.87l-4.61-.06-4.57.04-4.62-.6-4.66.18-4.13.14-.11-4.03-.04-4.5.42-4.5v-.03s-.13-4.55-.13-4.55l.14-4.56-.45-3.64.06.16,4.3-1.78,4.57-.89,4.48-1.6,4.65-.4,4.66-.53.5-.03-1.31,4.35.28,4.76,1.23,4.12,2.24,5.13,3.35-4.9.59,1.56-1.21,3.63-.61,4.22-1.18,4.03-.66,4.13-3.19.17ZM65.15,83.03l.17,4.52v3.87s-3.94.3-3.94.3l-4.58.1-4.58-.17-4.64-.34-4.64.36-2.74.09-.4-4.17-.86-4.16-1.41-4-.51-4.84.4-.82.07.08,3.9,5.02,2.23-4.88,1.18-4.23.25-4.75-1.18-3.98,3.95.48,4.75.09,4.45,1.34,4.49,1.46,3.82.99-.21,4.02.47,4.52-.49,4.51.05,4.58Z"/><path class="cls-2" d="M24.55,93.53h-.02s-4.63-.06-4.63-.06l-4.66.04h-.04s-4.56-.59-4.56-.59l-4.52.18-5.8.19-.15-5.71-.04-4.61.43-4.52-.14-4.48.14-4.5-.57-4.59.64-4.58-.12-4.43-.38-4.56-.07-4.58.33-4.5-.35-4.54.42-4.61.23-4.48v-4.42S.08,19.57.08,19.57l.63-4.56-.36-4.49-.03-4.55L.62.65,6.07.05l4.62.37,4.64-.43h.06s4.54.61,4.54.61L24.49.09l4.64.23L33.73.02l4.66.14,4.58.03,4.6-.05,4.64.1,4.56.16L61.4,0l5.9.33-.49,5.67.16,4.46.08,4.54.31,4.52.09,4.64-.61,4.46.64,4.49-.31,4.64-.13,4.5-.23,4.52.08,4.49v4.55s.04,4.52.04,4.52l.09,4.56-.23,4.48.48,4.56-.5,4.58.05,4.47.17,4.52v5.44s-5.51.42-5.51.42l-4.67.1h-.03s-4.63-.17-4.63-.17l-4.55-.33-4.55.36-4.72.16-4.07-.47-2.11.05-2.92.21-4.67.25ZM19.91,92.39l4.62.06,4.62-.25,2.93-.21,2.21-.05,4.06.47,4.61-.15,4.61-.36h.04s4.57.34,4.57.34l4.61.17,4.61-.1,4.5-.34v-4.42s-.18-4.52-.18-4.52l-.05-4.55.5-4.53-.48-4.53.23-4.53-.09-4.53-.05-4.53v-4.55s-.08-4.52-.08-4.52v-.02s.23-4.52.23-4.52l.13-4.51.31-4.54-.65-4.53.62-4.53-.09-4.53-.31-4.52-.08-4.55-.16-4.52.4-4.63-4.71-.26-4.61.39-4.62-.16-4.6-.1-4.6.05-4.61-.03-4.62-.14-4.61.3-4.61-.23-4.61.53-4.61-.61-4.61.42-4.61-.37-4.44.49-.26,4.37.04,4.5.37,4.55-.63,4.53.59,4.57v4.48s-.23,4.53-.23,4.53l-.42,4.54.35,4.53-.33,4.53.07,4.51.38,4.54.13,4.54-.4,2.88.03.08.41-2.95-.13-4.53-.38-4.55-.07-4.51.33-4.53-.35-4.53.42-4.53.24-4.53v-4.5s-.6-4.57-.6-4.57l.63-4.53-.37-4.55-.03-4.49.25-4.34,4.4-.49,4.61.37,4.61-.42h.06s4.55.61,4.55.61l4.61-.53,4.61.23,4.61-.3,4.62.14,4.61.03,4.59-.05,4.61.1,4.62.16,4.61-.39,4.67.26-.4,4.59.16,4.52.08,4.54.31,4.52.09,4.54-.62,4.53.65,4.53-.31,4.53-.13,4.52-.23,4.54.08,4.52v4.55s.04,4.53.04,4.53l.09,4.6-4.19-1.09-4.51-1.47-4.53-1.37-4.8-.09-9.31-1.14-4.71-.29-9.38.61-4.65.53-4.73.4-4.5,1.61-4.59.9-3.86,1.6.02.04,3.91-1.61,4.53-.89,4.57-1.62,4.65-.4,4.92-.55h0s9.11-.59,9.11-.59l4.69.29,5.18.63h0s4.15.51,4.15.51l4.8.09,4.52,1.36,4.5,1.47,4.21,1.09-.23,4.42.48,4.53-.5,4.53.05,4.54.17,4.51v4.39s-4.43.34-4.43.34l-4.61.1-4.62-.17-4.62-.34-4.6.36-3.27.11-.44-4.64-.85-4.1-1.42-4.08-.53-4.99.82-1.7.6.71,3.37,4.34,1.85-4.03,1.15-4.13.24-4.6-1.24-4.18-2.93,2.83-3.04,2.76-3.02,3.05-2.93-2.91-2.82-2.98-3.02-2.78-1.27,4.21.27,4.6,1.2,4.02,1.84,4.21,3.32-4.86-.22.25-3.1,4.52-1.8-4.13-1.2-4.08-.27-4.52,1.25-4.14,2.97,2.73,2.82,2.98,2.74,2.72-3.13,3.6,1.02,2.7-1.26,3.76-.62,4.25-1.17,4-.72,4.52-3.64.2h-.02s-4.61-.06-4.61-.06l-4.6.04h-.04s-4.58-.6-4.58-.6l-4.61.18-4.67.15-.12-4.58-.04-4.54.43-4.53-.14-4.52.14-4.55-.48-3.87-.04.02.48,3.86-.14,4.55.14,4.51-.43,4.53.04,4.54.12,4.62,4.71-.16,4.61-.18,4.61.6,4.6-.04ZM19.91,91.27l4.6.06,2.74-.15.61-3.76,1.17-3.99.63-4.28,1.15-3.44-.16-.42-3.31,4.85-2.65-6.08-1.25-4.24-.29-4.85,1.11-3.69-4.36.49-4.6.39-4.49,1.6-4.52.88-3.92,1.62.38,3.1-.15,4.6.14,4.55-.43,4.54.04,4.47.09,3.48,3.58-.12,4.7-.19,4.63.6,4.54-.04ZM47.58,90.77h.04s4.64.34,4.64.34l4.57.17,4.55-.1,3.42-.26v-3.37s-.18-4.52-.18-4.52l-.05-4.61.49-4.48-.47-4.5.19-3.62-3.39-.88-4.52-1.47-4.37-1.32-4.74-.09-3.14-.38.97,3.28-.28,4.96-1.21,4.31-2.6,5.69-3.91-5.03.47,4.44,1.41,4.01.87,4.22.35,3.66,2.23-.07,4.66-.37ZM26.77,73.36l.99,2.26,2.05-3,2.77-3.19-2.04-2.02-2.82-2.98-1.66-1.53-.7,2.32.25,4.27,1.15,3.87ZM27.3,61.07l1.99,1.84,2.82,2.98,2.15,2.14,2.29-2.3,3.06-2.77,1.73-1.67-2.91-.36-4.59-.28-6.53.43ZM1.08,64.89l.02.16.02-.16-.02-.16-.02.16ZM2.32,51.24l.38,4.53.13,4.65-.48,3.49,3.37-1.38,4.6-.9,4.52-1.63,4.85-.41,4.66-.53,9.48-.62,4.81.3,9.32,1.14,4.87.09,4.68,1.41,4.49,1.46,2.78.72-.06-3.19-.05-4.54v-4.54s-.08-4.55-.08-4.55v-.04s.23-4.53.23-4.53l.13-4.53.3-4.44-.65-4.57.63-4.6-.09-4.43-.31-4.52-.08-4.56-.16-4.58.31-3.55-3.48-.19-4.6.39-4.68-.16-4.59-.1-4.58.05-4.63-.03-4.59-.14-4.62.3-4.58-.22-4.66.53-4.62-.62-4.58.42-4.6-.37-3.39.38-.2,3.39.03,4.44.38,4.61-.63,4.51.58,4.52v4.56s0,.03,0,.03l-.24,4.56-.41,4.46.35,4.52-.33,4.57.07,4.45ZM31.91,91.96l-3.6-.32.63-3.93,1.17-4,.64-4.3,1.31-3.9.4-.04,4.07-.15.45,4.25,1.42,4.02.85,4.09.38,4.02-3.78.16-1.54.04-.55-.06-1.84.12ZM29.55,90.66l2.4.22h.12s1.72-.13,1.72-.13l.57.07,1.46-.04,2.63-.11-.27-2.86-.83-3.97-1.44-4.1-.35-3.32-2.71.1-1.06,3.17-.63,4.27-1.17,4-.43,2.69ZM41.26,77.77l-3.32-4.27-3.47-4.09,2.84-2.87,3.07-2.78,2.86-2.77,1.22,4.11-.26,4.64-1.13,4.06-1.82,3.97ZM35.93,69.47l2.84,3.36,2.25,2.89,1.06-2.32,1.08-3.89.23-4.28-.66-2.23-1.6,1.55-3.06,2.77-2.13,2.15ZM31.9,75.45l-.9-2.39,3.06-3.59,3.16,3.39-1.07,2.22-3.86.36-.39.02ZM32.23,73.27l.4,1.06,2.82-.26.49-1.01-1.84-1.97-1.87,2.19Z"/><polygon class="cls-2" points="31.71 49.96 31.3 48 36.02 47.02 39.36 47.15 37.28 43.82 35.27 39.11 32.25 34.92 33.88 33.75 37.02 38.12 39.09 42.96 43.08 49.3 36.18 49.03 31.71 49.96"/><path class="cls-2" d="M22.37,39.01l1.55-1.43,1.91,1.43-1.91,1.68-1.55-1.68Z"/><path class="cls-2" d="M23.89,41.2l-2.03-2.21,2.03-1.88,2.5,1.88-2.5,2.21ZM22.88,39.03l1.07,1.16,1.32-1.16-1.32-.99-1.07.99Z"/><path class="cls-2" d="M40.66,39.03l1.98-1.58,1.68,1.58-1.68,1.78-1.98-1.78Z"/><path class="cls-2" d="M42.66,41.32l-2.55-2.3,2.55-2.04,2.16,2.04-2.16,2.3ZM41.22,39.05l1.4,1.26,1.19-1.27-1.19-1.12-1.4,1.12Z"/><polygon class="cls-2" points="22.19 15.08 19.27 14.48 16.72 13.13 17.25 12.14 19.66 13.42 22.24 13.95 24.84 13.67 27.24 12.66 29.47 11.29 31.61 9.55 32.32 10.42 30.09 12.23 27.71 13.68 25.12 14.76 22.19 15.08"/><path class="cls-2" d="M22.16,15.63l-3.07-.63-3.1-1.64,1.03-1.94,2.82,1.5,2.43.5,2.44-.26,2.29-.96,2.17-1.33,2.53-2.06,1.38,1.7-2.71,2.19-2.45,1.49-2.66,1.11-3.09.34ZM19.46,13.97l2.75.57,2.77-.3,2.48-1.04,2.31-1.41,1.78-1.44-.03-.03-1.78,1.44-2.31,1.41-2.47,1.04-2.76.3-2.74-.56-2-1.06-.02.04,2.01,1.07Z"/><polygon class="cls-2" points="45.27 14.76 42.43 14.55 39.72 13.75 37.22 12.36 35.14 10.41 35.9 9.59 37.88 11.45 40.16 12.71 42.63 13.44 45.21 13.63 47.73 13.14 49.97 11.74 50.56 12.69 48.15 14.2 45.27 14.76"/><path class="cls-2" d="M45.3,15.3l-3.03-.24-2.81-.85-2.61-1.47-2.47-2.32,1.5-1.6,2.32,2.18,2.17,1.2,2.36.7,2.45.18,2.36-.46,2.61-1.63,1.16,1.86-2.95,1.85-3.04.59ZM42.52,14.02l2.72.2,2.71-.53,1.87-1.17-.02-.04-1.87,1.17-2.69.53-2.76-.22-2.58-.78-2.38-1.34-1.58-1.49-.03.03,1.64,1.54,2.4,1.33,2.59.77Z"/><path class="cls-2" d="M43.02,43.79l-2.94-.64-2.3-1.8-1.96-2.04-.88-2.65-1.23-2.42-.62-2.76.04-2.76v-2.74s.6-2.77.6-2.77l.97-2.57,1.54-2.29,1.65-2.17,2.35-1.54,2.72-.66,2.95.29,2.31,1.84,1.61,2.26,1.36,2.34.81,2.63.62,2.64.05,2.71.15,2.77-.85,2.64-.68,2.63-1.33,2.46-1.61,2.32-2.49,1.53-2.85.73ZM40.57,42.12l2.43.53,2.43-.62,2.15-1.32,1.46-2.1,1.22-2.26.66-2.54.79-2.46-.14-2.6-.05-2.6-.59-2.51-.76-2.45-1.29-2.21-1.48-2.07-1.93-1.54-2.43-.24-2.35.57-2.03,1.33-1.53,2-1.44,2.14-.91,2.41-.53,2.54v2.63s-.05,2.63-.05,2.63l.56,2.5,1.22,2.41.82,2.45,1.76,1.83,2,1.56Z"/><path class="cls-2" d="M43.03,44.35l-3.18-.69-2.45-1.93-2.04-2.12-.91-2.72-1.26-2.51-.63-2.82.04-2.82.02-2.84.61-2.85,1.03-2.68,1.54-2.29,1.73-2.27,2.51-1.64,2.9-.7,3.19.32,2.49,1.99,1.68,2.37,1.41,2.45.82,2.66.64,2.76.05,2.71.15,2.85-.88,2.73-.71,2.72-1.36,2.51-1.67,2.41-2.66,1.63-3.05.78ZM40.32,42.66l2.69.58,2.65-.68,2.32-1.43,1.53-2.2,1.29-2.38.66-2.56.83-2.57-.14-2.68-.05-2.67-.6-2.57-.79-2.55-1.32-2.26-1.56-2.18-2.12-1.7-2.7-.27-2.54.61-2.2,1.43-1.6,2.09-1.49,2.21-.93,2.47-.57,2.68v2.68s-.05,2.7-.05,2.7l.59,2.63,1.23,2.44.85,2.53,1.85,1.92,2.17,1.7ZM43.01,43.2l-2.67-.58-2.16-1.69-1.84-1.91-.84-2.52-1.24-2.5-.57-2.56.04-2.7.02-2.73.55-2.62.97-2.52,1.44-2.14,1.6-2.1,2.19-1.43,2.52-.61,2.68.27,2.11,1.69,1.55,2.18,1.33,2.32.77,2.49.6,2.62.05,2.6.14,2.68-.82,2.55-.69,2.63-1.25,2.31-1.52,2.19-2.31,1.42-2.63.67ZM40.8,41.62l2.19.47,2.23-.57,1.98-1.22,1.38-1.98,1.17-2.17.64-2.48.77-2.39-.13-2.5-.05-2.56-.57-2.43-.74-2.37-1.24-2.13-1.42-1.99-1.74-1.39-2.18-.22-2.17.52-1.88,1.22-1.47,1.93-1.39,2.06-.87,2.31-.51,2.44v2.58s-.05,2.58-.05,2.58l.53,2.37,1.22,2.42.78,2.33,1.65,1.71,1.88,1.47Z"/><path class="cls-2" d="M24.44,43.45l-2.8-.54-2.32-1.65-1.97-1.94-1.32-2.52-.67-2.66-.69-2.66v-2.82s.36-2.62.36-2.62l.24-2.7.83-2.68,1.49-2.38,3.9-4,3-.47,2.79.76,2.23,1.67,2.12,1.88.99,2.66.92,2.54.75,2.68-.2,2.74.18,2.72-.59,2.76-1.18,2.47-1.15,2.46-1.57,2.35-2.55,1.39-2.75.56ZM22.08,41.86l2.35.45,2.37-.48,2.17-1.18,1.39-2.09,1.1-2.35,1.12-2.36.53-2.48-.17-2.64.19-2.62-.69-2.47-.89-2.47-.89-2.4-1.9-1.68-2-1.49-2.35-.64-2.4.38-3.56,3.64-1.35,2.15-.75,2.43-.23,2.62-.34,2.6v2.57s.65,2.52.65,2.52l.64,2.54,1.18,2.25,1.82,1.79,2.02,1.43Z"/><path class="cls-2" d="M24.44,44l-3.02-.58-2.48-1.77-2.03-2-1.41-2.71-.67-2.66-.71-2.72.02-2.96.34-2.62.26-2.79.85-2.75,1.6-2.53,4.03-4.12,3.29-.52,3,.82,2.34,1.75,2.22,1.97,1.04,2.79.93,2.58.77,2.77-.2,2.8.18,2.76-.65,2.95-1.18,2.47-1.19,2.53-1.65,2.46-2.74,1.49-2.93.6ZM21.85,42.41l2.58.5,2.57-.52,2.37-1.29,1.48-2.21,1.14-2.42,1.15-2.42.56-2.63-.17-2.68.19-2.68-.72-2.57-.91-2.52-.94-2.53-2-1.78-2.13-1.59-2.58-.71-2.71.42-3.74,3.83-1.42,2.27-.79,2.56-.23,2.65-.34,2.61v2.72s.66,2.59.66,2.59l.66,2.61,1.26,2.39,1.88,1.85,2.19,1.56ZM24.43,42.86l-2.56-.49-2.18-1.55-1.88-1.85-1.27-2.44-.64-2.54-.67-2.58v-2.71s.35-2.6.35-2.6l.25-2.71.77-2.5,1.45-2.3,3.68-3.77,2.69-.42,2.56.7,2.12,1.58,2,1.77.94,2.52.91,2.52.71,2.56-.19,2.68.17,2.68-.59,2.67-1.12,2.36-1.13,2.42-1.47,2.2-2.35,1.28-2.55.52ZM22.3,41.36l2.13.41,2.19-.45,1.98-1.08,1.3-1.94,1.08-2.32,1.1-2.3.5-2.35-.17-2.6.18-2.57-.66-2.36-.89-2.45-.84-2.26-1.78-1.58-1.9-1.42-2.14-.59-2.11.33-3.39,3.48-1.28,2.04-.71,2.31-.23,2.56-.34,2.59v2.46s.63,2.45.63,2.45l.63,2.48,1.11,2.12,1.73,1.7,1.89,1.33Z"/></g></svg>