<?xml version="1.0" encoding="UTF-8"?><svg id="_레이어_2" xmlns="http://www.w3.org/2000/svg" viewBox="0 0 1078.26 186.2"><defs><style>.cls-1{fill:#f7c9dd;stroke-width:0px;}</style></defs><g id="_레이어_1-2"><path class="cls-1" d="M33.9,38.26l8.12-8.12,5.46,8.12-5.46,6.31-8.12-6.31Z"/><path class="cls-1" d="M114.41,38.26l6.37-7.83,5.69,7.83-5.69,6.67-6.37-6.67Z"/><path class="cls-1" d="M42.09,143.07l-21.02-5.7-13.74-17.32-4.91-20.53-2.42-19.75.93-20.74,8.35-19.13,12.78-16.36,19.91-8.47,20.37,7.94,13.14,16.75,5.95,19.99,2.6,19.66-.16,20.89-8.11,19.56-13.21,16.87-20.47,6.35ZM25.16,131.14l16.79,4.55,16.4-5.09,11.25-14.37,7.21-17.39.14-19.02-2.5-18.89-5.37-17.88-11.12-14.17-15.89-6.19-15.58,6.62-11.1,14.21-7.46,17.11-.84,18.84,2.32,18.97,4.43,18.42,11.32,14.28Z"/><path class="cls-1" d="M120.75,144.84l-20.56-8.4-12.6-17.1-6.4-19.52-4.28-20.21,4.34-20.34,5.14-20.01,13.91-16.63,20.65-7.6,19.21,8.93,15.44,14.83,5.59,20.6,1.28,20.23-.05,20.63-8.33,19.31-12.49,17.17-20.84,8.11ZM104.7,130.64l16.11,6.58,16.27-6.33,10.81-14.86,7.44-17.25.05-19.06-1.22-19.17-4.89-18.02-13.18-12.66-15.47-7.19-16.12,5.93-11.67,13.95-4.72,18.39-3.98,18.66,3.93,18.55,5.89,17.89,10.75,14.59Z"/><polygon class="cls-1" points="92.2 21.39 87.73 15.91 101.96 4.3 120.98 1.07 138.93 5.82 154.09 15.08 150.41 21.12 136.12 12.4 120.65 8.31 104.99 10.96 92.2 21.39"/><polygon class="cls-1" points="72.52 20.33 57.8 11.59 42.03 8.03 26.19 11.38 11.42 20.13 7.82 14.04 23.59 4.7 42.08 .79 60.45 4.93 76.13 14.24 72.52 20.33"/><path class="cls-1" d="M965.48,81.26l-29.96-1.56-.48-7.76,30.53.09-.09,9.24Z"/><path class="cls-1" d="M1047.17,79.26l-29.74,1.54-.03-8.17,30.19-.09-.42,6.72Z"/><path class="cls-1" d="M1032.52,145.68l-22.04-7.67-13.76-18.08-6.52-20.83-1.53-21.19,1.21-21.49,8.91-19.98,12.28-17.85,21.49-7.12,20.75,7.85,13.06,17.3,8.7,19.64,3.18,21.73-4.44,21.54-7.39,19.4-11.98,18.73-21.92,8.03ZM1014.82,132.03l17.64,6.14,17.31-6.34,10.31-16.11,7.03-18.44,3.98-19.49-2.86-19.55-7.98-18.01-11.34-15.01-16.49-6.24-16.85,5.58-10.74,15.62-7.94,17.93-1.12,19.75,1.43,19.92,5.9,18.86,11.72,15.4Z"/><path class="cls-1" d="M950.28,144.16l-21.18-7.04-13.98-17.43-6.67-20.61-2.12-21.18,1.96-21.22,6.61-20.64,13.5-18.2,22.1-6.91,20.29,8.85,13.45,16.65,9.74,19.72.54,21.76v.12s-.88,21.39-.88,21.39l-8.18,20.38-13.83,17.5-21.36,6.86ZM933.32,131.06l17.01,5.65,17.1-5.49,11.86-15,7.34-18.31.82-20.06-.5-19.97-8.7-17.62-11.87-14.7-16.28-7.1-17.38,5.44-11.43,15.42-6.02,18.78-1.83,19.77,1.97,19.75,6.04,18.66,11.86,14.79Z"/><polygon class="cls-1" points="976.93 19.33 967.91 10.85 953.58 7.21 937.93 9.57 913.48 7.33 914.13 .28 937.72 2.45 953.94 0 971.42 4.45 977.33 10 984.51 4.33 988.89 9.88 976.93 19.33"/><polygon class="cls-1" points="1000.15 10.28 999.78 3.22 1043.4 .95 1065.33 2.83 1064.72 9.88 1043.28 8.05 1000.15 10.28"/><path class="cls-1" d="M217.21,135.42l4.82-5.88,5.52,5.88-5.52,5.52-4.82-5.52ZM224.84,121.38l-6.63.34.04-24.44-.28-24.27,7.56.2.73,24.08-1.44,24.1Z"/><path class="cls-1" d="M313.91,135.42l6.38-5.4,5.42,5.4-5.42,7.17-6.38-7.17ZM324.58,121.88l-7.65-.31-.31-24.29-1.92-24.83,9.08.77.66,24.07.15,24.59Z"/><path class="cls-1" d="M320.38,186.2l-20.51-7.58-16.36-13.78-8.13-19.52-5.76-19.41-2.61-20.13,2.86-20.35,4.36-19.98,11.24-17.58,13.53-16.08,21.41-5.33,20.38,6.47,15.03,14.7,9.5,18.27,5.47,19.66,3.48,20.33-4.6,20.13-4.8,19.63-8.32,18.9-16.34,13.18-19.81,8.47ZM303.48,172.41l16.71,6.18,16.32-6.98,14.24-11.48,7.5-17.03,4.51-18.69,4.28-18.71-3.21-18.76-5.14-18.42-8.64-16.62-13.02-12.73-16.87-5.36-17.24,4.29-11.9,14.14-10.16,15.94-4.06,18.61-2.67,19.01,2.46,18.9,5.51,18.39,7.27,17.42,14.1,11.88Z"/><path class="cls-1" d="M221.8,184.17l-19.58-6.4-15.97-13.45-9.92-18.5-4.03-19.83-3.99-20.23,4.31-20.15,3.64-19.82,9.62-18.55,14.98-15.4,21.3-5.89,20.2,7.23,15.56,14.01,10.47,18.26,4.08,20.59,1.65,40.22-7.41,19.49-8.47,18.51-15.03,15.75-21.4,4.17ZM205.73,171.48l16.52,5.4,17.39-3.38,12.65-13.26,7.93-17.32,6.76-17.8-1.58-38.51-3.73-18.63-9.33-16.28-13.68-12.32-16.77-6-17.29,4.78-12.91,13.28-8.65,16.69-3.47,18.88-4.03,18.83,3.71,18.79,3.82,18.79,8.79,16.38,13.88,11.69Z"/><polygon class="cls-1" points="183.99 37.08 177.8 33.66 186.62 17.65 201.8 6.23 220.07 1.82 239.68 3.84 256.68 14.72 266.03 31.45 259.85 34.9 251.37 19.72 237.28 10.7 220.55 8.98 204.88 12.76 192.08 22.4 183.99 37.08"/><polygon class="cls-1" points="358.72 37.01 350.32 22.25 337.78 11.93 321.79 8.29 304.71 9.79 290.64 19.28 282.53 34.82 276.26 31.54 285.2 14.42 302.27 2.9 322.28 1.14 340.98 5.4 355.82 17.62 364.87 33.51 358.72 37.01"/><path class="cls-1" d="M550.25,59.28l19.34,2.18.97,6.1-11.63-.61-1.82,17.71,1.72,18.2-7.47-.2.03-21.24-1.14-22.15Z"/><path class="cls-1" d="M646.8,103.18l-19.58.28.02-7.64,11.23.03,1.98-17.65-.88-17.84,7.55-.49-.26,21.56-.08,21.75Z"/><path class="cls-1" d="M687.04,55.84c-.59,0-1.18-.15-1.73-.45l-15.6-8.77-16.68-4.45-16.91,3.16-14.9,9.86c-1.63,1.08-3.82.63-4.9-1-1.08-1.63-.63-3.82,1-4.9l16.1-10.65,19.89-3.72,19.09,5.09,16.38,9.21c1.7.96,2.31,3.11,1.35,4.82-.65,1.16-1.85,1.8-3.09,1.8Z"/><path class="cls-1" d="M609.05,57.04c-.82,0-1.64-.28-2.31-.86l-12.82-11.04-16.38-2.21-16.42,2.94-14.5,9.34c-1.64,1.06-3.83.59-4.89-1.06-1.06-1.64-.58-3.83,1.06-4.89l15.69-10.11,18.91-3.39,19.56,2.64,14.41,12.41c1.48,1.28,1.65,3.51.37,4.99-.7.81-1.69,1.23-2.68,1.23Z"/><path class="cls-1" d="M576,143.18l-19.8-7.84-12.7-16.35-6.68-19.08-1.95-19.95,2.52-19.79,6.77-18.7,11.78-17.01,20.07-7.43,20.38,6.91,13.17,16.68,5.75,19.6,3.72,19.66-2.29,20.39-6.95,19.43-13.55,16.23-20.24,7.25ZM560.59,129.48l15.53,6.15,15.92-5.7,11.51-13.79,6.24-17.47,2.08-18.51-3.49-18.44-5.23-17.77-11.02-13.96-16.02-5.43-15.62,5.78-9.98,14.42-6.19,17.1-2.32,18.22,1.79,18.31,6.01,17.19,10.81,13.91Z"/><path class="cls-1" d="M653.17,144.58l-19.53-9.61-14.65-14.99-6.01-20.15-2.75-19.92,3.94-19.84,5-19.69,13.83-16.22,20.19-7.47,19.63,8.05,13.8,15.68,6.68,19.8,2.59,19.91-3.98,20.16-6.74,18.49-12.62,15.78-19.39,10.02ZM637.86,129.15l15.24,7.5,14.89-7.69,10.95-13.7,6.25-17.14,3.56-18.23-2.4-18.41-5.95-17.44-11.77-13.38-15.55-6.38-15.87,5.87-11.56,13.56-4.57,18-3.65,18.4,2.55,18.47,5.31,17.69,12.59,12.88Z"/><polygon class="cls-1" points="624.3 20.4 620.12 14.69 634.79 3.97 653.12 1.74 671.6 3.53 686.99 13.74 683.08 19.64 669.16 10.4 653.21 8.86 637.48 10.77 624.3 20.4"/><polygon class="cls-1" points="604.62 20.77 591.58 11.22 576.09 9.24 560.49 11.26 546.55 20.07 542.77 14.08 558.04 4.45 576.09 2.11 594.29 4.43 608.8 15.06 604.62 20.77"/><path class="cls-1" d="M423.13,85.25l26.64-.13.22,6.99-10.23-.55,1.49,18.21-1.06,18.08-6.66.14,1.29-18.22-1.66-17.8-4.61-.41-.32,18.21.84,18-6.44.18.53-21.42-.02-21.29Z"/><path class="cls-1" d="M527.31,125.58l-25.8.84-.73-7.26,11.19,1.56-.97-17.37,1.33-16.38,4.65-.43.45,16.81-.56,16.9,5.32-.02-.18-16.89-.08-16.88,6.66-.12.76,20.22-2.04,19.01Z"/><path class="cls-1" d="M467.54,82.75c-1.25,0-2.46-.66-3.1-1.83-.94-1.71-.32-3.86,1.39-4.81l15.83-8.73,18.31-4.49,18.56,3.86,16.52,8.4c1.74.88,2.44,3.01,1.55,4.76-.88,1.74-3.01,2.44-4.76,1.55l-15.68-7.97-16.07-3.34-15.85,3.89-15.01,8.27c-.54.3-1.13.44-1.71.44Z"/><path class="cls-1" d="M457.79,82.69c-.56,0-1.12-.13-1.65-.41l-15.8-8.36-16.5-4.64-16.8,3.69-16.32,8.24c-1.74.88-3.87.18-4.75-1.56-.88-1.74-.18-3.87,1.56-4.75l17.12-8.65,19.4-4.26,18.93,5.32,16.46,8.72c1.73.91,2.39,3.06,1.47,4.78-.63,1.2-1.86,1.88-3.13,1.88Z"/><path class="cls-1" d="M424.05,168.93l-20.79-5.72-13.18-16.96-6.99-19.36-2.48-20.39,3.31-20.33,6.13-19.27,13.55-16.63,20.48-5.6,19.01,6.98,15.12,14.99,4.47,20.55,1.93,19.37v20.02s-6.72,19.85-6.72,19.85l-14.24,15.64-19.61,6.85ZM407.4,157.01l16.39,4.51,15.83-5.54,12.04-13.22,5.86-17.35v-18.68s-1.86-18.64-1.86-18.64l-3.92-17.9-12.55-12.43-15.44-5.67-16.11,4.4-11.26,13.83-5.64,17.74-2.99,18.57,2.26,18.6,6.34,17.56,11.05,14.22Z"/><path class="cls-1" d="M501.17,170.12l-20.26-7.82-13.3-16.17-7.49-19.18-2.45-20.43,3.08-20.27,7.76-18.62,11.87-17.38,20.8-6.51,19.35,7.95,12.67,16.08,6.66,18.96,2.16,19.71-.83,20.25-8.1,18.82-12.92,15.41-19.01,9.2ZM485.19,156.36l15.66,6.05,14.88-7.2,11.28-13.45,7.17-16.66.75-18.42-2.01-18.38-6-17.09-10.8-13.69-15.27-6.28-16.01,5.01-10.07,14.75-7.15,17.15-2.81,18.46,2.23,18.58,6.75,17.29,11.4,13.86Z"/><polygon class="cls-1" points="471.94 47.01 468.11 41.06 483.05 31.43 500.88 28.23 519.59 29.94 534.61 40.72 530.49 46.47 517.03 36.81 501.19 35.36 485.7 38.14 471.94 47.01"/><polygon class="cls-1" points="394.49 46.45 390.41 40.67 405.3 30.13 423.99 26.48 442.42 30.5 457.6 40.43 453.73 46.35 439.64 37.13 423.91 33.71 408.15 36.79 394.49 46.45"/><path class="cls-1" d="M766.89,59.27l7.35.03-7.32,18.7-5.62,19.92-6.86,19.46-8.05,19.29-9.96-.51,7.48-19.46,9-18.62,7.16-19.35,6.82-19.46Z"/><path class="cls-1" d="M860.47,59.09l8.21.18-7.06,19.09-8.17,18.94-6.86,19.46-6.98,19.45h-9.67s8.58-19.17,8.58-19.17l6.1-19.75,9.11-18.6,6.74-19.59Z"/><polygon class="cls-1" points="886.88 25.97 868.53 24.81 850.18 25.64 831.31 25.78 812.58 23.8 813.32 16.76 831.66 18.7 849.99 18.57 868.59 17.73 887.33 18.91 886.88 25.97"/><path class="cls-1" d="M850.06,168.18l-20.02-4.07-13.46-15.65-9.52-16.74-6.46-18.25-1.95-19.83,3.19-19.39,4.26-18.9,9.47-17.55,14.38-14.52,20.07-5.68,20.3,5.62,13.19,15.84,9.31,16.75,6.69,18.21,1.73,19.76-2.11,19.66-4.44,18.99-9.43,17.97-15.65,13.47-19.53,4.3ZM833.81,157.66l16.19,3.29,16.33-3.59,13.28-11.43,8.39-15.98,4.19-17.89,1.95-18.32-1.59-18.14-6.26-17.07-8.78-15.71-11.19-13.35-16.27-4.51-16.38,4.64-12.35,12.47-8.53,15.8-4.02,17.85-2.98,18.17,1.77,18.05,6.07,17.13,8.93,15.59,11.26,13.01Z"/><path class="cls-1" d="M756.2,170.96l-19.7-7.45-14.65-13.76-9.61-17.59-3.91-19.01-3.74-19.2,1.81-20.12,5.06-18.87,9.61-17.95,16.2-12.44,19.01-5.23,18.89,5.62,14.89,13.23,9.07,17.79,5.78,18.38.74,19.49-1.64,19.32-4.1,18.92-9.78,17.22-13.89,14.5-20.03,7.16ZM740.32,157.38l15.95,6.03,16-5.72,12.12-12.66,8.81-15.51,3.83-17.64,1.52-18.2-.69-18.11-5.4-17.19-8.1-15.79-12.72-11.31-15.44-4.59-15.72,4.33-13.89,10.67-8.51,15.89-4.76,17.78-1.59,18.21,3.54,18.19,3.69,17.94,8.56,15.66,12.8,12.03Z"/><polygon class="cls-1" points="723.75 23.62 720.73 17.22 749.38 3.7 770.99 10.96 791.77 16.58 789.92 23.41 768.83 17.7 749.83 11.32 723.75 23.62"/></g></svg>