<?xml version="1.0" encoding="UTF-8"?><svg id="_레이어_2" xmlns="http://www.w3.org/2000/svg" viewBox="0 0 355.31 61.68"><defs><style>.cls-1{fill:#0f0f0e;stroke:#0f0f0e;stroke-miterlimit:10;stroke-width:.25px;}</style></defs><g id="_레이어_1-2"><path class="cls-1" d="M11.29,12.75l2.67-2.68,1.8,2.68-1.8,2.08-2.67-2.08Z"/><path class="cls-1" d="M37.8,12.75l2.1-2.58,1.87,2.58-1.87,2.2-2.1-2.2Z"/><path class="cls-1" d="M13.98,47.32l-6.92-1.88-4.52-5.71-1.62-6.77-.8-6.52.31-6.84,2.75-6.31,4.21-5.4,6.56-2.79,6.71,2.62,4.33,5.52,1.96,6.59.86,6.49-.05,6.89-2.67,6.45-4.35,5.57-6.74,2.1ZM8.41,43.39l5.53,1.5,5.4-1.68,3.7-4.74,2.37-5.74.05-6.27-.82-6.23-1.77-5.9-3.66-4.67-5.23-2.04-5.13,2.18-3.66,4.69-2.46,5.64-.28,6.22.76,6.26,1.46,6.08,3.73,4.71Z"/><path class="cls-1" d="M39.89,47.91l-6.77-2.77-4.15-5.64-2.11-6.44-1.41-6.67,1.43-6.71,1.69-6.6,4.58-5.48,6.8-2.51,6.33,2.94,5.08,4.89,1.84,6.8.42,6.67-.02,6.8-2.74,6.37-4.11,5.66-6.86,2.67ZM34.6,43.22l5.31,2.17,5.36-2.09,3.56-4.9,2.45-5.69.02-6.29-.4-6.32-1.61-5.94-4.34-4.18-5.1-2.37-5.31,1.96-3.84,4.6-1.55,6.07-1.31,6.15,1.29,6.12,1.94,5.9,3.54,4.81Z"/><polygon class="cls-1" points="30.49 7.18 29.01 5.38 33.7 1.54 39.96 .48 45.87 2.05 50.87 5.1 49.65 7.09 44.95 4.22 39.85 2.87 34.7 3.74 30.49 7.18"/><polygon class="cls-1" points="24.01 6.83 19.16 3.95 13.97 2.78 8.75 3.88 3.89 6.77 2.7 4.76 7.89 1.68 13.98 .39 20.03 1.76 25.2 4.83 24.01 6.83"/><path class="cls-1" d="M318.05,26.93l-9.87-.52-.16-2.56,10.05.03-.03,3.05Z"/><path class="cls-1" d="M344.95,26.27l-9.79.51v-2.69s9.93-.03,9.93-.03l-.14,2.22Z"/><path class="cls-1" d="M340.12,48.18l-7.26-2.53-4.53-5.97-2.15-6.87-.5-6.99.4-7.09,2.93-6.59,4.04-5.89,7.08-2.35,6.83,2.59,4.3,5.71,2.87,6.48,1.05,7.17-1.46,7.1-2.43,6.4-3.95,6.18-7.22,2.65ZM334.29,43.68l5.81,2.02,5.7-2.09,3.39-5.31,2.31-6.08,1.31-6.43-.94-6.45-2.63-5.94-3.73-4.95-5.43-2.06-5.55,1.84-3.54,5.15-2.61,5.91-.37,6.52.47,6.57,1.94,6.22,3.86,5.08Z"/><path class="cls-1" d="M313.04,47.68l-6.97-2.32-4.6-5.75-2.2-6.8-.7-6.99.65-7,2.18-6.81,4.45-6.01,7.28-2.28,6.68,2.92,4.43,5.49,3.21,6.51.18,7.18v.04s-.29,7.06-.29,7.06l-2.69,6.72-4.55,5.77-7.03,2.26ZM307.45,43.36l5.6,1.86,5.63-1.81,3.9-4.95,2.42-6.04.27-6.62-.16-6.59-2.86-5.81-3.91-4.85-5.36-2.34-5.72,1.79-3.77,5.09-1.98,6.2-.6,6.52.65,6.51,1.99,6.15,3.91,4.88Z"/><polygon class="cls-1" points="321.82 6.5 318.84 3.71 314.13 2.51 308.97 3.29 300.92 2.54 301.14 .22 308.9 .94 314.25 .13 320 1.59 321.95 3.43 324.31 1.56 325.75 3.39 321.82 6.5"/><polygon class="cls-1" points="329.46 3.52 329.34 1.19 343.7 .44 350.92 1.06 350.72 3.39 343.66 2.78 329.46 3.52"/><path class="cls-1" d="M71.65,44.8l1.59-1.94,1.82,1.94-1.82,1.82-1.59-1.82ZM74.16,40.17l-2.18.11v-8.06s-.08-8.01-.08-8.01l2.49.07.24,7.94-.47,7.95Z"/><path class="cls-1" d="M103.49,44.8l2.1-1.78,1.78,1.78-1.78,2.37-2.1-2.37ZM107,40.33l-2.52-.1-.1-8.01-.63-8.19,2.99.25.22,7.94.05,8.11Z"/><path class="cls-1" d="M105.62,61.55l-6.75-2.5-5.39-4.55-2.68-6.44-1.9-6.4-.86-6.64.94-6.71,1.43-6.59,3.7-5.8,4.46-5.3,7.05-1.76,6.71,2.14,4.95,4.85,3.13,6.03,1.8,6.49,1.15,6.71-1.52,6.64-1.58,6.48-2.74,6.23-5.38,4.35-6.52,2.8ZM100.06,57l5.5,2.04,5.38-2.3,4.69-3.79,2.47-5.62,1.49-6.17,1.41-6.17-1.06-6.19-1.69-6.08-2.84-5.48-4.29-4.2-5.55-1.77-5.68,1.42-3.92,4.66-3.34,5.26-1.34,6.14-.88,6.27.81,6.23,1.81,6.07,2.39,5.75,4.64,3.92Z"/><path class="cls-1" d="M73.16,60.88l-6.45-2.11-5.26-4.44-3.27-6.1-1.33-6.54-1.31-6.67,1.42-6.65,1.2-6.54,3.17-6.12,4.93-5.08,7.01-1.94,6.65,2.39,5.12,4.62,3.45,6.02,1.34,6.79.54,13.27-2.44,6.43-2.79,6.11-4.95,5.2-7.05,1.37ZM67.87,56.69l5.44,1.78,5.73-1.12,4.17-4.37,2.61-5.71,2.23-5.87-.52-12.7-1.23-6.15-3.07-5.37-4.5-4.06-5.52-1.98-5.69,1.58-4.25,4.38-2.85,5.5-1.14,6.23-1.33,6.21,1.22,6.2,1.26,6.2,2.89,5.4,4.57,3.86Z"/><polygon class="cls-1" points="60.71 12.36 58.67 11.23 61.58 5.95 66.57 2.18 72.59 .73 79.05 1.39 84.65 4.98 87.72 10.5 85.69 11.64 82.9 6.63 78.26 3.66 72.75 3.09 67.59 4.34 63.38 7.52 60.71 12.36"/><polygon class="cls-1" points="118.25 12.34 115.48 7.47 111.35 4.06 106.09 2.86 100.46 3.36 95.83 6.49 93.16 11.61 91.09 10.53 94.04 4.88 99.66 1.08 106.25 .5 112.41 1.91 117.29 5.94 120.27 11.18 118.25 12.34"/><path class="cls-1" d="M181.31,19.68l6.37.72.32,2.01-3.83-.2-.6,5.84.57,6-2.46-.07v-7.01s-.37-7.31-.37-7.31Z"/><path class="cls-1" d="M213.11,34.16l-6.45.09v-2.52s3.71,0,3.71,0l.65-5.82-.29-5.89,2.49-.16-.09,7.11-.02,7.18Z"/><path class="cls-1" d="M226.36,18.55c-.19,0-.39-.05-.57-.15l-5.14-2.89-5.49-1.47-5.57,1.04-4.91,3.25c-.54.36-1.26.21-1.61-.33-.35-.54-.21-1.26.33-1.62l5.3-3.51,6.55-1.23,6.29,1.68,5.39,3.04c.56.32.76,1.03.45,1.59-.21.38-.61.6-1.02.6Z"/><path class="cls-1" d="M200.68,18.94c-.27,0-.54-.09-.76-.28l-4.22-3.64-5.39-.73-5.41.97-4.78,3.08c-.54.35-1.26.19-1.61-.35-.35-.54-.19-1.26.35-1.61l5.17-3.33,6.23-1.12,6.44.87,4.75,4.1c.49.42.54,1.16.12,1.65-.23.27-.56.41-.88.41Z"/><path class="cls-1" d="M189.79,47.36l-6.52-2.59-4.18-5.39-2.2-6.3-.64-6.58.83-6.53,2.23-6.17,3.88-5.61,6.61-2.45,6.71,2.28,4.34,5.5,1.89,6.46,1.22,6.48-.75,6.73-2.29,6.41-4.46,5.35-6.67,2.39ZM184.72,42.84l5.11,2.03,5.24-1.88,3.79-4.55,2.06-5.76.68-6.11-1.15-6.08-1.72-5.86-3.63-4.61-5.27-1.79-5.14,1.91-3.29,4.76-2.04,5.64-.76,6.01.59,6.04,1.98,5.67,3.56,4.59Z"/><path class="cls-1" d="M215.21,47.82l-6.43-3.17-4.83-4.95-1.98-6.65-.91-6.57,1.3-6.55,1.65-6.49,4.55-5.35,6.65-2.46,6.47,2.66,4.54,5.17,2.2,6.53.85,6.57-1.31,6.65-2.22,6.1-4.15,5.2-6.39,3.31ZM210.16,42.73l5.02,2.47,4.9-2.54,3.61-4.52,2.06-5.65,1.17-6.01-.79-6.07-1.96-5.75-3.88-4.41-5.12-2.1-5.23,1.94-3.81,4.47-1.51,5.94-1.2,6.07.84,6.09,1.75,5.83,4.15,4.25Z"/><polygon class="cls-1" points="205.7 6.86 204.32 4.97 209.15 1.44 215.19 .7 221.27 1.29 226.34 4.66 225.05 6.61 220.47 3.56 215.22 3.05 210.04 3.68 205.7 6.86"/><polygon class="cls-1" points="199.22 6.98 194.92 3.83 189.82 3.18 184.69 3.84 180.1 6.75 178.85 4.77 183.88 1.59 189.82 .82 195.82 1.59 200.6 5.09 199.22 6.98"/><path class="cls-1" d="M139.46,28.25l8.77-.04.07,2.31-3.37-.18.49,6.01-.35,5.96-2.19.05.43-6.01-.55-5.87-1.52-.14-.1,6.01.28,5.94-2.12.06.17-7.07v-7.02Z"/><path class="cls-1" d="M173.76,41.55l-8.5.28-.24-2.4,3.68.52-.32-5.73.44-5.4,1.53-.14.15,5.55-.18,5.58h1.75s-.06-5.58-.06-5.58l-.03-5.57,2.19-.04.25,6.67-.67,6.27Z"/><path class="cls-1" d="M154.08,27.43c-.41,0-.81-.22-1.02-.6-.31-.56-.11-1.27.46-1.59l5.21-2.88,6.03-1.48,6.11,1.27,5.44,2.77c.57.29.8.99.51,1.57-.29.57-.99.8-1.57.51l-5.16-2.63-5.29-1.1-5.22,1.28-4.94,2.73c-.18.1-.37.14-.56.14Z"/><path class="cls-1" d="M150.87,27.4c-.18,0-.37-.04-.54-.14l-5.2-2.76-5.43-1.53-5.53,1.22-5.37,2.72c-.57.29-1.27.06-1.56-.52-.29-.58-.06-1.28.51-1.57l5.64-2.85,6.39-1.41,6.23,1.76,5.42,2.88c.57.3.79,1.01.48,1.58-.21.4-.61.62-1.03.62Z"/><path class="cls-1" d="M139.76,55.85l-6.85-1.89-4.34-5.6-2.3-6.39-.82-6.72,1.09-6.7,2.02-6.36,4.46-5.48,6.74-1.85,6.26,2.3,4.98,4.94,1.47,6.78.64,6.39v6.6s-2.21,6.55-2.21,6.55l-4.69,5.16-6.46,2.26ZM134.28,51.92l5.4,1.49,5.21-1.83,3.96-4.36,1.93-5.72v-6.16s-.61-6.15-.61-6.15l-1.29-5.91-4.13-4.1-5.08-1.87-5.31,1.45-3.71,4.56-1.86,5.85-.98,6.13.74,6.14,2.09,5.79,3.64,4.69Z"/><path class="cls-1" d="M165.15,56.24l-6.67-2.58-4.38-5.33-2.47-6.33-.81-6.74,1.01-6.69,2.56-6.14,3.91-5.73,6.85-2.15,6.37,2.62,4.17,5.3,2.19,6.26.71,6.5-.27,6.68-2.67,6.21-4.25,5.08-6.26,3.03ZM159.89,51.71l5.16,2,4.9-2.37,3.71-4.44,2.36-5.5.25-6.07-.66-6.06-1.98-5.64-3.56-4.52-5.03-2.07-5.27,1.65-3.32,4.87-2.35,5.66-.92,6.09.73,6.13,2.22,5.71,3.75,4.57Z"/><polygon class="cls-1" points="155.53 15.63 154.27 13.67 159.19 10.5 165.06 9.44 171.22 10 176.17 13.56 174.81 15.46 170.38 12.27 165.16 11.79 160.06 12.71 155.53 15.63"/><polygon class="cls-1" points="130.03 15.45 128.68 13.54 133.59 10.07 139.74 8.86 145.81 10.19 150.81 13.47 149.53 15.42 144.89 12.38 139.71 11.25 134.52 12.26 130.03 15.45"/><path class="cls-1" d="M252.65,19.68h2.42s-2.41,6.18-2.41,6.18l-1.85,6.57-2.26,6.42-2.65,6.36-3.28-.17,2.46-6.42,2.97-6.14,2.36-6.38,2.24-6.42Z"/><path class="cls-1" d="M283.47,19.62l2.7.06-2.32,6.3-2.69,6.25-2.26,6.42-2.3,6.41h-3.19s2.82-6.32,2.82-6.32l2.01-6.51,3-6.13,2.22-6.46Z"/><polygon class="cls-1" points="292.16 8.7 286.12 8.31 280.08 8.59 273.87 8.63 267.7 7.98 267.94 5.66 273.98 6.3 280.02 6.25 286.14 5.97 292.31 6.37 292.16 8.7"/><path class="cls-1" d="M280.04,55.6l-6.59-1.34-4.43-5.16-3.13-5.52-2.13-6.02-.64-6.54,1.05-6.39,1.4-6.24,3.12-5.79,4.74-4.79,6.61-1.87,6.69,1.85,4.34,5.23,3.07,5.52,2.2,6.01.57,6.52-.7,6.48-1.46,6.26-3.11,5.93-5.15,4.44-6.43,1.42ZM274.69,52.13l5.33,1.08,5.38-1.19,4.37-3.77,2.76-5.27,1.38-5.9.64-6.04-.52-5.98-2.06-5.63-2.89-5.18-3.68-4.41-5.36-1.49-5.39,1.53-4.07,4.11-2.81,5.21-1.32,5.89-.98,5.99.58,5.95,2,5.65,2.94,5.14,3.71,4.29Z"/><path class="cls-1" d="M249.13,56.52l-6.49-2.46-4.82-4.54-3.16-5.8-1.29-6.27-1.23-6.33.6-6.64,1.66-6.23,3.17-5.92,5.33-4.1,6.26-1.73,6.22,1.85,4.9,4.37,2.99,5.87,1.9,6.06.25,6.43-.54,6.37-1.35,6.24-3.22,5.68-4.57,4.78-6.59,2.36ZM243.9,52.04l5.25,1.99,5.27-1.89,3.99-4.18,2.9-5.12,1.26-5.82.5-6-.23-5.97-1.78-5.67-2.67-5.21-4.19-3.73-5.08-1.51-5.18,1.43-4.57,3.52-2.8,5.24-1.57,5.87-.52,6.01,1.17,6,1.22,5.92,2.82,5.17,4.22,3.97Z"/><polygon class="cls-1" points="238.45 7.92 237.45 5.81 246.89 1.35 254 3.74 260.85 5.6 260.24 7.85 253.29 5.97 247.03 3.86 238.45 7.92"/></g></svg>