<?xml version="1.0" encoding="UTF-8"?><svg id="_레이어_2" xmlns="http://www.w3.org/2000/svg" viewBox="0 0 71.38 105.85"><defs><style>.cls-1{fill:#47ac49;stroke:#47ac49;stroke-miterlimit:10;}</style></defs><g id="_레이어_1-2"><path class="cls-1" d="M6.92,79.12l-6.27-1.72-.16-5.78.43-6.65,6.85.94,2.87,1.14,3.98,3.54-1.48,7.21-6.23,1.33ZM6.53,72.79l.57.16.93-.2-.58-.52-.94-.37.03.93ZM6.92,39l-6.27-1.72-.16-5.78.44-6.65,6.85.94,2.86,1.14,3.98,3.54-1.48,7.21-6.23,1.33ZM6.53,32.67l.57.16.93-.2-.58-.52-.94-.37.03.93Z"/><polygon class="cls-1" points="32.22 105.08 31.71 94.19 45.22 91.97 52.63 82.3 59.6 68.93 62.62 51.3 60.35 33.64 53.64 20.4 44.44 12.47 31.74 7.88 33.21 .58 49.41 3.51 59.56 15.67 66.74 31.25 70.87 51.28 67.79 71.91 60.18 88.24 48.87 97.08 48.54 97.5 48.19 97.61 32.22 105.08"/></g></svg>