<?xml version="1.0" encoding="UTF-8"?><svg id="_레이어_2" xmlns="http://www.w3.org/2000/svg" viewBox="0 0 103.87 49.24"><defs><style>.cls-1{stroke-width:3px;}.cls-1,.cls-2{fill:none;stroke:#0f0f0e;stroke-miterlimit:10;}.cls-2{stroke-width:4px;}</style></defs><g id="_레이어_1-2"><polygon class="cls-1" points="100.82 46.44 87.13 47.23 72.92 47.74 58.72 47.18 44.5 47.29 30.3 46 16.07 45.77 1.91 46.9 1.59 30.14 2.67 13.35 1.64 2.25 16.09 1.51 30.3 2.82 44.5 3.86 58.7 3.28 72.91 2.58 87.13 3.22 102.21 1.68 100.81 17.33 101.84 32.14 100.82 46.44"/><polyline class="cls-1" points="101.32 16.15 87.2 17.2 73.1 16.87 59 17.38 44.89 15.84 30.79 16.6 16.68 16.87 2.59 18.34"/><polyline class="cls-1" points="50.95 48.07 51.65 33.58 51.99 19.07 52 4.56"/><polyline class="cls-2" points="17.32 30.45 28.65 37.71 37.96 28.15 46.08 16.01"/></g></svg>